<?xml version="1.0" encoding="UTF-8"?>
<svg id="Layer_2" data-name="Layer 2" xmlns="http://www.w3.org/2000/svg" viewBox="0 0 152.71 152.87">
  <defs>
    <style>
      .cls-1 {
        fill: #bd256e;
      }
    </style>
  </defs>
  <g id="Layer_1-2" data-name="Layer 1">
    <path class="cls-1" d="M75.8,152.24s0,.63.63.63q.63,0,.63-.63c9.51-58.04,17.13-65.65,75.17-75.17.63,0,.63-1.59,0-1.59C94.2,65.97,86.59,58.36,77.07.63c0-.32,0-.63-.63-.63s-.63,0-.63.63C66.29,58.67,58.67,66.29.63,75.48.63,75.48,0,75.48,0,76.12q0,.63.63.63c58.04,9.51,65.65,17.13,75.17,74.85"/>
  </g>
</svg>