<?xml version="1.0" encoding="utf-8"?>
<!-- Generator: Adobe Illustrator 29.5.1, SVG Export Plug-In . SVG Version: 9.03 Build 0)  -->
<svg version="1.0" id="Ebene_1" xmlns="http://www.w3.org/2000/svg" xmlns:xlink="http://www.w3.org/1999/xlink" x="0px" y="0px"
	 viewBox="0 0 2834.6 2834.6" style="enable-background:new 0 0 2834.6 2834.6;" xml:space="preserve">
<style type="text/css">
	.st0{fill:#F59F61;}
</style>
<g>
	<path class="st0" d="M2089.4,1324.6c0,286.6-331.1,404.8-642.7,404.8c-471.8,0-727.1-316.1-727.1-705
		c0-409.3,361.4-727.7,800.7-727.7c337.6,0,590.8,134.2,590.8,407.1c0,86.4-43.3,175.1-162.3,293.4c-67.1-95.5-162.3-191-285.7-191
		c-155.8,0-255.4,95.5-255.4,207c0,104.6,88.7,186.5,199.1,186.5c103.9,0,246.7-93.2,341.9-202.4
		C2065.6,1104,2089.4,1220,2089.4,1324.6"/>
	<g>
		<path class="st0" d="M403.9,2532.8c-38,0-70-5.9-95.9-17.8c-25.9-11.9-45.4-29.8-58.7-53.9c-13.2-24-19.9-54.3-19.9-90.8
			c0-53.3,15-93.6,45-121c30-27.4,73-41.1,129-41.1c31.3,0,59.1,4.9,83.3,14.6c24.2,9.7,43.1,24,56.8,42.7
			c13.7,18.7,20.5,41.8,20.5,69.2h-72.6c0-14.6-3.7-26.9-11.2-36.7c-7.5-9.9-17.8-17.5-31-22.8c-13.2-5.3-28.7-8-46.3-8
			c-21.3,0-39.3,3.8-53.9,11.4c-14.6,7.6-25.6,18.6-33.1,33.1c-7.5,14.5-11.2,31.9-11.2,52.3v12.8c0,20.7,3.7,38.3,11.2,52.7
			c7.5,14.5,18.5,25.5,33.1,33.1c14.6,7.6,32.6,11.4,53.9,11.4c18.6,0,34.6-2.5,48.2-7.5c13.5-5,24-12.6,31.5-22.6
			c7.5-10,11.2-22.2,11.2-36.5h70.8c0,27.1-6.8,49.9-20.3,68.5c-13.5,18.6-32.3,32.7-56.4,42.5
			C463.8,2527.9,435.8,2532.8,403.9,2532.8z"/>
		<path class="st0" d="M649,2527.3v-313.6h73.5v251.5h178.9v62.1H649z"/>
		<path class="st0" d="M1122.8,2532.8c-37.4,0-69.8-6.2-97-18.5c-27.2-12.3-48.2-30.5-62.8-54.5c-14.6-24-21.9-53.7-21.9-89
			c0-35.6,7.3-65.4,21.9-89.5c14.6-24,35.5-42.2,62.8-54.6c27.2-12.3,59.6-18.5,97-18.5c37.7,0,70.2,6.2,97.5,18.5
			c27.2,12.3,48.2,30.5,62.8,54.6c14.6,24,21.9,53.9,21.9,89.5c0,35.3-7.3,65-21.9,89c-14.6,24-35.5,42.2-62.8,54.5
			C1193,2526.6,1160.5,2532.8,1122.8,2532.8z M1122.8,2473.9c16.4,0,31.2-2.1,44.3-6.4c13.1-4.3,24.3-10.5,33.6-18.7
			c9.3-8.2,16.4-18.4,21.5-30.6c5-12.2,7.5-26,7.5-41.5v-12.3c0-15.8-2.5-29.7-7.5-41.8c-5-12-12.2-22.1-21.5-30.4
			c-9.3-8.2-20.5-14.4-33.6-18.7c-13.1-4.3-27.8-6.4-44.3-6.4c-16.1,0-30.7,2.1-43.8,6.4c-13.1,4.3-24.3,10.5-33.6,18.7
			c-9.3,8.2-16.4,18.3-21.2,30.4c-4.9,12-7.3,25.9-7.3,41.8v12.3c0,15.5,2.4,29.4,7.3,41.5c4.9,12.2,11.9,22.4,21.2,30.6
			c9.3,8.2,20.5,14.5,33.6,18.7C1092.1,2471.8,1106.7,2473.9,1122.8,2473.9z"/>
		<path class="st0" d="M1546,2532.8c-34.4,0-63.3-5.3-86.7-16c-23.4-10.6-41.1-26.2-53-46.6c-11.9-20.4-17.8-45.3-17.8-74.9v-181.7
			h73.5v178.9c0,25.9,7.3,45.9,21.9,60c14.6,14.2,35.3,21.2,62.1,21.2c26.8,0,47.5-7.1,62.3-21.2c14.8-14.1,22.1-34.2,22.1-60
			v-178.9h73.5v181.7c0,29.5-6,54.5-18,74.9c-12,20.4-29.7,35.9-53,46.6C1609.6,2527.5,1580.7,2532.8,1546,2532.8z"/>
		<path class="st0" d="M1801.6,2527.3v-313.6h148.8c35.6,0,66.1,5.9,91.5,17.6c25.4,11.7,44.9,29.1,58.4,52.3
			c13.5,23.1,20.3,52.2,20.3,87.2c0,34.7-6.8,63.6-20.3,86.7c-13.5,23.1-33,40.6-58.4,52.3c-25.4,11.7-55.9,17.6-91.5,17.6H1801.6z
			 M1875.1,2468h73c14.9,0,28.3-2,40.2-5.9c11.9-4,22-9.7,30.4-17.3c8.4-7.6,14.8-17.1,19.4-28.5c4.6-11.4,6.8-24.6,6.8-39.5v-12.3
			c0-14.9-2.3-28.1-6.8-39.5c-4.6-11.4-11-20.9-19.4-28.5c-8.4-7.6-18.5-13.4-30.4-17.3c-11.9-4-25.3-5.9-40.2-5.9h-73V2468z"/>
		<path class="st0" d="M2467.1,2532.8c-22.2,0-41.8-2.8-58.9-8.4c-17-5.6-31.5-14.5-43.4-26.7c-11.9-12.2-20.8-28-26.7-47.5
			c-5.9-19.5-8.9-43.2-8.9-71.2c0-31.3,3-57.9,8.9-79.7c5.9-21.8,14.8-39.3,26.7-52.5c11.9-13.2,26.4-23,43.6-29.2
			c17.2-6.2,36.9-9.4,59.1-9.4c26.2,0,48.2,4.2,66.2,12.6c18,8.4,31.6,20,41.1,34.9c9.4,14.9,14.2,32.9,14.2,53.9h-65.7
			c0-11.3-2.2-20.7-6.6-28.3c-4.4-7.6-10.9-13.2-19.4-16.9c-8.5-3.7-18.7-5.5-30.6-5.5c-18,0-31.9,3.8-41.8,11.4
			c-9.9,7.6-16.7,18.7-20.5,33.3c-3.8,14.6-5.7,32.4-5.7,53.4c5.8-6.1,13.1-11.5,21.9-16.2c8.8-4.7,18.8-8.4,29.9-11.2
			c11.1-2.7,22-4.1,32.6-4.1c24.3,0,45.2,4.2,62.5,12.6c17.3,8.4,30.7,20.1,39.9,35.1c9.3,15.1,13.9,32.8,13.9,53.2
			c0,21.9-5.6,40.9-16.9,56.8c-11.3,16-26.8,28.2-46.6,36.7C2516.3,2528.5,2493.3,2532.8,2467.1,2532.8z M2466.2,2482.1
			c14,0,25.8-2.3,35.4-6.8c9.6-4.6,16.8-11,21.7-19.2c4.9-8.2,7.3-17.6,7.3-28.3c0-11-2.4-20.5-7.1-28.5
			c-4.7-8.1-11.8-14.4-21.2-18.9c-9.4-4.6-21.3-6.8-35.6-6.8c-14,0-25.9,2.3-35.6,6.8c-9.7,4.6-17.1,11-22.1,19.2
			c-5,8.2-7.5,17.8-7.5,28.8c0,10.3,2.4,19.6,7.3,27.8c4.9,8.2,12.2,14.6,21.9,19.2C2440.4,2479.8,2452.2,2482.1,2466.2,2482.1z"/>
	</g>
</g>
</svg>
