<?xml version="1.0" encoding="UTF-8"?>
<svg id="Ebene_1" data-name="Ebene 1" xmlns="http://www.w3.org/2000/svg" viewBox="0 0 200.61 42.57">
  <defs>
    <style>
      .cls-1 {
        fill: #fff;
      }

      .cls-1, .cls-2 {
        stroke-width: 0px;
      }

      .cls-2 {
        fill: #045b66;
      }
    </style>
  </defs>
  <path class="cls-2" d="M-29.17,99.83V4.78c1.08-.07,2.17-.18,3.26-.19,6.44-.06,12.88-.01,19.32-.18,2.65-.07,5.28-.63,7.93-.88,3.79-.36,7.59-.72,11.39-.93,7.57-.42,15.15-.69,22.72-1.11,2.08-.12,3.47.68,4.4,2.49,1.12,2.18,2.21,4.37,3.37,6.65.63-.95,1.27-1.89,1.88-2.85,1.16-1.83,2.78-2.68,4.93-2.77,5-.21,9.98-.56,14.98-.79,4.59-.21,9.18-.29,13.76-.5.82-.04,1.68-.31,2.43-.67,2.39-1.14,4.85-1.79,7.5-1.32.82.14,1.66.36,1.81,1.39.15,1.04-.59,1.46-1.35,1.84-2.02,1.02-4.2,1.15-6.37.96-1.76-.15-2.76.83-3.65,2.07-.68.96-.2,2,.97,2.02,1.05.02,2.14-.11,3.15-.4,4.01-1.16,8.03-2.33,12-3.65,6.09-2.03,12.39-2.74,18.73-3.19,3.15-.23,6.3-.37,9.45-.51.73-.03,1.48.06,2.2.18,1.81.32,2.19.74,1.87,2.64-.65,3.82-1.42,7.62-2.16,11.43-.11.56-.27,1.11-.46,1.89.47-.19.77-.27,1.02-.42,2.86-1.69,5.66-3.5,8.58-5.07,5.28-2.85,10.56-5.75,16.33-7.5,4.68-1.42,9.39-2.7,14.28-3,1.09-.07,2.22-.01,3.3.17,1.74.29,2.83,1.62,3.1,3.59.13.95.19,1.91.27,2.87.09.99.53,1.69,1.55,1.81,1.42.17,2.87.48,4.27.36,5.63-.51,11.3-.83,16.85-1.86,7.62-1.42,15.23-1.43,22.89-1.09.11,0,.22.07.4.13v91.45H-29.17ZM124.85,8.88c-.07-.07-.14-.13-.21-.2-1.28.53-2.53,1.16-3.84,1.58-2.05.66-4.13,1.31-6.23,1.73-1.28.25-1.78-.47-1.32-1.74.38-1.04,1.06-1.96,1.54-2.97.25-.53.36-1.13.54-1.7-.54-.13-1.08-.38-1.62-.39-6.51-.12-12.89.84-19.11,2.71-3.4,1.02-6.65,2.55-10.03,3.66-1.81.59-3.72.95-5.62,1.1-1.89.15-2.66-1.01-2.25-2.9.12-.53.33-1.03.49-1.55.43-1.31.34-1.5-.96-1.52-3.72-.05-7.44-.13-11.15-.04-4.7.11-9.4.31-14.09.61-.98.06-2.19.49-2.84,1.19-1.39,1.49-2.53,3.25-3.7,4.95-.6.86-1.06,1.83-1.68,2.91-.23-.5-.36-.79-.49-1.08-1.18-2.7-2.39-5.4-3.54-8.12-.87-2.04-2.24-2.92-4.5-2.77-8.77.55-17.55.96-26.33,1.44-1.84.1-3.67.25-5.5.47-.33.04-.6.56-.89.85.29.18.59.53.87.52,5.8-.31,11.59-.75,17.39-.97,4.94-.18,9.88-.1,14.83-.15.95,0,1.67.37,2.14,1.2,1.1,1.95,2.2,3.9,3.26,5.88.77,1.43,1.49,2.89,2.3,4.47.39-.54.63-.88.88-1.21,1.7-2.24,3.38-4.5,5.1-6.72.91-1.18,2.14-1.75,3.62-1.79,6.95-.15,13.9-.46,20.84-.43,3.39.01,3.2-.19,2.75,3.32-.22,1.72.63,3.03,2.28,3.01,1.85-.02,3.78-.22,5.54-.78,3.02-.96,5.86-2.58,8.92-3.33,5.19-1.27,10.48-2.13,15.75-3.04,1.78-.31,3.62-.26,5.74-.39-.32.73-.47,1.14-.67,1.52-.34.62-.76,1.19-1.09,1.82-.46.89-.61,1.78,0,2.72.62.95,1.51,1.17,2.45.87,2.17-.68,4.3-1.47,6.45-2.21.35-.12.7-.25,1.05-.37.07.08.14.17.22.25-3.89,9.18-7.78,18.37-11.66,27.52,1.76,1.55,3.08,1.48,4.51-.17.43-.5.85-1.02,1.24-1.55,3.26-4.46,6.51-8.92,9.76-13.39,1.14-1.57,2.51-2.85,4.29-3.64,5.6-2.5,11.18-5.05,16.81-7.47,2.29-.98,4.7-1.67,7.07-2.45.71-.23,1.47-.28,2.56-.48-.38,1.17-.66,2.01-.92,2.86-.51,1.71.26,2.91,1.99,2.84,1.37-.05,2.77-.27,4.09-.67,1.89-.56,3.72-1.34,5.52-2.01.52.71.97,1.52,1.6,2.13,1.4,1.37,3.21,1.61,5.04,1.48,3.02-.21,6.03-.48,9.04-.79,1.6-.17,3.19-.47,4.85-.72-.15-.81-.26-1.41-.42-2.25-1.62.31-3.15.74-4.7.88-3.66.34-7.33.61-11.01.74-.7.02-1.54-.61-2.1-1.16-.65-.65-1.06-1.54-1.58-2.32-2.82.9-5.61,1.82-8.43,2.64-.61.18-1.48.21-1.93-.12-.37-.27-.41-1.19-.36-1.81.05-.69.42-1.35.54-2.05.12-.7.09-1.42.13-2.14-.66.06-1.38-.04-1.96.2-4.99,2.03-9.97,4.1-14.92,6.22-2.86,1.23-5.64,2.66-8.51,3.88-3.99,1.69-7.25,4.25-9.78,7.86-2.76,3.94-5.7,7.76-8.59,11.61-.52.7-1.2,1.49-2.14.88-.98-.63-.16-1.46.13-2.09,3.01-6.49,6.08-12.96,9.12-19.44,1.16-2.47,2.28-4.96,3.42-7.45ZM159.7,9.98c.61,0,.95.1,1.21-.01,2.61-1.13,5.22-2.27,7.79-3.49.34-.16.48-.75.71-1.14-.45-.05-.99-.3-1.34-.13-2.53,1.21-5.03,2.48-7.53,3.77-.28.14-.44.52-.84,1.01ZM115.41,9.96c.57.14.77.25.94.21,2.98-.66,5.74-1.86,8.26-3.6.31-.21.43-.72.64-1.09-.45-.06-.98-.31-1.34-.15-2.23.99-4.44,2.05-6.62,3.15-.6.3-1.08.84-1.87,1.48ZM187.71,23.35c.69.1,1.38.39,1.92.22.61-.2,1.28-.72,1.58-1.29.29-.56.26-1.38.15-2.05-.09-.52-.39-1.26-.79-1.43-.67-.29-1.49-.2-2.27-.27-.06-.65-.14-1.44-.22-2.23-.12.01-.24.02-.36.04v7.01ZM195.95,23.38c0-1.02.1-2.18-.04-3.31-.07-.56-.47-1.26-.93-1.53-.71-.42-1.61.02-2.08.73,2.28-.51,2.54-.38,2.29,1.18-.43.06-.89.06-1.31.18-1.12.31-1.7,1.23-1.31,2.14.44,1.03,1.29.96,2.19.73.4-.1.84-.08,1.2-.11ZM197.62,23.45c.11,0,.22.02.33.03.8-1.52-.97-4.01,1.64-4.95-.66.06-1.33.11-1.97.17v4.76Z"/>
  <path class="cls-1" d="M124.85,8.88c-1.14,2.48-2.26,4.97-3.42,7.45-3.04,6.48-6.11,12.95-9.12,19.44-.29.62-1.11,1.45-.13,2.09.95.61,1.62-.18,2.14-.88,2.89-3.85,5.82-7.67,8.59-11.61,2.54-3.62,5.79-6.17,9.78-7.86,2.87-1.22,5.65-2.65,8.51-3.88,4.95-2.13,9.93-4.19,14.92-6.22.59-.24,1.31-.14,1.96-.2-.04.71-.01,1.44-.13,2.14-.12.69-.49,1.35-.54,2.05-.05.62,0,1.54.36,1.81.45.33,1.32.3,1.93.12,2.82-.82,5.6-1.75,8.43-2.64.51.78.92,1.67,1.58,2.32.56.56,1.4,1.19,2.1,1.16,3.67-.13,7.34-.4,11.01-.74,1.55-.14,3.08-.57,4.7-.88.15.84.27,1.44.42,2.25-1.66.25-3.25.55-4.85.72-3.01.31-6.02.59-9.04.79-1.83.13-3.64-.11-5.04-1.48-.63-.61-1.07-1.42-1.6-2.13-1.8.67-3.63,1.45-5.52,2.01-1.32.39-2.72.61-4.09.67-1.72.07-2.49-1.14-1.99-2.84.25-.85.54-1.69.92-2.86-1.09.2-1.85.25-2.56.48-2.37.77-4.78,1.46-7.07,2.45-5.63,2.41-11.21,4.97-16.81,7.47-1.78.79-3.15,2.07-4.29,3.64-3.25,4.47-6.5,8.93-9.76,13.39-.39.54-.81,1.05-1.24,1.55-1.43,1.65-2.75,1.71-4.51.17,3.88-9.15,7.77-18.34,11.66-27.52-.07-.08-.14-.17-.22-.25-.35.12-.7.25-1.05.37-2.15.75-4.28,1.54-6.45,2.21-.94.29-1.83.08-2.45-.87-.61-.93-.46-1.83,0-2.72.33-.63.74-1.2,1.09-1.82.21-.38.35-.79.67-1.52-2.12.13-3.96.08-5.74.39-5.27.91-10.56,1.77-15.75,3.04-3.06.75-5.9,2.37-8.92,3.33-1.76.56-3.69.76-5.54.78-1.65.02-2.5-1.3-2.28-3.01.45-3.51.64-3.3-2.75-3.32-6.95-.03-13.89.28-20.84.43-1.48.03-2.71.61-3.62,1.79-1.72,2.22-3.41,4.48-5.1,6.72-.25.33-.49.66-.88,1.21-.81-1.58-1.53-3.04-2.3-4.47-1.07-1.97-2.16-3.92-3.26-5.88-.47-.83-1.18-1.21-2.14-1.2-4.94.05-9.89-.04-14.83.15-5.8.21-11.59.66-17.39.97-.28.01-.58-.34-.87-.52.3-.3.57-.81.89-.85,1.82-.22,3.66-.37,5.5-.47,8.78-.48,17.56-.89,26.33-1.44,2.26-.14,3.63.73,4.5,2.77,1.15,2.72,2.36,5.41,3.54,8.12.13.29.27.58.49,1.08.62-1.08,1.08-2.04,1.68-2.91,1.18-1.69,2.31-3.45,3.7-4.95.65-.7,1.86-1.13,2.84-1.19,4.69-.3,9.39-.5,14.09-.61,3.72-.09,7.44,0,11.15.04,1.3.02,1.39.21.96,1.52-.17.52-.38,1.02-.49,1.55-.41,1.89.36,3.05,2.25,2.9,1.89-.15,3.81-.51,5.62-1.1,3.38-1.11,6.63-2.63,10.03-3.66,6.22-1.87,12.6-2.83,19.11-2.71.54,0,1.08.25,1.62.39-.17.57-.28,1.17-.54,1.7-.48,1.01-1.17,1.93-1.54,2.97-.46,1.27.04,1.99,1.32,1.74,2.11-.42,4.18-1.06,6.23-1.73,1.31-.42,2.56-1.05,3.84-1.58.07.07.14.13.21.2Z"/>
  <path class="cls-1" d="M159.7,9.98c.4-.49.57-.86.84-1.01,2.49-1.29,4.99-2.57,7.53-3.77.35-.17.89.08,1.34.13-.23.39-.38.99-.71,1.14-2.57,1.22-5.18,2.36-7.79,3.49-.26.11-.6.01-1.21.01Z"/>
  <path class="cls-1" d="M115.41,9.96c.8-.64,1.28-1.18,1.87-1.48,2.18-1.1,4.39-2.16,6.62-3.15.36-.16.89.09,1.34.15-.21.37-.33.87-.64,1.09-2.52,1.74-5.28,2.94-8.26,3.6-.17.04-.37-.08-.94-.21Z"/>
  <path class="cls-1" d="M187.71,23.35v-7.01c.12-.01.24-.02.36-.04.08.79.16,1.58.22,2.23.79.07,1.61-.02,2.27.27.4.17.71.9.79,1.43.11.67.14,1.49-.15,2.05-.29.57-.96,1.09-1.58,1.29-.55.18-1.24-.12-1.92-.22ZM188.23,21.2c-.05.84-.13,1.82,1.2,1.86.92.03,1.35-.66,1.35-2.08,0-.95,0-1.93-1.3-1.93-1.44,0-1.26,1.09-1.25,2.15Z"/>
  <path class="cls-1" d="M195.95,23.38c-.36.03-.8,0-1.2.11-.9.23-1.74.3-2.19-.73-.39-.91.19-1.84,1.31-2.14.43-.12.88-.12,1.31-.18.25-1.55-.01-1.69-2.29-1.18.48-.71,1.38-1.15,2.08-.73.46.27.86.98.93,1.53.14,1.13.04,2.29.04,3.31ZM195.15,20.97c-1,.03-2.01-.04-2.01,1.27,0,.31.67.91,1.01.89,1.33-.07,1.16-1.07,1-2.16Z"/>
  <path class="cls-1" d="M197.62,23.45v-4.76c.64-.06,1.3-.11,1.97-.17-2.61.94-.84,3.43-1.64,4.95-.11,0-.22-.02-.33-.03Z"/>
  <path class="cls-2" d="M188.23,21.2c-.01-1.06-.19-2.15,1.25-2.15,1.31,0,1.3.98,1.3,1.93,0,1.43-.44,2.11-1.35,2.08-1.34-.04-1.25-1.02-1.2-1.86Z"/>
  <path class="cls-2" d="M195.15,20.97c.17,1.09.33,2.09-1,2.16-.34.02-1.01-.58-1.01-.89,0-1.31,1-1.24,2.01-1.27Z"/>
</svg>