<?xml version="1.0" encoding="UTF-8"?>
<svg id="Ebene_1" data-name="Ebene 1" xmlns="http://www.w3.org/2000/svg" viewBox="0 0 549.02 606.28">
  <defs>
    <style>
      .cls-1 {
        fill: #1d1d1b;
      }
    </style>
  </defs>
  <path class="cls-1" d="M237.79,237.57c-1.77,3.69-5.64,9.67-10.24,9.44-2.84-.15-5.76-1.04-8.64-1.2-6.23-.35-12.65.34-18.6,2.16-.3-7.62-1.38-15.26-3.78-22.5-1.82-5.52-4.66-9.88-10.62-11.46-7.83-2.06-12.88,2.04-18.59,6.61-24.33,19.45-41.93,55.48-15.25,80.99-.29,1.92-.72,3.86-.93,5.79-.85,7.88-.26,14.51-.02,22.28.41,13.22-3.75,27.93-9.96,39.5-2.21,4.11-5.19,7.75-6.92,12.04-.87,4.36-1.69,8.73-2.51,13.11-.38,2.09-.77,4.18-1.16,6.26-7.8-6.34-17.62-10.71-28.5-12.67-2.49-.45-4.97-.77-7.44-.97-.81-1.93-1.61-3.88-2.39-5.84-13.5-34.08-21.1-72.48-21.1-113.11,0-87.46,35.18-164.62,88.78-210.5.09.27.16.55.25.81,8.65,26.79,30.22,48.01,56.92,56.72-.34,15.17,2.46,30.99,9.34,44.54,1.87,3.7,4.31,7.11,6.32,10.72,11.18,20.02,15.26,45.97,5.04,67.28Z"/>
  <path class="cls-1" d="M477.88,268c0,40.24-7.45,78.3-20.71,112.13-.76,1.93-1.53,3.84-2.33,5.74-1.34.16-2.31.56-3.44,1.48-.01.03-.03.05-.04.08-.33.57-1.03,1.77-2.56,2.01-.95.15-1.61-.11-4.36-1.19-.59-.23-1.4-.55-1.61-.62-12.27-3.83-23.97-4.35-36.36-4.9-2.27-.1-4.58-.2-6.92-.33-29.17-1.53-55.51-2.42-80.53-2.7-1.25-.01-2.58-.11-3.87-.21-5.26-.39-8.83-.44-10.85,1.93-.86-1.63-1.85-3.29-2.99-5.01-.23-.35-.47-.72-.72-1.08-2.67-3.87-6.84-7.49-7.14-12.38,4.68-.5,9.21-1.65,13.73-2.86,4.5,4.52,9.72,9.99,15.51,13.99,7.49,5.17,15.91,7.86,24.9,2.81,1.16-.65,2.24-1.39,3.27-2.2,5.47-4.32,9.33-10.67,13.24-16.26,1.68.63,3.41,1.12,5.17,1.5,11.43,2.53,38.26,5.24,41.88-10.2,1.95-8.3-2.85-14.22-9.96-17.64,6.84-3.88,13.64-9.46,15.72-17.4,2.43-9.28-2.01-18.04-9.55-23.33-.92-.65-2.13-1.11-2.9-1.66-.2-.15-.47-.23-.38-.55l24.71-34.12c.46-.28,1.84.94,2.4,1.22,10.19,5.17,18.16-2.19,20.09-12.06.1-.51-.04-1.42.12-1.69.04-.07.98-.53,1.26-.78,10.83-9.45,7.17-27.01-6.78-30.88-5.34-1.48-10.76-.76-15.49,2.13-.83.51-4.08,3.43-4.35,3.47-.57.08-3.27-.65-4.32-.64-5.25.06-10.27,3.22-13.56,7.1-.7.82-2.26,3.56-3.02,3.7l-41.5-3.84c-11.75.08-18.71,10.45-14.26,21.46,5.05,12.45,12.28,25.16,17.94,37.5.14.32,1.09,2.4.99,2.49-1.93.25-3.85.2-5.77.59-5.82,1.18-11.67,5.56-15.47,9.97-.55.1-.33-.24-.36-.6-.3-4.16-.33-7.98-1.03-12.17-2.28-13.76-9.32-24.32-14.44-36.92-2.73-6.7-5.13-13.59-6.85-20.63,5.08,1.3,10.44,1.61,15.61.61,10.89-2.11,19.8-9.98,25.38-19.26.62-1.02,2.31-4.86,2.82-5.34.39-.38,3.61-1.17,4.49-1.51,6.77-2.63,12.35-7.79,15.9-14.1,7.45-13.19,7.34-33.43-9-39.48l-.25-.48c1.11-6.73,1.57-13.53,1.45-20.35,10.21-5.23,18.34-24.61,8.4-33.17-.67-.58-2.69-1.64-2.98-2.06-.37-.52-.75-2.54-1.13-3.43-2.06-4.75-6.58-7.5-11.73-7.59,6.03-6.3,11.22-13.43,15.36-21.13,53.81,45.84,89.17,123.16,89.17,210.84Z"/>
  <path class="cls-1" d="M250.42,35.02c2.91,4.84,5.2,9.99,7.38,15.18,17.16-9.22,37.03-12.39,56.23-8.42,3.32-7.53,8.08-14.01,13.7-19.72-16.97-5.75-34.81-8.84-53.23-8.84-12.95,0-25.6,1.53-37.88,4.43,5.28,5.13,9.94,10.94,13.79,17.36Z"/>
  <path class="cls-1" d="M244.98,379.27h-3.32c.19-.29.44-.55.66-.85.22-.31,1.4-1.77,1.67-1.57.28.83.62,1.63.99,2.42Z"/>
  <g>
    <g>
      <path class="cls-1" d="M386.28,319.19l-.43,4.37-1.7,17.21-4.97-.49,1.71-17.34.47-4.79c2.56.82,4.14,1.04,4.92,1.04Z"/>
      <path class="cls-1" d="M389.84,283.18l-1.53,15.47-.43,4.36c-2.03-.28-3.7-.43-4.83-.51-.05,0-.09-.01-.14-.02l.44-4.46,1.52-15.33,4.97.49Z"/>
    </g>
    <path class="cls-1" d="M375.83,163.07c-.04-.14-.14-.31-.31-.49.13.19.24.39.33.6,0-.03,0-.07-.01-.11ZM375.83,163.07c-.04-.14-.14-.31-.31-.49.13.19.24.39.33.6,0-.03,0-.07-.01-.11ZM348.52,75.13l1.07,1.14h.01c-.34-.37-.7-.76-1.08-1.14Z"/>
    <ellipse class="cls-1" cx="188.98" cy="296.8" rx="6.7" ry="4.19" transform="translate(-149.63 201.16) rotate(-41.74)"/>
    <ellipse class="cls-1" cx="214.52" cy="290.78" rx="7.77" ry="4.19" transform="translate(-123.6 163.32) rotate(-32.93)"/>
    <ellipse class="cls-1" cx="235.11" cy="276.46" rx="7.14" ry="3.85" transform="translate(-94.19 123.93) rotate(-24.77)"/>
    <ellipse class="cls-1" cx="203.41" cy="278.53" rx="8.18" ry="4.17" transform="translate(-97.98 110.84) rotate(-24.77)"/>
    <ellipse class="cls-1" cx="325.32" cy="80.76" rx="3.16" ry="6.2" transform="translate(20.5 220.18) rotate(-38.52)"/>
    <ellipse class="cls-1" cx="308.98" cy="74.8" rx="2.5" ry="4.91" transform="translate(65.18 278.83) rotate(-53.53)"/>
    <ellipse class="cls-1" cx="324.67" cy="94.82" rx="2.27" ry="4.46" transform="translate(-3.91 175.04) rotate(-30)"/>
    <path class="cls-1" d="M349.61,76.28h-.01l-1.07-1.14c.39.39.74.77,1.08,1.14Z"/>
    <path class="cls-1" d="M259.89,103.25c.35-6.95,3.09-14.01,8.13-19.39,1.29-1.31,2.66-2.58,4.23-3.6.76-.55,1.59-1,2.41-1.46.42-.22.86-.4,1.28-.6l.65-.29c.22-.1.45-.16.67-.25.45-.16.9-.32,1.35-.47.46-.13.92-.24,1.38-.36.46-.11.93-.19,1.4-.28.47-.09.94-.13,1.41-.19,1.89-.2,3.79-.16,5.66.06,1.87.23,3.7.65,5.47,1.23,1.77.59,3.47,1.34,5.08,2.23,3.24,1.78,6.13,4.11,8.56,6.81,4.86,5.41,7.85,12.31,8.41,19.26-.35-.8-.62-1.62-1-2.4-.18-.39-.34-.79-.52-1.18l-.56-1.15c-.78-1.52-1.58-3-2.52-4.4-1.83-2.81-3.98-5.35-6.4-7.56-1.22-1.1-2.49-2.11-3.82-3.04-1.34-.91-2.73-1.73-4.18-2.44-1.44-.7-2.92-1.32-4.44-1.77-1.52-.47-3.07-.8-4.62-.99-1.56-.2-3.12-.23-4.67-.11-1.55.12-3.07.4-4.54.9-.18.06-.37.1-.55.17l-.54.21c-.36.15-.73.27-1.08.44-.69.36-1.42.65-2.09,1.08-1.38.77-2.66,1.74-3.89,2.77-.59.55-1.22,1.07-1.77,1.67-.28.3-.58.58-.85.89l-.8.93c-.13.16-.27.31-.4.47l-.37.49-.75.99-.7,1.03c-.23.35-.47.69-.68,1.05-1.77,2.85-3.18,5.96-4.33,9.25Z"/>
    <path class="cls-1" d="M379.47,160.14c.33.54.61,1.13.86,1.76-.11-.41-.36-1.06-.86-1.76Z"/>
    <path class="cls-1" d="M236.73,94.09c-3.82-1.71-7.38-4.27-10.32-7.42-1.55-1.02-3-2.13-4.43-3.27-2.35-1.91-4.57-3.95-6.68-6.1-2.11-2.15-4.1-4.41-5.96-6.8-1.85-2.4-3.61-4.89-5.02-7.72,2.8,1.47,5.25,3.28,7.62,5.17,1.67,1.36,3.28,2.78,4.83,4.27-.02-.04-.04-.07-.06-.11-.5-.99-.94-2-1.35-3.03-.42-1.03-.77-2.08-1.11-3.12-.17-.53-.32-.99-.48-1.46-.15-.47-.33-.94-.5-1.4-1.42-3.73-3.32-7.35-5.44-10.93-2.09-3.6-4.47-7.09-6.69-10.85,1.82,1.2,3.53,2.55,5.14,4.02,1.61,1.46,3.13,3.03,4.53,4.72,2.8,3.36,5.2,7.17,6.8,11.4.19.53.38,1.06.55,1.6.13.41.26.84.37,1.23.22-2.77.65-5.59.81-8.25.49-6.56.37-12.97.31-19.7,2.91,7.55,4.07,15.78,3.74,23.88-.37,5.25-.79,9.91.77,14.86.89,2.97,2.3,5.78,3.95,8.41,2.39,3.89,5.33,7.4,8.61,10.6Z"/>
    <path class="cls-1" d="M379.96,317.81h0s.03.01.03.01c-.01,0-.02-.01-.03-.01Z"/>
    <path class="cls-1" d="M399.89,318.33c-4.56,3.59-9.8,5.13-14.04,5.23-.27,0-.53,0-.79,0-1.16,0-2.23-.12-3.17-.34-.38-.09-.57-.12-.79-.2-.08-.03-.15-.06-.21-.08-.25-.11-.39-.2-.66-.23-.27-.04-.47,0-.61.03-.59.11-1,.45-1.2.64-.4.71-1.03,1.69-2.28,2.34-.4.21-.83.37-1.25.48-.16-.2-.3-.4-.43-.6-.53-.83-1.14-2.13-1.31-3.88.37.04.64,0,.83-.1.16-.09.24-.2.54-.76.39-.69.91-1.63,2.04-2.38,0,0,.27-.18.56-.32.94-.45,1.98-.46,2.84-.34,0,0,.02,0,.03,0,.56.08,1.05.22,1.37.33h0c2.56.82,4.14,1.04,4.92,1.04.17,0,.3-.01.39-.03,1.62-.29,2.54-1.79,4.01-4.17,1.38-2.23,1.95-4.24,2.43-5.97.57-2.03.83-3.77.96-5-.86-.15-2.08-.36-3.55-.6-.53-.09-1.5-.24-2.25-.35-.13-.02-.27-.04-.4-.06-2.03-.28-3.7-.43-4.83-.51-.05,0-.09-.01-.14-.02-2.09-.27-4.25-.5-6.48-.68-.76-.06-1.51-.11-2.26-.16.13-1.49.24-3.03.39-4.63.74.04,1.49.09,2.25.15,2.32.19,4.5.49,6.54.86.06,0,.11.02.17.03,1.57.18,3.16.38,4.79.6,1.02.14,2.05.3,3.1.46,2.12.33,4.17.69,6.17,1.07.2.06.46.16.77.28,3.21,1.34,6.69,4.75,6.98,8.65.3,4.08-2.86,7.19-5.44,9.22Z"/>
    <path class="cls-1" d="M378.37,110.68c3.23-4.13,3.57-9.64,2.77-9.97-.73-.3-2.07,3.78-6.52,6.87-2.37,1.64-4.77,2.4-6.53,2.77,1.43-2.04,3.3-5.17,4.57-9.3,1.56-5.05,1.77-10.13,1.14-10.27-.6-.13-1.22,4.52-4.39,9.13-1.2,1.74-2.56,3.2-3.97,4.41-2.64-9.02-6.91-17.21-12.78-24.52,8.05-5.6,20.64-16.62,28.34-34.62,7.34-17.13,7.11-32.95,5.64-43.18-.1-.73-.55-1.37-1.19-1.71-.66-.36-1.43-.39-2.08-.08-2.34,1.1-8.98,4.7-15.45,8.4h-.01s-.02.01-.03.03c-3.33,1.88-9.29,5.34-12.25,7.36-10.68,7.28-18.39,12.55-25.11,22.2-3.95,5.68-6.98,12.01-9.02,18.82-7.37-2.85-15.08-4.34-23.04-4.47-23.4-.4-40.34,11.35-48.15,18.13-1.57-10.9-5.88-25.17-16.85-38.43-20.77-25.08-50.56-27.92-59.18-28.2l-1.76-.05-.52,1.67c-1.95,5.98-10.6,37.33,8.79,66.88,15.69,23.94,39.74,31.36,49.56,33.46-1.7,13.73-.5,26.82,3.57,38.93,2.46,7.28,5,11.46,7.68,15.88,2.61,4.3,5.31,8.74,8.19,16.65,2.8,7.69,8.64,23.68,5.73,42.72-3.11,20.43-9.96,33.15-20.34,37.81-4.54,2.02-7.6,1.55-11.82.91-4.39-.67-9.82-1.51-18.12.61-3.15.82-11.82,3.5-20.44,10.18,1.48-4.47,2.48-9.09,2.97-13.83.97-9.54-.23-19.37-3.5-28.44-.24-.67-.78-1.2-1.47-1.41-.67-.23-1.43-.13-2.01.27-11.31,7.67-20.24,17.59-25.15,27.97-4.89,10.27-5.63,20.39-2.12,28.52,2.33,5.36,6.74,10.08,12.81,13.67-2.66,8.37-3,15.65-3.16,18.89-.2,3.95.02,7.08.2,10.12.3,4.7.59,9.15-.44,16.73-.74,5.42-1.93,10.78-3.55,15.95-2.87,9.19-7.17,17.98-12.77,26.12l-.27.41-.1.5c-.05.27-.1.54-.14.8-.39,2.16-.77,4.26-1.14,6.29,1.44-.47,2.88-.9,4.06-1.25.32-.1.64-.19.95-.28.25-1.4.51-2.82.77-4.26.55-.81,1.09-1.63,1.61-2.45,4.93-7.71,8.79-15.93,11.47-24.5,1.68-5.41,2.94-11.02,3.71-16.7,1.1-8.04.78-12.93.48-17.66-.2-3.04-.38-5.91-.2-9.59.17-3.56.53-10.94,3.41-19.2v-.02c.05-.15.1-.31.16-.45v-.02c1.56-4.32,3.81-8.88,7.08-13.25.37-.48.74-.95,1.13-1.41,0-.01.01-.03.01-.03.05-.04.08-.08.1-.13t.02-.02c9.79-11.92,22.8-16.02,26.68-17.01,7.36-1.89,12.09-1.17,16.24-.54,4.46.69,8.65,1.33,14.44-1.27,11.92-5.32,19.67-19.24,23.04-41.33,3.08-20.21-3.02-36.95-5.96-45.01-3.04-8.35-5.86-12.99-8.59-17.47-2.56-4.19-4.95-8.16-7.24-14.96-3.91-11.63-5.02-24.27-3.28-37.54l8.15-2.37-7.64-1.26v-.03l-2.21-.38c-7.38-1.3-32.66-7.45-48.68-31.86-16.84-25.68-11.16-52.81-8.78-61.23,9.88.6,35.69,4.33,54.01,26.44,11.83,14.3,15.41,29.92,16.33,40.5l.44,5.01v-.03s.44,5.21.44,5.21l3.34-9.02c5.08-5.07,22.38-20.13,47.94-19.69,23.27.39,39.34,13.48,46.79,21.17.5.5.96.99,1.37,1.46.14.14.29.3.42.44l.07.09c.64.71,1.17,1.34,1.58,1.85.49.59.96,1.19,1.41,1.79-2.49,3.91-4.29,8.2-5.33,12.61-1.12,4.74-1.35,9.61-.73,14.29.15-4.72,1.17-9.35,2.94-13.57,1.45-3.51,3.44-6.74,5.79-9.59,3.93,5.92,6.83,12.4,8.7,19.42-.83.48-1.64.89-2.41,1.26-1.08.49-2.6,1.3-4.24,2.57-8.61,6.69-9.35,17.83-9.53,20.21-.28,4.37-.61,9.4,2.67,14.34,3.97,5.93,10.37,7.55,12.12,7.92l1.4.98c.74.53,1.5,1.03,2.27,1.53-.23.02-.46.06-.68.09-3.99.55-10.8,2.19-11.64,6.83-.87,4.83,5.14,10,11.04,11.38-1.33,2.96-3.49,6.1-6.95,8.27-6.87,4.28-14.94,2.05-21.4.24-6.88-1.91-13.18-5.44-18.72-10.49l-3.8-3.46.23-.11c.66-.27,1.35-.53,2.09-.79,1.47-.47,3.08-.82,5.04-1.22-.69-.76-1.55-1.29-2.44-1.69-.92-.38-1.9-.63-2.92-.73-1.01-.08-2.05,0-3.08.22-.24.05-.5.14-.74.21-.26.07-.5.16-.74.26l-.73.3-.69.38c-.47.25-.88.56-1.31.87-.2.16-.4.35-.59.52-.2.17-.38.36-.55.54-.73.76-1.32,1.63-1.74,2.56-.43.91-.73,1.89-.85,2.88-.11.98-.08,1.98.23,2.95,1.31-1.49,2.43-2.71,3.58-3.74.59-.51,1.15-.98,1.75-1.39.27-.23.58-.4.87-.62.31-.17.6-.38.91-.54l.06-.03,1.64,5.07c.84,2.54,1.84,5.07,3,7.48,3.82,7.99,9.05,18.93,18.07,21.31,1.2.33,2.43.47,3.71.47,4.24,0,8.87-1.72,13.48-5.07-3.72,5.4-8.61,8.96-13.84,9.64-4.96.66-11.84-1.27-17.1-4.78-1.07-.72-2.62-2.77-5.67-4.97-.88-.66-2.55-1.81-4.68-2.94-3.81-2.01-6.99-2.81-11.16-3.84-10.26-2.53-10.78-2.67-12.12-2.97-7.99-1.76-14.95-6.64-20.47-12.62,5.04,6.63,11.75,12.26,19.81,14.86,2,.67,3.97,1.24,5.91,1.9,4.91,1.66,9.72,3.7,14.39,5.97-.74,2.38-.74,6.16-.08,11.73.45,3.86,1.24,8.57,2.22,13.25,1.39,6.55,3.26,13.02,5.73,19.74,4.22,11.49,7.36,17.82,9.89,22.9,1.69,3.4,3.01,6.08,4.14,9.28,7.2,20.41,2.38,50.83-16.24,63.54-4.87,3.32-13.21,7.05-25.76,6.61.62-3.97,1.16-7.96,1.62-11.91.82-7.27,1.92-14.66,1.54-22.03-.42-7.38-2.66-14.6-6.01-21.11,6.59,15.82,4.32,26.54,1.03,42.58-.93,4.67-1.95,9.3-3.07,13.91,0,0-.02,0-.02.01-3.14,7.25-4.02,14.22-2.61,20.7.4,1.86.95,3.49,1.6,4.97,1.05,2.37,2.37,4.36,3.79,6.28.53.73,1.08,1.44,1.63,2.16.73.95,1.47,1.91,2.21,2.93h0c1.49,2.05,2.94,4.32,4.27,7.2.48,1.01.85,1.96,1.16,2.87,1.13,3.23,1.45,6.31,1.95,12.23l2.37,1.6,1.84-6.55c-.44-4.12-.99-6.99-2.31-10.25-.12-.33-.26-.67-.41-1.02-.12-.27-.25-.55-.38-.84-.73-1.57-1.5-2.98-2.27-4.27-1.6-2.65-3.24-4.78-4.74-6.75-1.25-1.61-2.38-3.08-3.33-4.63-1.26-2-2.24-4.14-2.84-6.91-1.11-5.13-.51-10.71,1.8-16.58,12.8.66,21.81-2.67,27.58-6.11,5.04,7.31,11.02,13.51,17.78,18.45,4.97,3.61,7,4.14,8.46,4.15.05.01.1.01.14.01,5.41,0,10.92-5.01,25.61-31.53,1.94-3.51,3.85-7.08,5.72-10.61,2.3,1.13,4.28,1.46,6,1.03-.16-.2-.3-.4-.43-.6-.53-.83-1.14-2.12-1.31-3.88-.83-.07-2.16-.54-3.96-1.71l-2.14-1.37-1.17,2.25c-2.18,4.21-4.47,8.45-6.78,12.64-14.16,25.59-18.86,29.13-21.56,29.13h-.05c-.3,0-1.66-.26-5.78-3.27-6.34-4.62-11.95-10.43-16.69-17.3,7.81-6.04,13.7-15.27,16.9-26.49.68,1.95,1.27,3.92,1.73,5.88.08.38.18.78.27,1.17.73,3.24,1.47,6.58,4.38,7.29,2.74.67,4.98-1.77,5.82-2.7,3.17-3.48,5.9-7.5,8.54-11.39,4.37-6.45,8.5-12.56,13.55-14.29.27-.08,1.04-.35,7.49.05.16.01.32.01.47.02.13-1.48.25-3.02.39-4.62-.2-.01-.39-.03-.59-.04-6.81-.42-8.18-.16-9.25.2-6.53,2.24-11.09,8.96-15.91,16.07-2.54,3.75-5.17,7.64-8.13,10.88-.58.64-.97.97-1.21,1.14-.38-.79-.77-2.53-1.03-3.64-.08-.4-.18-.8-.27-1.21-1.01-4.26-2.51-8.55-4.48-12.78h0c1.83-11.38.94-23.24-2.53-33.1-1.22-3.47-2.68-6.41-4.37-9.8-2.46-4.98-5.55-11.19-9.67-22.44-2.4-6.51-4.21-12.76-5.54-19.1-2.57-12.2-2.89-19.28-2.44-21.94.22.23.47.5.68.73,1.44,1.53,3.4,3.61,6.47,5.67,6.22,4.15,14.19,6.32,20.28,5.51,9.94-1.3,18.76-10.58,22.66-23.47.11-.37.23-.74.33-1.11.15.01.32.02.5.04.52.04,1.08.07,1.65.07,2.6,0,5.53-.49,8.4-1.97,6.48-3.36,9.79-10.39,10.74-15.85.59-3.39.39-6.52-.52-8.98-.25-.62-.53-1.21-.86-1.75-.27-.43-.57-.83-.9-1.17-.97-1.06-1.88-1.44-3.17-1.99-.95-.4-2.28-.95-4.42-2.09-1.89-1.02-3.74-2.13-5.53-3.32,1.09-3.88,3.23-13.11,3.14-24.78,0-3.59-.25-7.11-.68-10.5,3-.48,7.46-1.8,10.46-5.61ZM183.14,255.4c-.82,8.09-3.25,15.81-7.22,22.95v.02c-.4.48-.78.97-1.17,1.48-2.98,3.98-5.18,8.12-6.82,12.15-2.05-2.66-4.18-6.31-5.31-10.94-.69-2.82-2.3-9.4.8-15.1,2.03-3.72,4.97-5.05,7.21-6.71,4.54-3.36,9.51-10.47,10.24-27.34,2.29,7.58,3.07,15.65,2.27,23.49ZM349.59,76.27l-1.07-1.14c.39.39.74.77,1.09,1.14h-.02ZM345.17,71.85c-2.64-2.43-5.87-5.06-9.65-7.57-3.16-2.1-6.4-3.91-9.71-5.44,1.9-6.54,4.75-12.57,8.52-17.98,5.97-8.55,12.31-13.09,23.91-21.03,1.43-.97,3.96-2.53,7.21-4.44-1.35,5.71-2.41,11.53-3.14,17.4-.51,4.05-.77,7.25-.97,9.82-.36,4.54-.58,7.55-1.91,11.29-2.36,6.64-7.15,12.68-14.26,17.95ZM350.15,125.95c0-2.01,1.01-3.64,2.27-3.64s2.28,1.63,2.28,3.64-1.01,3.63-2.28,3.63-2.27-1.63-2.27-3.63ZM359.83,143.45c-.16,1.06-.59,3.93-1.96,4.23-.94.21-2.1-.86-2.77-1.47-.83-.77-1.34-1.57-1.62-2.12.14-.28.39-.8.68-1.47,2.84-6.41,6.11-18.43.94-23.21-.18-.18-.5-.45-.94-.74.3-.47,2.76-4.41,4.85-3.9,1.06.25,1.63,1.53,1.96,2.44,2.55,6.87.66,14.36-1.14,26.24ZM349.26,193.44c-5.59,4.77-11.07,6.76-15.46,5.6-6.66-1.76-11.24-10.86-14.63-17.93,2.71,1.76,5.55,3.23,8.51,4.41,1.57,1.39,3,2.98,4.24,4.75,1.41,1.99,2.58,4.23,3.45,6.61-.11-2.54-.55-5.12-1.37-7.63-.18-.62-.4-1.23-.64-1.85,5.97,1.67,13.71,3.67,21.1.8-1.63,1.92-3.37,3.7-5.2,5.24ZM375.83,163.07s0,.08,0,.11c-.08-.21-.2-.41-.32-.6.17.17.27.34.31.49ZM366.02,178.43c.53-1.25,1-2.53,1.42-3.83.37-.06.75-.11,1.14-.19,2.7-.52,5.41-1.87,7.56-3.66-.88,4.24-3.45,9.4-8.16,11.84-1.6.83-3.26,1.23-4.81,1.39,1.1-1.84,2.05-3.71,2.85-5.55ZM260.29,371.6c-5.64-14.38-7.75-23.16-8.6-28.64-.2-1.24-.81-5.47-2.07-11.16-1.02-4.64-2.07-8.4-2.79-10.85.89,6.88.68,13.73-.26,20.4-6.18.24-16.46-.67-26.28-7.4-1.5-1.01-2.93-2.14-4.28-3.35-.05-.04-.09-.1-.15-.14-3.67-3.33-6.78-7.33-9.15-11.77l-4.08-7.69-.29,8.71c-.37,11.17-3.15,22.32-8.06,32.22-1.19,2.4-2.47,4.66-3.81,6.78-3.03,4.82-6.38,8.96-9.79,12.5,2.02-1.65,4.08-3.28,6.18-4.76,1.42-1.01,2.33-1.63,3.55-2.07h1.86c1.13-1.62,2.23-3.31,3.28-5.1,1-1.69,1.96-3.46,2.88-5.3,4.17-8.38,6.9-17.61,8.03-27.04,1.64,2.22,3.46,4.29,5.43,6.17-1.79,11.29-5.32,21.17-10.45,29.38-.2.31-.39.62-.58.93-.11.16-.21.32-.31.48-1.01,1.57-2.11,3.28-3.05,5.18.68,1.68,1.18,3.77,1.72,6.22.21.97.43,1.96.67,2.94-.08-3.78,1.52-6.95,3.37-9.93.39-.64.8-1.27,1.2-1.89.31-.5.62-.99.92-1.46,5.04-8.07,8.6-17.59,10.63-28.37.54.42,1.09.82,1.65,1.2,10.66,7.3,21.77,8.41,28.64,8.23-3.24,4.52-6.68,9.07-10.21,13.5-2.35,2.96-4.08,5.03-5.35,6.54-2.34,2.8-3.41,4.08-4.4,6.14-.25.51-.47,1.02-.65,1.54-.7,1.84-1.06,3.74-1.16,5.68,1.55-.03,3.1-.05,4.65-.07.13-1.8.55-3.51,1.33-5.14.09-.19.19-.37.29-.55.69-1.26,1.56-2.3,3.51-4.62,1.27-1.53,3.02-3.62,5.41-6.62,3.02-3.78,5.96-7.65,8.79-11.54l7.52,22.66.04.07.09.14c1.08,1.83,2.14,3.67,3.16,5.52,1.76,0,3.52,0,5.29-.02-1.02-1.9-2.07-3.78-3.15-5.65-.38-.67-.78-1.34-1.17-2Z"/>
    <path class="cls-1" d="M359.56,188.58c-.1.37-.21.74-.33,1.11.29-.36.56-.7.83-1.07-.17-.01-.34-.03-.5-.04Z"/>
    <path class="cls-1" d="M311.23,138.04c-.98-3.97-4.13-14.76-12.69-21.3-1.86-1.42-5.13-3.86-9.45-4.03-2.78-.11-6.14.71-8.25,2.11h0c-2.53,1.49-3.8,3.01-5.43,2.6-.53-.13-.86-.41-1.46-.92-2.02-1.72-2.08-3.63-2.72-3.6-.65.02-1.51,2.02-1.2,4,.42,2.7,2.82,4.08,2.52,4.49-.29.39-2.66-.53-4.92-2.25-3.21-2.45-4.18-4.99-4.62-4.78-.56.26-.09,5,3.11,7.94,2.82,2.6,6.74,2.83,6.62,3.43-.09.44-2.21.51-2.72.52-1.37.05-1.96-.16-2.05.05-.17.39,1.59,1.92,3.74,2.53,2.46.7,4.65-.02,5.53-.32,3.07-1.06,3.24-2.59,6.36-4.12,2.65-1.29,5.06-1.43,6-1.48,4.24-.2,7.44,1.56,9.81,2.91,6.39,3.62,10.02,9,11.82,12.22Z"/>
    <ellipse class="cls-1" cx="381.21" cy="344.7" rx="4.56" ry="18.22" transform="translate(2.44 692.08) rotate(-84.65)"/>
    <path class="cls-1" d="M386.9,290.4c-.08,0-.15,0-.23-.01-.89-.08-1.67-.63-2.06-1.43l-23.83-50.06c-.39-.82-.31-1.79.21-2.54.52-.75,1.4-1.15,2.31-1.07l56.23,5.23c.91.08,1.7.65,2.07,1.48.38.83.28,1.79-.25,2.53l-32.41,44.84c-.48.66-1.25,1.05-2.05,1.05ZM367.28,240.74l20.07,42.18,27.3-37.77-47.38-4.4Z"/>
    <g>
      <path class="cls-1" d="M379.07,255.35c1.09-.84,2.79-1.86,4.84-1.82,2.92.06,4.36,2.15,6.66,3.11,2.28.95,6.03,1.05,12.43-3.12-4.94,6.71-9.88,13.41-14.81,20.12-3.04-6.1-6.08-12.2-9.12-18.3Z"/>
      <path class="cls-1" d="M387.89,277.05l-11.07-22.22,1.16-.9c1.94-1.49,3.94-2.2,5.96-2.19,2.41.05,3.98,1.14,5.38,2.1.66.45,1.28.88,1.93,1.16,2.5,1.05,6.13.05,10.77-2.97l8.23-5.35-22.36,30.38ZM381.37,255.97l7.11,14.27,8.75-11.88c-2.78.85-5.22.83-7.35-.07-1-.42-1.84-1-2.58-1.51-1.17-.8-2.09-1.44-3.42-1.47-.81-.03-1.65.21-2.5.66Z"/>
    </g>
    <path class="cls-1" d="M414.58,237.5c1.76-6,5.33-9.5,8.1-9.09,2.76.41,4.99,4.75,4.22,5.7-.57.7-2.43-.81-5.23-.66-3.13.16-5.55,2.3-7.09,4.05Z"/>
    <path class="cls-1" d="M426.27,239.65c5.35-3.23,10.36-3.39,12.12-1.21,1.76,2.17.46,6.87-.76,7.05-.89.13-1.24-2.24-3.4-4.02-2.41-2-5.64-2.06-7.96-1.82Z"/>
    <path class="cls-1" d="M431.13,233.71c1.25-6.4,5-10.82,9.03-11.11,1.76-.13,4.63.45,5.91,2.75,1.4,2.51.41,6.17-1.42,6.95-1.81.77-3.33-1.77-6.54-1.93-2.88-.14-5.34,1.72-6.98,3.34Z"/>
  </g>
  <path class="cls-1" d="M261.46,373.6c-1.8.01-3.6.01-5.39.01h-6.61c-6.14-.01-12.39-.02-18.66.05-1.7.02-3.41.04-5.11.08-3.29.05-6.57.14-9.83.27l-.84.03c-2.78.09-5.4.21-6.95.53-1.11.23-2.08.66-2.94,1.18-.12-.54-.25-1.1-.37-1.66-.41-1.85-.85-3.85-1.5-5.78-.58-1.74-1.34-3.42-2.4-4.89-1.27-1.75-2.96-3.21-5.31-4.14-.46-.18-.95-.34-1.46-.48l-.36-.09h-3.26c-3.03,4.82-6.38,8.96-9.79,12.5,2.02-1.65,4.08-3.28,6.18-4.76,1.42-1.01,2.33-1.63,3.55-2.07h2.54c2.28.72,3.59,2.3,4.55,4.7.68,1.68,1.18,3.77,1.72,6.22.21.97.43,1.96.67,2.94.29,1.15.61,2.28,1.02,3.35l1.44,3.82,3.59-3.13c1.12-.99,2.18-1.93,3.28-2.16,1.21-.25,4.21-.36,6-.42l.85-.03c2.81-.11,5.63-.19,8.46-.25,1.55-.03,3.1-.05,4.65-.07,4.17-.06,8.34-.08,12.48-.08h3.32c1.5.01,3,.01,4.48.01,3.25,0,6.55,0,9.86-.01,1.76,0,3.52,0,5.29-.02-1.02-1.9-2.07-3.78-3.15-5.65ZM534.77,386.97c-13.45-1.67-27.5-2.85-41.09-3.99l-5.29-.44c-2.8-.24-5.69-.52-8.61-.8-7.19-.69-14.62-1.4-21.49-1.59-.38-.01-.75-.02-1.12-.02-3.16-.06-6.22.16-9.64,3.07-.05.04-.09.08-.13.12-.32-.12-.64-.25-.89-.35-.98-.39-1.6-.63-1.99-.75-12.97-4.06-25.03-4.59-37.79-5.16-2.27-.1-4.55-.2-6.88-.32-17.21-.91-33.44-1.59-48.99-2.05-9.63-.29-18.99-.49-28.17-.61-1.21-.02-2.41-.04-3.61-.05-1.07-.01-2.26-.1-3.51-.19-4.47-.33-10.23-.76-14.26,2.57-1.15.95-2.16,2.2-2.96,3.85l-2.99,10.53-.74,2.61c-.66-2.87-1.28-5.46-1.91-7.72-1.17-4.14-2.38-7.18-3.92-8.77-1.21-1.25-2.69-2.07-4.15-2.61-1.82-.67-3.63-.9-4.85-.97h-.13s-.13-.01-.13-.01c-.22.01-.45.01-.67.02-5.76.17-11.6.24-17.4.26-1.8.01-3.6.01-5.39.01h-6.61c-6.14-.01-12.39-.02-18.66.05-1.7.02-3.41.04-5.11.08-3.29.05-6.57.14-9.83.27l-.84.03c-2.78.09-5.4.21-6.95.53-1.11.23-2.08.66-2.94,1.18-.12-.54-.25-1.1-.37-1.66-.41-1.85-.85-3.85-1.5-5.78-.58-1.74-1.34-3.42-2.4-4.89-1.27-1.75-2.96-3.21-5.31-4.14-.46-.18-.95-.34-1.46-.48l-.36-.09h-4.21l-.42.13c-2.34.73-3.88,1.82-5.51,2.98-3.62,2.56-7.05,5.44-10.37,8.23-6.42,5.4-12.49,10.5-19.99,13.63-.26.11-.55.22-.88.34-1.3.47-3.09,1-4.95,1.56-.44.13-.88.26-1.3.39-5.98,1.8-10.07,3.23-12.07,5.28-.86.88-1.6,1.98-2.17,3.17-.04-.03-.09-.06-.13-.09-8.1-5.94-17.92-10.05-28.65-11.99-3.63-.66-7.24-1.04-10.84-1.23-9.11-.48-18.1.3-26.89,1.05-1.46.13-2.93.25-4.4.38-3.44.28-6.99.55-10.6.82-13.27,1.01-26.98,2.05-39.25,4-6.07.97-9.56,4-11.01,9.53l-.09.35v3.77l3.46,31.77c.6,4.88,3.59,8.7,7.99,10.2,2.21.75,3.96.63,5.5.48l10.72,106.5c-.79.11-1.68.23-2.61.51-4.99,1.53-8.23,6.38-8.07,12.07.19,6.13,1.12,12.62,2.03,18.89.75,5.16,1.52,10.49,1.84,15.45v.3s.09.28.09.28c1.58,5.71,5.83,8.82,12.02,8.82.25,0,.5,0,.76-.01,6.36-.26,13.19-1.12,19.8-1.96,4.22-.53,8.59-1.08,12.67-1.45,4.48-.4,9.18-.71,13.73-1.01,7.9-.52,16.07-1.05,23.78-2.11.15-.03,15.77-2.23,20.36-6.95.86-.88,1.37-1.9,1.79-2.73.12-.24.29-.58.42-.81,8.49-.41,17.1-.89,25.43-1.36,13.74-.77,27.95-1.56,41.9-2.05,1.33-.04,2.65-.03,4.05-.03,1.84.01,3.73.02,5.65-.1,1.85,5.34,5.52,8.18,10.95,8.45,8.2.4,17.12.02,25.74-.35,4.92-.21,9.57-.41,14.11-.48,2.91-.04,6.11.07,9.51.18,5.86.19,11.92.39,16.98-.18,1.62-.18,3.32-.85,4.78-1.82,1.47.97,3.17,1.64,4.79,1.82,9.14,1.04,18.98.85,28.49.67,9.6-.19,19.53-.38,28.64.7l.27.02c14.49.3,28.83.88,45.89,1.67,2.74.13,5.54.33,8.25.53,7.65.56,15.56,1.14,23.49.1,2.34-.31,4.63-.84,6.85-1.37.07.07.14.15.22.23.57.59,1.28,1.32,2.38,1.93,1.52.85,2.99,1.37,4.48,1.59,4.82.72,10.11.96,15.22,1.2,3.29.16,6.4.3,9.4.56,9.74.85,19.29,1.72,26.53,2.38,3.1.29,6.31.71,9.71,1.16,5.24.69,10.65,1.41,15.63,1.57,6.33.19,10.97-2.87,12.68-8.45l.47-3.67c1.27-10.96,2.57-22.29,3.46-33.44l.02-.33-.05-.32c-.69-4.51-3.88-8.37-7.94-9.59-.94-.29-1.82-.39-2.6-.47l10.8-106.51c.56.1,1.13.19,1.72.17,4.93-.2,9.5-3.75,10.86-8.44l.09-.31.02-.31c.31-4.97,1.08-10.31,1.83-15.48.93-6.5,1.9-13.23,2.04-19.57.22-10.78-9.19-11.95-14.25-12.58ZM541.37,418.31c-.75,5.16-1.52,10.49-1.85,15.58-.78,2.19-3.22,4.01-5.52,4.1-.13,0-.51-.08-.76-.13-1.31-.25-3.09-.59-4.62.46-.84.58-1.4,1.47-1.58,2.51l-11.48,113.12,1.86.84c1.29.59,2.5.72,3.58.84.62.07,1.16.13,1.62.27,1.9.57,3.48,2.49,3.93,4.72-.88,10.94-2.17,22.09-3.41,32.88l-.33,2.9c-.43,1.33-1.73,4.39-7,4.2-4.71-.15-9.98-.85-15.08-1.52-3.3-.44-6.72-.89-9.94-1.18-7.24-.67-16.8-1.54-26.55-2.39-3.11-.27-6.42-.42-9.63-.57-4.97-.23-10.11-.48-14.66-1.15-.8-.12-1.61-.41-2.53-.93-.38-.21-.67-.51-1.08-.93-.54-.56-1.21-1.25-2.23-1.83l-.97-.54-1.83.44c-2.26.54-4.6,1.1-6.86,1.39-7.35.98-14.62.44-22.33-.12-2.75-.2-5.59-.41-8.4-.54-17.05-.79-31.39-1.38-45.89-1.68-9.46-1.11-19.54-.91-29.28-.72-9.33.18-18.97.36-27.74-.64-1.11-.12-2.52-.88-3.29-1.76l-2.14-2.45-2.13,2.45c-.77.88-2.18,1.64-3.29,1.76-4.64.53-10.5.34-16.16.15-3.46-.11-6.73-.22-9.77-.18-4.62.07-9.53.28-14.28.48-8.49.37-17.27.75-25.21.36-3.01-.15-5.25-1.31-6.38-6.44l-.56-2.55-2.58.35c-2.38.31-4.78.3-7.33.28-1.39,0-2.83-.01-4.28.04-14,.48-28.25,1.28-42.02,2.05-8.53.48-17.35.97-26.02,1.39l-.31.03c-2.53.4-3.58,2.49-4.27,3.87-.27.52-.54,1.07-.78,1.32-2.04,2.09-11.32,4.48-17.08,5.28-7.51,1.03-15.57,1.56-23.37,2.07-4.58.3-9.32.61-13.87,1.02-4.18.38-8.6.94-12.87,1.48-6.49.82-13.2,1.67-19.31,1.91-4.88.2-6.35-2.18-7.02-4.39-.34-5.09-1.11-10.43-1.86-15.59-.88-6.12-1.8-12.44-1.97-18.25-.07-2.58,1.15-5.58,4.06-6.48.5-.15,1.12-.23,1.77-.31.99-.13,2.11-.27,3.28-.73l2.02-.78-11.72-116.35-2.48-.08c-1.14-.03-2.11.07-2.96.15-1.31.13-2.19.22-3.35-.18-2.33-.79-3.86-2.81-4.19-5.48l-3.42-31.28v-2.86c.9-3.1,2.59-4.43,6.33-5.03,12.03-1.92,25.63-2.95,38.78-3.95,3.62-.27,7.18-.54,10.63-.82,1.48-.13,2.96-.25,4.43-.38,9.86-.85,19.29-1.65,28.79-.86,2.47.2,4.95.52,7.44.97,10.88,1.96,20.7,6.33,28.5,12.67.36.28.71.57,1.06.87l4.49,3.84.19-5.9c.04-1.41.79-3.18,1.79-4.2.85-.88,3.87-1.99,6.86-2.94,1.44-.47,2.88-.9,4.06-1.25.32-.1.64-.19.95-.28,2.18-.66,4.07-1.24,5.44-1.82,8.3-3.46,14.99-9.08,21.46-14.52,1.25-1.05,2.52-2.12,3.81-3.18,2.02-1.65,4.08-3.28,6.18-4.76,1.42-1.01,2.33-1.63,3.55-2.07h2.54c2.28.72,3.59,2.3,4.55,4.7.68,1.68,1.18,3.77,1.72,6.22.21.97.43,1.96.67,2.94.29,1.15.61,2.28,1.02,3.35l1.44,3.82,3.59-3.13c1.12-.99,2.18-1.93,3.28-2.16,1.21-.25,4.21-.36,6-.42l.85-.03c2.81-.11,5.63-.19,8.46-.25,1.55-.03,3.1-.05,4.65-.07,4.17-.06,8.34-.08,12.48-.08h3.32c1.5.01,3,.01,4.48.01,3.25,0,6.55,0,9.86-.01,1.76,0,3.52,0,5.29-.02,4.98-.03,9.99-.1,14.96-.25,1.12.08,2.18.29,3.08.62.88.32,1.6.74,2.07,1.23.56.58,1.16,2.02,1.77,3.86h0c1.49,2.05,2.94,4.32,4.27,7.2.48,1.01.85,1.96,1.16,2.87,1.13,3.23,1.45,6.31,1.95,12.23l2.37,1.6,1.84-6.55,5.48-19.54c.22-.41.46-.78.74-1.1,2.02-2.37,5.59-2.32,10.85-1.93,1.29.1,2.62.2,3.87.21,25.02.28,51.36,1.17,80.53,2.7,2.34.13,4.65.23,6.92.33,12.39.55,24.09,1.07,36.36,4.9.21.07,1.02.39,1.61.62,2.75,1.08,3.41,1.34,4.36,1.19,1.53-.24,2.23-1.44,2.56-2.01.01-.03.03-.05.04-.08,1.13-.92,2.1-1.32,3.44-1.48.88-.1,1.93-.1,3.29-.06,6.68.19,14.01.89,21.1,1.57,2.95.29,5.86.57,8.68.81l5.29.44c13.54,1.14,27.53,2.31,40.87,3.97,7.37.91,9.37,2.38,9.28,6.83-.13,6-1.07,12.55-1.98,18.88Z"/>
  <g>
    <path class="cls-1" d="M66.87,412.47h-.07c-.07-.84-.13-1.7-.21-2.54h.07c.08.84.15,1.68.21,2.54Z"/>
    <path class="cls-1" d="M138.02,525.07c0-.3-.02-.61-.03-.91,0-.15-.02-.28-.02-.43-.02-.17-.02-.35-.03-.51-.15-1.78-.4-3.53-.74-5.27-.58-2.79-1.4-5.51-2.49-8.12-6.09-14.62-20.07-26.05-38.79-28.26.48-.12.94-.26,1.42-.4,19.08-5.78,31.36-25.57,30.31-43.66,0-.13-.02-.28-.03-.41-1.72-26.11-22.66-35.21-48.02-33.2-16.89,1.34-33.76,2.84-50.61,4.52.12,1.11.23,2.23.33,3.33.02.2.05.41.07.61.71-.08,1.42-.15,2.13-.21,8.73-.86,10.47,4.31,11.08,8.9.02.15.03.28.05.43,0,.07.02.13.03.21,0,.15.02.28.03.43.02.18.03.35.05.51.02.13.03.25.03.36.02.08.02.17.03.25,1.21,12.74,2.41,25.47,3.62,38.21,3,31.58,5.99,63.14,9,94.72.02.18.03.35.05.53v.07c.02.16.03.31.05.46.02.31.05.63.08.92v.07c.59,6.69.48,11.65-8.14,12.51-.83.08-1.67.17-2.49.25.12,1.19.23,2.39.35,3.58.02.2.05.4.07.59,17.28-1.72,34.6-3.25,51.91-4.59,6.29-.5,12.15-2.23,17.33-4.94,2.64-1.39,5.12-3.02,7.4-4.89,10.07-8.24,16.23-20.82,16.01-34.7,0-.33,0-.66-.02-.99ZM66.59,409.94c2.23-.2,4.46-.38,6.69-.56,4.72-.4,10.76-.45,16.19,2.61,6.52,3.68,12.13,11.85,13.49,29.35.02.05.02.12.02.17.02.2.03.4.05.61.87,12.59-2.15,23.37-7.23,30.26-2.03,2.74-4.39,4.85-6.95,6.22-1.85.99-3.81,1.6-5.83,1.75-3.47.28-6.92.56-10.38.86-.02-.2-.03-.4-.05-.59-1.9-22.45-3.8-44.91-5.71-67.36-.08-1.11-.18-2.21-.28-3.3ZM79.32,560.12c-.02-.2-.03-.4-.05-.61-.71-8.3-1.42-16.62-2.11-24.94-1.35-15.9-2.69-31.79-4.04-47.69,3.28-.28,6.55-.54,9.84-.81,1.8-.15,4.56-.02,7.71.96,2.01.63,4.19,1.6,6.36,3.07,7.11,4.82,14.2,14.96,15.75,35.59.02.13.02.28.03.41s.02.28.03.41c1.02,15.09-1.55,27.04-7.97,33.64-3.14,3.24-7.2,5.18-12.22,5.58-2.24.18-4.51.36-6.75.54-1.63.13-4.59.21-5.93-3.19-.31-.79-.54-1.77-.64-2.97Z"/>
    <path class="cls-1" d="M237.27,559.84c-1.17.02-2.28-.05-3.37-.23-.53-.08-1.06-.2-1.57-.35-2.76-.78-5.13-2.44-6.88-5.43-.38-.66-.74-1.37-1.07-2.16-.45-1.09-.84-2.31-1.17-3.7-.23-.97-.48-1.96-.73-2.95-1.45-5.89-2.94-11.8-4.42-17.7-11.21-44.7-23.01-89.33-35.41-133.87-2.87,2.33-10.91,8.3-21.43,11.75-.03.02-.08.03-.12.05,0,0,1.27,4.75,3.15,11.7.02.1.05.18.07.28-4.92,30.26-9.62,60.53-14.08,90.8-.41,2.84-.84,5.69-1.25,8.53-1.6,10.99-3.17,22-4.72,33.01-1.57,8.02-4.01,13.85-15.02,14.53.05.59.08,1.2.12,1.8.03.61.08,1.2.12,1.8.02.21.03.41.03.61,1.91-.13,3.83-.25,5.74-.35,9.92-.61,19.84-1.16,29.76-1.62,0-.21-.02-.41-.02-.61-.03-.46-.05-.91-.07-1.37-.03-.74-.07-1.49-.12-2.23h-.18c-9.99,0-12.03-4.09-12.13-7.81v-.02c-.02-.41,0-.83.03-1.22,1.73-13.47,3.5-26.94,5.32-40.43,10.4-.51,20.82-.96,31.23-1.34,5.84,22.42,9.87,39.65,10.02,40.01.17.92.26,1.77.3,2.53v.21c.25,5.18-2.41,6.73-9.77,7,.05,1.2.1,2.41.13,3.62.02.2.02.4.03.59,5.17-.18,10.33-.36,15.52-.51,2.95-.1,5.89-.16,8.85-.25,1.95-.05,3.9-.1,5.83-.15,1.01-.03,2.03-.05,3.04-.07,1.95-.05,3.88-.08,5.81-.13.36-.02.73-.02,1.11-.02,2.46-.05,4.94-.1,7.4-.13v-.61c-.02-1.19-.05-2.39-.07-3.6ZM159.36,506.17c-.18,0-.36.02-.54.02.03-.2.05-.4.08-.59,3.27-23.59,6.67-47.16,10.2-70.73.26.96.51,1.93.78,2.89,5.99,22.19,11.84,44.39,17.55,66.61.05.2.1.41.15.59-9.41.36-18.8.76-28.21,1.22Z"/>
    <path class="cls-1" d="M358.15,397.61c-2.29-.08-4.59-.15-6.88-.21-2.94-.1-5.89-.18-8.85-.26-7.11-.2-14.21-.36-21.33-.5-9.51,34.14-18.64,68.34-27.42,102.59-8.2-34.38-16.79-68.72-25.75-103.02-13.7.03-27.38.18-41.09.46.02,1.11.05,2.23.07,3.35,0,.2.02.4.02.59.97-.02,1.96-.03,2.95-.05,8.81-.15,10.12,7.48,10.37,14.44,0,.12.02.23.02.33v.35c0,.08,0,.17.02.25v.45c0,.2,0,.4.02.61.58,42.11,1.17,84.22,1.77,126.34,0,.2,0,.4.02.59v.74c0,5.63-.96,12.3-6.77,14.51h-.02c-.43.17-.89.31-1.39.43-.87.2-1.83.33-2.91.35-.74.02-1.49.02-2.24.03h-.02c.03.79.05,1.58.05,2.38.02.41.03.83.03,1.24,0,.2,0,.4.02.59.36-.02.73-.02,1.11-.02,2.46-.05,4.94-.1,7.4-.13,4.89-.08,9.79-.15,14.67-.18,4.11-.05,8.24-.08,12.36-.1v-.61c0-1.2-.02-2.39-.02-3.6-.84,0-1.67,0-2.51.02-5.73.03-8.57-3-9.95-6.93-.89-2.53-1.17-5.41-1.24-8.09v-.73c0-.1,0-.2-.02-.28v-.33c-.2-18.83-.38-37.65-.58-56.49-.2-18.83-.38-37.67-.58-56.5,11.82,41.63,23.04,83.34,33.69,125.12,1.25,0,2.51.02,3.78.02,11.03-42.34,22.65-84.61,34.86-126.77-.38,19.41-.76,38.82-1.12,58.24-.4,19.81-.78,39.62-1.16,59.42v.28c0,.1-.02.21-.02.31-.12,5.94-.76,13.09-10.53,12.94-.74-.02-1.5-.02-2.26-.03-.02,1.2-.03,2.41-.05,3.62v.59c10.1.15,20.19.35,30.29.63,2.95.07,5.91.16,8.86.25,1.93.07,3.88.13,5.83.2.76.02,1.55.05,2.33.07,0-.2,0-.4.02-.59.02-.78.05-1.57.08-2.36,0-.41.02-.83.03-1.25-.78-.02-1.55-.05-2.33-.07-.07,0-.12-.02-.18-.02-2.53-.08-4.32-.78-5.61-1.85-2.76-2.33-3.09-6.47-3.04-10.33,0-.41,0-.81.02-1.21,0-.2.02-.4.02-.59.1-3.2.2-6.39.28-9.57.53-17.76,1.06-35.54,1.57-53.32.1-3,.18-6.02.26-9.03v-.02c.1-3,.18-6.01.28-9.01.41-14.26.83-28.52,1.25-42.79.08-3.09.18-6.16.26-9.26.02-.21.02-.43.03-.66.13-3.38.74-8.04,4.16-10.3,1.37-.91,3.17-1.44,5.56-1.35.45.02.91.03,1.35.05.26,0,.53.02.79.02,0-.2.02-.4.02-.59.03-.76.05-1.54.08-2.31.02-.35.02-.69.03-1.04-.26-.02-.53-.02-.79-.03Z"/>
    <path class="cls-1" d="M457.52,420.88c-1.07-2.15-2.36-4.13-3.86-5.91v-.02c-2.33-2.77-5.15-5.12-8.37-7.08-7.43-4.51-16.99-6.92-27.58-7.54-11.39-.64-22.78-1.24-34.19-1.73-2.94-.13-5.89-.26-8.85-.38-2.29-.08-4.57-.18-6.87-.26-.28-.02-.54-.02-.81-.03-.03,1.12-.08,2.24-.12,3.35-.02.21-.02.41-.03.61.26,0,.53.02.79.03.45,0,.91.03,1.35.05,2.33.08,4.11.53,5.48,1.22,3.68,1.88,4.26,5.6,4.26,8.95,0,.3,0,.58-.02.86,0,.51-.03,1.02-.05,1.5-.13,3.1-.26,6.21-.4,9.31-1.62,38.21-3.25,76.43-4.87,114.64-.13,3.15-.26,6.31-.4,9.46l-.02.33c0,.1,0,.18-.02.26v.26c-.02.25-.02.5-.03.74-.02.13-.02.25-.02.38-.03.56-.05,1.12-.1,1.65-.28,4.03-.97,7.23-3.96,8.77-1.22.61-2.81.96-4.89.96-.28,0-.54,0-.83-.02-.05,0-.12-.02-.17-.02-.78-.03-1.57-.05-2.34-.08-.03,1.2-.08,2.39-.13,3.6,0,.2-.02.4-.02.59.78.03,1.55.07,2.31.1,1.95.07,3.9.15,5.83.23,2.95.12,5.91.25,8.86.38,11.67.51,23.34,1.12,35.01,1.83,7.38.43,14.38-.89,20.62-3.63,3.33-1.47,6.45-3.33,9.28-5.55,2.86-2.21,5.41-4.77,7.63-7.64,3.14-4.03,5.58-8.63,7.18-13.65,1.01-3.17,1.67-6.5,1.95-9.95.02-.12.02-.23.03-.33,0-.08.02-.18.02-.26.23-3.24.07-6.45-.43-9.62-1.02-6.6-3.55-12.94-7.43-18.54-3.1-4.47-7.03-8.47-11.75-11.75-4.7-3.27-10.17-5.83-16.31-7.43.48-.05.97-.12,1.45-.2,12.68-2.01,23.36-10.15,29.75-20.52v-.02c3.52-5.73,5.74-12.15,6.26-18.59,0-.17.02-.33.03-.5v-.12c.5-7.33-.71-13.54-3.25-18.7ZM396.13,555.05c0-.2.02-.38.03-.58,1.27-24.26,2.54-48.55,3.83-72.83,3.28.18,6.57.36,9.84.54,6.72.35,26.38,6.5,24.13,43.26,0,.1-.02.18-.02.28-.02.2-.02.4-.03.61-1.57,22.47-10.1,36.98-25.35,36.08-2.26-.13-4.51-.26-6.77-.38-2-.12-5.99-.58-5.66-7ZM410.69,476.54c-3.48-.2-6.93-.4-10.4-.58,0-.2.02-.4.02-.59,1.25-23.6,2.49-47.23,3.73-70.83,2.23.12,4.46.23,6.69.36,10.37.54,26.97,3.58,25.04,35.74,0,.08-.02.15-.02.23-.02.17-.02.35-.03.51-1.45,21.23-13.11,35.82-25.02,35.16Z"/>
    <path class="cls-1" d="M476.26,404.44c-2-.17-4.01-.33-6.01-.5-.08,1.12-.18,2.24-.26,3.35l-.05.59c.63.05,1.25.1,1.87.15,4.28.36,6.85,1.6,8.35,3.3v.02c1.24,1.39,1.77,3.05,1.95,4.75.17,1.42.08,2.86-.02,4.18-.03.26-.05.51-.07.78-1.25,14.66-2.49,29.32-3.73,43.97-.79,9.21-1.57,18.44-2.34,27.65v.02c-.66,7.82-1.34,15.65-2,23.47v.02c-.66,7.81-1.32,15.6-1.98,23.41v.02c-.43,5-.84,10.02-1.27,15.02v.08s-.02.12-.03.18c0,.17-.02.35-.05.51t0,.02c-.02.17-.03.35-.05.51-.56,5.63-2.13,11.74-10.99,11.01-.99-.08-2-.15-3-.23-.1,1.19-.18,2.39-.28,3.58-.02.21-.03.41-.05.61,2.24.18,4.49.35,6.73.54,13.65,1.12,27.3,2.36,40.94,3.71.02-.2.03-.4.07-.59.12-1.19.23-2.39.35-3.58-.74-.08-1.5-.15-2.24-.23-7.96-.78-8.53-6.45-8.17-11.85,0-.13,0-.26.03-.4.03-.58.08-1.14.13-1.7,4.23-44.52,8.45-89.02,12.68-133.54.02-.13.03-.28.05-.43,0-.13.02-.25.03-.38.02-.08.02-.15.02-.21.02-.08.03-.15.03-.21.02-.15.03-.3.05-.43.02-.15.03-.28.05-.43.68-4.61,2.57-9.82,11.34-8.96.45.05.89.08,1.34.13.02-.2.03-.4.05-.59.12-1.12.23-2.23.35-3.33-14.59-1.47-29.18-2.79-43.79-3.98Z"/>
  </g>
</svg>