<?xml version="1.0" encoding="UTF-8"?><svg xmlns="http://www.w3.org/2000/svg" viewBox="0 0 1965.4 352.11"><defs><style>.cls-1{fill:#f64352;}.cls-1,.cls-2{stroke-width:0px;}.cls-2{fill:#000;}</style></defs><g id="Ebene_3"><path class="cls-2" d="M247.37,225.42s61.9-35.29,55.53-91.4c-6.36-56.11-52.64-75.78-78.67-82.72-26.03-6.94-72.74-7.71-132.98,12.63L31.27,337.75l111.39-.11,11.57-79.25s13.08-.66,15.89,2.54c7.05,8.02,27.89,36.49,59.89,91.18l97.76-51.48-80.41-75.2ZM214.75,153.06c-4.84,41.02-52.94,30.94-52.94,30.94l10.92-61.88s46.47-6.72,42.02,30.94Z"/><path class="cls-2" d="M342.42,51.62l110.77-8.9,2.47,179.5s-.99,26.7,30.16,27.2c31.15.49,30.16-29.67,30.16-29.67l4.94-177.03,81.59,4.17-6.43,183.74s-4.94,92.96-110.27,101.37-121.15-84.56-121.15-84.56l-22.25-195.82Z"/><polygon class="cls-2" points="708.44 47.8 641.37 305.83 736.85 305.83 759.73 187.62 788.14 262.43 834.69 256.91 865.47 187.62 878.09 318.46 957 305.83 934.12 57.27 862.31 30.44 822.07 132.23 779.46 35.97 708.44 47.8"/><polygon class="cls-2" points="1010.43 40.17 1001.5 334.08 1114.54 309.68 1096.1 219.85 1135.37 225.8 1150.24 154.99 1094.31 170.46 1087.18 103.23 1179.99 137.15 1162.14 43.14 1010.43 40.17"/><path class="cls-2" d="M1436.42,168.08c-2.94-103.56-79.53-139.96-117.21-138.03-22.7,1.16-123.8,17.22-116.61,150.53,7.79,144.46,125.54,133.27,125.54,133.27,0,0,112.37-1.84,108.28-145.77ZM1319.38,189.08c-7.35,0-42.78-5.31-42.78-39.86,0-32.7,29.26-42.65,42.78-41.93,13.57.72,35.76,8.35,35.76,42.81,0,32.03-29.23,38.97-35.76,38.97Z"/><path class="cls-2" d="M1650.2,194.21s46.83-19.28,46.28-82.65c-.55-63.36-67.77-81.58-67.77-81.58,0,0-62.81-9.33-114.61,15.46l-47.39,251.25,94.77,2.2,11.57-73.83,11.02-.55,51.24,85.95,88.71-43.53-73.83-72.73ZM1619.17,129c-6.62,34.12-41.78,27.16-41.78,27.16l8.01-58.84s40.39-2.44,33.77,31.68Z"/><path class="cls-2" d="M1917.71,92.21c-22.31-49.64-79.21-81.44-182.95-52.99l11.16,249.89s78.09,36.26,136.1-22.31c58.01-58.57,58.01-124.94,35.7-174.59ZM1854.12,176.44c-11.16,49.09-44.07,37.37-44.07,37.37l12.27-93.15c10.6,1.12,42.95,6.69,31.79,55.78Z"/></g><g id="Ebene_2"><path class="cls-1" d="M223.5,203.92s64.02-36.5,57.44-94.53c-6.58-58.04-54.45-78.38-81.37-85.56-26.92-7.18-75.23-7.98-137.53,13.06L0,320.11l115.21-.11,11.97-81.97s13.53-.68,16.44,2.62c7.3,8.3,28.85,37.74,61.94,94.3l101.11-53.25-83.17-77.78ZM189.77,129.07c-5.01,42.43-54.76,32-54.76,32l11.29-64s48.06-6.95,43.46,32Z"/><path class="cls-1" d="M321.82,24.16l114.56-9.21,2.56,185.65s-1.02,27.62,31.2,28.13c32.22.51,31.2-30.69,31.2-30.69l5.11-183.1,84.39,4.31-6.65,190.04s-5.11,96.15-114.05,104.85-125.3-87.46-125.3-87.46l-23.01-202.53Z"/><polygon class="cls-1" points="700.39 20.21 631.01 287.09 729.77 287.09 753.43 164.83 782.81 242.2 830.97 236.49 862.8 164.83 875.85 300.15 957.47 287.09 933.8 30.01 859.53 2.26 817.91 107.54 773.84 7.97 700.39 20.21"/><polygon class="cls-1" points="1012.72 12.32 1003.49 316.3 1120.41 291.07 1101.34 198.15 1141.95 204.31 1157.33 131.08 1099.49 147.08 1092.11 77.54 1188.1 112.62 1169.64 15.39 1012.72 12.32"/><path class="cls-1" d="M1453.32,144.62C1450.28,37.51,1371.07-.14,1332.1,1.85c-23.48,1.2-128.04,17.81-120.61,155.69,8.05,149.42,129.84,137.84,129.84,137.84,0,0,116.22-1.9,112-150.76ZM1332.27,166.34c-7.6,0-44.25-5.5-44.25-41.23,0-33.82,30.26-44.11,44.25-43.36,14.04.75,36.98,8.63,36.98,44.28,0,33.13-30.23,40.31-36.98,40.31Z"/><path class="cls-1" d="M1674.43,171.64s48.44-19.95,47.87-85.48c-.57-65.54-70.1-84.38-70.1-84.38,0,0-64.97-9.65-118.54,15.99l-49.01,259.87,98.02,2.28,11.97-76.36,11.4-.57,53,88.9,91.75-45.02-76.36-75.22ZM1642.34,104.2c-6.84,35.29-43.21,28.09-43.21,28.09l8.28-60.86s41.77-2.52,34.93,32.77Z"/><path class="cls-1" d="M1951.12,66.15c-23.08-51.35-81.92-84.23-189.23-54.81l11.54,258.46s80.77,37.5,140.77-23.08c60-60.58,60-129.23,36.92-180.57ZM1885.35,153.26c-11.54,50.77-45.58,38.65-45.58,38.65l12.69-96.34c10.96,1.15,44.42,6.92,32.88,57.69Z"/></g></svg>