<?xml version="1.0" encoding="utf-8"?>
<!-- Generator: Adobe Illustrator 26.2.1, SVG Export Plug-In . SVG Version: 6.00 Build 0)  -->
<svg version="1.1" id="Ebene_1" xmlns="http://www.w3.org/2000/svg" xmlns:xlink="http://www.w3.org/1999/xlink" x="0px" y="0px"
	 width="1080px" height="408.4px" viewBox="0 0 1080 408.4" style="enable-background:new 0 0 1080 408.4;" xml:space="preserve">
<style type="text/css">
	.st0{fill:#313133;}
	.st1{fill:#ECEAE3;stroke:#313133;stroke-width:2;stroke-miterlimit:10;}
</style>
<g>
	<path class="st0" d="M250.7,103.7c1.6,1.4,3,3,4.5,4.5l35.6,35.6c0.8,0.8,1.4,1.6,2,2.4l-1.2,0.4c5.7,7.7,8.7,17.2,8.7,26.7
		c0,3.8-0.4,7.5-1.4,11.1l-29.8,121.3h-35.4l-24.5-24.5l-6.1,24.5h-35.4l-24.5-24.5l-5.9,24.5h-35.4L66,269.9l29.2-118.1L63,119.7
		c-0.2-15.8,12.2-24.9,27.1-24.9c17.2,0,24.3,5.1,36.2,17.4c2-2.4,4.3-4.9,6.5-7.1c5.1-5.1,15.8-10.3,23.1-10.3c12.8,0,23.5,3,32,13
		v-0.4l4.9,4.9c6.5-8.7,18.6-17.6,30.2-17.6C232.5,94.5,243.6,96.8,250.7,103.7z M285.8,138.7l5.1,5.1
		C289.2,141.9,287.6,140.1,285.8,138.7z"/>
	<path class="st0" d="M352.6,262c-12.4,12.4-23.3,26.1-35.8,38.1c-3.4,3.4-7.9,5.3-12.8,5.3c-4.1,0-8.1-1.8-10.9-4.7l-35.8-35.8
		c-2.8-2.8-4.7-6.9-4.7-10.9c0-1.2,0.2-2.4,0.4-3.6l18.8-76.6h23.9L281.9,160c-2.6-2.6-4.1-6.1-4.1-9.7c0-7.5,6.3-13.8,13.8-13.8
		c3.6,0,7.1,1.4,9.7,4.1l35.8,35.8c2.6,2.6,4.1,6.1,4.1,9.7c0,7.5-6.3,13.8-13.8,13.8c-0.6,0-1,0-1.6-0.2l9.9,9.9l-7.1,28.6
		L352.6,262z"/>
	<path class="st0" d="M405.8,219.7c-1.8,0-3.4-0.4-5.3-0.4s-3.8,0.2-5.7,0.6c10.9,10.9,22.1,21.9,33,32.8l-0.2,0.2l9.5,9.3
		c-15.2,15.2-41.1,43.3-64,43.3c-11.7,0-20.3-1.8-29-10.3l-34.2-33.8v-0.2l-0.6-0.6h0.2c-2.4-2.4-3.8-5.3-5.9-7.9v-0.2
		c-1.8-3.6-3-8.3-3-12.4c0-6.3,1.8-17.6,4.5-23.3h31.4l14.8,14.8c0-2.6-0.8-6.7-2.6-8.5L335.4,210c-5.1-5.1-10.9-10.3-10.9-18
		c0-3.6,0.8-5.3,2-8.5c4.3-4.7,6.9-7.7,13.4-8.9c1.4-0.4,3.2-0.8,4.7-0.8c6.3,0,21.9,0.6,24.5,7.3l35.8,35.8L405.8,219.7z"/>
	<path class="st0" d="M434.4,155.5l35.8,35.8l-0.6,2.4l17,17l-4.7,19h-21.3l-1.6,6.1c8.7,8.5,17.6,17,25.7,26.1l-38.1,38.1
		c-3.4,3.4-8.1,5.3-12.8,5.3c-4.1,0-8.1-1.8-10.9-4.7l-35.8-35.8c-2.8-2.8-4.7-6.9-4.7-10.9c0-1.2,0.2-2.4,0.4-3.6l11.7-47.6
		L386,194l4.7-19h10.7l4.9-19.4H434.4z"/>
	<path class="st0" d="M512.2,180.8l35.8,35.8c3.4,3.4,4.9,7.9,4.9,12.6c0,4.5-1,8.7-2.6,12.8l19.8,19.8c-6.9,7.1-14.4,14-21.7,20.7
		c-15.4,14-28.8,22.7-50.2,22.7c-7.3,0-13.8-1.8-19-7.1l-35.8-35.8c-6.3-6.3-8.3-15.4-8.3-23.9c0-28.4,23.9-64.8,54.7-64.8
		C497.4,173.5,506.5,175.1,512.2,180.8z"/>
	<path class="st0" d="M605.9,173.5l35.8,35.8l-7.5,29.2l-3.8,2.8l20.5,20.5c-11.5,11.7-26.5,26.5-39.3,36.7
		c-4.9,3.8-9.7,6.7-16.2,6.7c-5.7,0-11.1-2-15.2-6.1l-35.8-35.8c-3.6-3.6-5.7-8.7-5.7-14c0-1.8,0.4-3.8,0.8-5.7l-20.7-20.7
		c13-11.1,23.3-30.6,24.9-47.6l0.2-1.8H605.9z"/>
	<path class="st0" d="M817.7,109.7l35.8,35.8c8.3,8.3,11.5,19.2,11.5,30.8c0,16-11.3,25.7-23.9,33.4l17.2,17.2
		c7.5,7.5,10.5,15.6,10.5,26.1c0,14-6.1,27.7-16,37.7c-11.5,11.7-26.7,15.8-42.9,15.8c-17.4,0-35.2-7.5-50.4-15.4
		c-7.5,8.5-17.4,14-29,14c-9.9,0-18.4-2.6-25.5-9.7l-33.4-33.2c-3.2-3-5.9-7.1-5.9-11.7c0-2.4,0.2-4.5,1-6.7c1.2-3.4,3-6.7,6.3-8.7
		c1.8-1.2,6.7-4.3,8.5-4.3c0.8-0.4,4.9-1.6,5.9-1.4l0.4-0.2c1.2,0.2,4.3-0.8,5.7-0.8c6.7,0,13,0.6,19.4,2
		c7.5-22.1,9.9-50.6,10.1-73.9c-2-2-8.9-8.3-10.3-10.3c-2.6-3.6-3.6-5.9-6.1-9.7l-11.9-19.6c19-13,51.6-22.5,74.5-22.5
		C786.2,94.3,805.4,97.4,817.7,109.7z M705.1,295.4c0.4,0.6,0.8,1,1.4,1.4L705.1,295.4z"/>
	<path class="st0" d="M848.5,178.2c4.7-17,13.4-38.9,18.8-48.2l11.3-1.2c-4.3,11.9-9.7,32.8-11.9,47.4L848.5,178.2z"/>
	<path class="st0" d="M984.4,219.7c-1.8,0-3.4-0.4-5.3-0.4c-1.8,0-3.8,0.2-5.7,0.6c10.9,10.9,22.1,21.9,33,32.8l-0.2,0.2l9.5,9.3
		c-15.2,15.2-41.1,43.3-64,43.3c-11.7,0-20.3-1.8-29-10.3l-34.2-33.8v-0.2l-0.6-0.6h0.2c-2.4-2.4-3.8-5.3-5.9-7.9v-0.2
		c-1.8-3.6-3-8.3-3-12.4c0-6.3,1.8-17.6,4.5-23.3h31.4l14.8,14.8c0-2.6-0.8-6.7-2.6-8.5L913.9,210c-5.1-5.1-10.9-10.3-10.9-18
		c0-3.6,0.8-5.3,2-8.5c4.3-4.7,6.9-7.7,13.4-8.9c1.4-0.4,3.2-0.8,4.7-0.8c6.3,0,21.9,0.6,24.5,7.3l35.8,35.8L984.4,219.7z"/>
	<path class="st0" d="M849.8,178.2l19.1,20.7c0,0,13.4-3.6,16.5-2.4l9.2-35.5l-14.5-33.4l-8.2,24.6l-3.9,23.8L849.8,178.2z"/>
</g>
<g>
	<path class="st1" d="M252.5,109.7l1.2-0.4c-3.2-3.8-6.9-6.7-10.9-8.7c-5.7-2.8-11.9-4.1-18.6-4.1c-13.2,0-25.1,9.7-32,20.3
		c-1.4-2.6-3-5.1-5.1-7.3c-3.2-3.8-6.9-6.7-10.7-8.7c-5.7-2.8-11.9-4.1-18.6-4.1c-13.2,0-25.1,9.5-32,20c-1.4-2.6-3-5.1-4.9-7.3
		c-3.2-3.8-6.9-6.7-10.7-8.7c-5.7-2.8-11.9-4.1-18.6-4.1c-15.8,0-25.7,7.9-26.3,21.7l13,6.9c0-0.2,0-0.4,0-0.6
		c0-8.1,4.7-11.7,10.9-11.7c2.2,0,4.5,0.6,6.5,1.8c5.9,3.2,8.5,10.3,6.9,16.8L68.8,267.9H100l29.6-119.7c0.2-1,0.4-2,0.6-3
		c4.3-13,12.6-31.8,24.9-31.8c10.5,0,15,11.9,13.4,18.4c-8.5,34-33.8,136.1-33.8,136.1h31.2l29.6-119.7c0.2-0.4,0.2-0.8,0.2-1.2
		c4.1-13,12.6-33.6,25.5-33.6c10.5,0,15,11.9,13.4,18.4c-8.5,34-33.8,136.1-33.8,136.1h31.2l29.6-119.7
		C264.7,134.6,261.6,120.3,252.5,109.7z"/>
	<path class="st1" d="M291.8,162c6.5,0,11.7-5.3,11.7-11.7c0-6.5-5.3-11.7-11.7-11.7s-11.7,5.3-11.7,11.7
		C280,156.7,285.3,162,291.8,162z"/>
	<path class="st1" d="M578.9,241.8c-9.3,7.3-17.4-15.8,18.2-40.5l6.3-25.7h-57.5c-1.2,21.4-17.7,40.8-22.3,45.7
		c-18.1,13.5-31.4,23.7-44.9,23.7c-5.9,0-10.1-4.1-11.3-12.6c11.1-2.2,47.8-10.3,47.8-39.1c0-11.3-9.5-17.8-25.3-17.8
		c-19.9,0-42,19.4-49.8,44.3L410.9,243l12.6-51h21.3l3.6-15h-21.3l4.9-19.4H408l-4.9,19.4h-10.7l-3.6,15h10.7l-6.9,28.3l-0.4-0.4
		c0,0-11.1,11.7-20.3,18.2c6.1-29.4-23.1-37.1-23.1-47c0-11.1,18.4-9.5,18.4-9.5s-2-5.9-20.9-5.9c-10.1,0-19.8,5.7-19.8,16.2
		c0,14.2,26.9,23.5,26.9,38.7c0,10.3-2.8,14.6-10.7,14.6c-17,0-8.9-23.9-8.5-26.3h-27.5c-0.2,0.8-0.5,1.7-0.7,2.5L280.9,243
		l16.6-67.2h-23.9l-18.4,74.9c-2,8.5,4.5,16.8,13.2,16.8c4.3,0,8.3-1.6,11.3-4.7c5.2-5.2,15.2-16.1,23.3-24.8c0,0.2,0,0.5,0,0.7
		c0,19.6,16.2,29,31.2,29c1.2,0,2.4,0,3.4,0c17.1,0,38.4-18.5,51-30.9l-3.4,13.9c-2,8.5,4.5,16.8,13.2,16.8c4.3,0,8.3-1.6,11.3-4.7
		c5.7-5.7,18.5-18.5,27.6-27.6c-0.1,1-0.1,2.1-0.1,3.1c0,19.6,10.3,29,25.3,29c26.6,0,39.4-12.5,68-40.3l0,0c0,0,12.8-11.3,22.5-29
		h25.7c0,0-28.4,23.9-35.4,40.5c-7.3,17,3.2,28.8,16.4,28.8c7.3,0,11.9-3.8,15-6.3c10.1-8.1,37.7-35,37.7-35l-6.3-6.1
		C606.1,219.9,593.5,230.2,578.9,241.8z M492.1,187.9c6.1,0,10.5,2.6,10.5,8.9c0,17.6-35.2,24.7-35.2,24.7
		C469.4,203.3,481.3,187.9,492.1,187.9z"/>
	<path class="st1" d="M829.7,205.3c-2.4-7.7-13.8-21.7-34.2-28.4c14.8-6.9,31.6-17.8,32-35.2c1.2-58.5-83-53.1-129.6-24.3l15.8,25.9
		c3.4-2.2,30-21.3,57.1-21.3c15,0,29,5.9,27.9,20.5c-1.4,23.1-29.6,30.6-46.2,31c1.4-8.5,2.6-21.1,3-33.2h-30.4
		c1,23.1-0.8,66-10.7,92.5c-6.1-1.6-11.9-2.4-17.6-2.4c-8.1,0-15,1.6-20,4.9c-5.5,3.4-8.7,8.5-8.7,14c0,8.7,8.5,18,26.9,18
		c10.9,0,20.5-4.9,28.6-14.4c0.8,0.4,1.6,0.8,2.4,1.2c14.2,6.7,30.8,14.6,48.4,14.6c7.9,0,20.3-1.6,28.4-5.7
		c21.5-10.5,33.4-36.7,26.7-58.1L829.7,205.3z M695,253.3v0.4c-10.1,0-13.6-2-13.6-4.7c0-2.8,4.7-5.5,15.6-5.5c3.2,0,6.9,0.8,10.7,2
		C704.1,250.5,699.8,253.3,695,253.3z M800.1,222.9c-2,24.9-37.9,32-67.6,16.6c6.1-11.3,11.9-26.3,15.8-44.8
		c0.2-0.6,0.4-1.2,0.6-1.8C780.8,189.1,802.1,199.2,800.1,222.9z"/>
	<path class="st1" d="M848.7,178.2l18.2-2c2.2-14.6,7.7-35.4,11.9-47.4l-11.3,1.2C862.1,139.3,853.3,161.2,848.7,178.2z"/>
	<path class="st1" d="M970.8,219.9c0,0-11.1,11.7-20.3,18.2c6.1-29.4-23.1-37.1-23.1-47c0-11.1,18.4-9.5,18.4-9.5s-2-5.9-20.9-5.9
		c-10.1,0-19.8,5.7-19.8,16.2c0,14.2,26.9,23.5,26.9,38.7c0,10.3-2.8,14.6-10.7,14.6c-17,0-8.9-23.9-8.5-26.3h-27.5
		c-1.8,6.1-3.8,13.4-3.8,19.8c0,19.6,16.2,29,31.2,29c1.2,0,2.4,0,3.4,0c23.9,0,55.9-36,61.2-41.3L970.8,219.9z"/>
</g>
</svg>
