<?xml version="1.0" encoding="utf-8"?>
<!-- Generator: Adobe Illustrator 28.1.0, SVG Export Plug-In . SVG Version: 6.00 Build 0)  -->
<svg version="1.1" id="Ebene_1" xmlns="http://www.w3.org/2000/svg" xmlns:xlink="http://www.w3.org/1999/xlink" x="0px" y="0px"
	 viewBox="0 0 732.7 825.79" style="enable-background:new 0 0 732.7 825.79;" xml:space="preserve">
<path d="M233.61,276.44c14.55,0,27.95-4.88,38.68-13.08l0,0.02c28.83-21.74,55.3-9.84,65.67,8.13l150.47,260.62l0,0l0,0V159.93
	h-99.21v194.68L288.94,180.92l-0.04-0.03c-11.01-19.13-31.64-32.02-55.3-32.02c-35.22,0-63.78,28.56-63.78,63.78
	C169.83,247.88,198.38,276.44,233.61,276.44z M550.45,202.53c11.86-6.85,15.93-22.02,9.08-33.88c-6.85-11.86-22.02-15.93-33.88-9.08
	c-11.86,6.85-15.93,22.02-9.08,33.88C523.41,205.32,538.58,209.38,550.45,202.53z M208.8,525.6v2.83h155.91v-2.83
	c-42.27,0-76.54-34.27-76.54-76.54V329.97c13.04-0.73,23.39-11.54,23.39-24.76c0-13.7-11.1-24.8-24.8-24.8
	c-13.7,0-24.8,11.1-24.8,24.8c0,13.22,10.35,24.03,23.39,24.76v119.1C285.34,491.34,251.07,525.6,208.8,525.6z M409.05,653.99
	c-7.24,0-13.29-2.48-18.16-7.44c-4.87-4.96-7.31-11.28-7.31-18.97c0-7.59,2.37-13.92,7.11-18.97c4.74-5.05,10.9-7.58,18.5-7.58
	c7.6,0,14.83,2.64,21.72,7.91l13-18.23c-8.94-8.4-20.38-12.6-34.32-12.6c-14.84,0-27.19,4.67-37.07,14.01
	c-9.88,9.34-14.81,21.16-14.81,35.46c0,14.21,4.91,25.99,14.75,35.33c9.83,9.34,22.08,14.01,36.73,14.01
	c14.39,0,26.54-4.74,36.46-14.21l-12.47-18.24C425.58,650.81,417.54,653.99,409.05,653.99z M208.67,626.91l-58.19-48.8h-2.01v96.53
	h24.94v-44.64l58.18,47.32h2.01v-96.52h-24.94V626.91z M534.7,653.99c-6.6,0-12.2-2.08-16.83-6.2L561.08,625l0,0.04l23.14-11.88
	c-2.29-8.03-8.94-17.93-16.15-23.78c-7.21-5.85-14.02-9.02-22.85-10.48c-2.29-0.4-4.72-0.64-7.31-0.73
	c-0.18-0.01-0.36-0.01-0.54-0.01c-0.58-0.01-1.14-0.04-1.73-0.04l-0.18,0.01l-0.21,0l-0.06,0l-0.1,0c-0.42,0-0.83,0.02-1.24,0.03
	c-0.51,0.01-1.02,0.01-1.52,0.04c-0.66,0.03-1.3,0.07-1.95,0.12c-0.29,0.02-0.59,0.04-0.88,0.07c-0.67,0.06-1.33,0.13-1.99,0.21
	c-0.27,0.03-0.55,0.07-0.82,0.11c-0.64,0.09-1.27,0.17-1.89,0.28c-0.41,0.07-0.81,0.15-1.21,0.23c-0.46,0.09-0.92,0.17-1.37,0.27
	c-9.2,1.99-17.21,6.21-24.03,12.67c-9.88,9.34-14.81,21.16-14.81,35.46c0,14.21,4.91,25.99,14.75,35.33
	c9.83,9.34,22.08,14.01,36.73,14.01l0.29-0.01l0.1,0l0.12-0.01l0.12,0.01c0.19,0,0.37-0.02,0.56-0.02
	c12.02-0.22,22.45-3.81,31.3-10.75l-11.27-19.52C549.29,651.53,542.17,653.99,534.7,653.99z M509.23,627.58
	c0-7.59,2.37-13.92,7.11-18.97c4.74-5.05,10.9-7.58,18.5-7.58c6.84,0,13.39,2.16,19.65,6.44l-45.04,23.76
	C509.32,630.04,509.23,628.83,509.23,627.58z M286.75,676.91h25.47V578.1h-25.47V676.91z"/>
</svg>
