<?xml version="1.0" encoding="utf-8"?>
<!-- Generator: Adobe Illustrator 24.3.0, SVG Export Plug-In . SVG Version: 6.00 Build 0)  -->
<svg version="1.1" id="Ebene_1" xmlns="http://www.w3.org/2000/svg" xmlns:xlink="http://www.w3.org/1999/xlink" x="0px" y="0px"
	 viewBox="0 0 841.89 356.94" style="enable-background:new 0 0 841.89 356.94;" xml:space="preserve">
<style type="text/css">
	.st0{fill:#1D1D1B;}
	.st1{fill:#7A2682;}
	.st2{fill:#FFFFFF;}
</style>
<g>
	<path class="st0" d="M418.76,71.07c-6.16,0-10.97,2.25-14.7,6.88c-3.73,4.63-5.63,10.5-5.63,17.44c0,6.11,1.18,11.25,3.49,15.27
		c2.35,4.09,6.31,8.82,11.74,14.06c3.56,3.36,6.28,6.27,8.08,8.61c1.86,2.42,3.16,5.47,3.88,9.05c0.34,1.46,1.08,2.66,2.26,3.67
		c1.16,0.99,2.48,1.47,4.03,1.47c1.82,0,3.31-0.61,4.56-1.86c1.25-1.25,1.86-2.75,1.86-4.57c0-0.81-0.08-1.1-0.1-1.18
		c-1.08-5.37-2.89-9.79-5.41-13.26c-2.56-3.53-6.03-7.34-10.31-11.33c-3.98-3.68-6.87-6.88-8.58-9.5
		c-1.77-2.72-2.67-6.23-2.67-10.44c0-3.11,0.59-5.78,1.74-7.93c1.26-2.35,3.2-3.54,5.74-3.54c2.62,0,4.64,1.29,5.83,3.72
		c1.1,2.25,1.65,4.86,1.65,7.75c0,1.82,0.61,3.31,1.86,4.56c1.25,1.25,2.74,1.86,4.56,1.86c1.73,0,3.2-0.61,4.5-1.87
		c1.29-1.25,1.92-2.74,1.92-4.55c0-7.13-1.92-13.04-5.69-17.58C429.61,73.28,424.82,71.07,418.76,71.07z"/>
	<path class="st0" d="M408.42,168.92c3.02,2,6.5,3.02,10.34,3.02c3.92,0,7.51-1.13,10.68-3.37c1.52-1.02,2.25-2.4,2.25-4.23
		c0-1.45-0.45-2.66-1.38-3.72c-0.9-1.02-2.11-1.52-3.71-1.52h-7.84c-2.52,0-4.49-1.26-5.68-3.64c-1.1-2.2-1.66-4.74-1.66-7.54
		c0-1.82-0.61-3.31-1.86-4.56c-1.25-1.25-2.79-1.86-4.71-1.86c-1.71,0-3.14,0.65-4.39,1.98c-1.27,1.35-1.88,2.85-1.88,4.59
		c0,4.57,0.89,8.73,2.64,12.37C402.96,164.05,405.38,166.9,408.42,168.92z"/>
	<path class="st0" d="M548.19,71.07c-1.51,0-2.9,0.39-4.23,1.19c-1.31,0.79-2.25,1.85-2.86,3.25l-12.57,28.55l-0.9,2.03l-0.89-2.04
		l-12.43-28.55c-0.62-1.4-1.55-2.47-2.86-3.25c-1.32-0.79-2.74-1.19-4.23-1.19c-2.22,0-4.05,0.75-5.6,2.3
		c-1.55,1.55-2.3,3.38-2.3,5.6l-0.15,86.84c0,1.92,0.68,3.53,2.08,4.93c1.4,1.4,3.01,2.08,4.94,2.08c2.01,0,3.65-0.68,5-2.07
		c1.36-1.4,2.02-3.02,2.02-4.94l0.15-63.76l0.01-4.97l1.86,4.61l8.43,20.86c0.32,0.81,0.83,1.44,1.56,1.92
		c0.73,0.49,1.52,0.72,2.42,0.72c0.9,0,1.73-0.24,2.52-0.74c0.76-0.48,1.29-1.11,1.61-1.91l8.43-21.01l1.88-4.67v5.04l0,63.91
		c0,1.92,0.68,3.53,2.08,4.93c1.4,1.4,3.01,2.08,4.94,2.08c2.01,0,3.65-0.68,5-2.07c1.36-1.4,2.02-3.02,2.02-4.94l0-86.84
		c0-2.21-0.75-4.04-2.3-5.6C552.24,71.83,550.41,71.07,548.19,71.07z"/>
	<path class="st0" d="M462.48,92.8l0,63.52l0,9.26c0,2.02,0.66,3.65,2.01,5.01c1.35,1.35,2.99,2.01,5.01,2.01
		c1.93,0,3.54-0.66,4.94-2.02c1.39-1.35,2.07-2.98,2.07-5v-9.26l0-63.52l0-14.72c0-2.01-0.68-3.65-2.07-5
		c-1.4-1.36-3.02-2.02-4.94-2.02c-2.02,0-3.65,0.66-5.01,2.01c-1.35,1.35-2.01,2.99-2.01,5.01V92.8z"/>
	<path class="st0" d="M797.76,292.46c0.57,1.63,2.12,2.73,3.86,2.73c1.75,0,3.29-1.1,3.86-2.73c1.86-5.32,5.61-11.72,8.02-13.71
		c0.97-0.8,1.52-1.97,1.52-3.2c0-1.24-0.55-2.41-1.53-3.22c-2.4-1.99-6.15-8.4-8.01-13.71c-0.57-1.63-2.12-2.73-3.85-2.74h-0.01
		c-1.73,0-3.29,1.1-3.86,2.74c-1.85,5.31-5.6,11.72-8.02,13.72c-0.96,0.8-1.51,1.97-1.51,3.21c0,1.24,0.55,2.4,1.52,3.2
		C792.16,280.74,795.9,287.15,797.76,292.46z M799.05,260.86c0,0,0,0.01,0,0.01C799.05,260.86,799.05,260.86,799.05,260.86
		L799.05,260.86z M795.38,274.9c1.79-2.09,3.69-5.1,5.37-8.47l0.87-1.75l0.87,1.75c1.68,3.37,3.59,6.38,5.37,8.47l0.54,0.63
		l-0.54,0.63c-1.78,2.08-3.69,5.09-5.37,8.47l-0.87,1.75l-0.87-1.75c-1.68-3.37-3.59-6.38-5.37-8.47l-0.54-0.63L795.38,274.9z"/>
	<g>
		<path class="st0" d="M166.9,176.36h-33.04c-5,0-9.06-4.07-9.06-9.07v-48.53c0-20.66,16.81-37.48,37.48-37.48
			c20.66,0,37.48,16.81,37.48,37.48v27.47c0,5-4.07,9.07-9.07,9.07h-9.28v-26.95c0-10.55-8.58-19.13-19.13-19.13
			c-10.55,0-19.13,8.58-19.13,19.13v22.53c0,7.99,6.5,14.49,14.49,14.49h33.05c10.55,0,19.13-8.58,19.13-19.13v-27.47
			c0-26.22-21.33-47.55-47.54-47.55c-26.21,0-47.54,21.33-47.54,47.55v48.53c0,10.55,8.58,19.13,19.13,19.13h33.04V176.36z
			 M171.34,155.3h-13.71c-2.44,0-4.42-1.99-4.42-4.42v-22.53c0-5,4.07-9.07,9.07-9.07c5,0,9.06,4.07,9.06,9.07V155.3z"/>
		<path class="st0" d="M218.85,176.36h-31.28v10.07h31.28c5,0,9.07,4.07,9.07,9.07v48.53c0,20.66-16.82,37.48-37.48,37.48
			c-20.66,0-37.48-16.82-37.48-37.48v-27.47c0-5,4.07-9.07,9.07-9.07h9.28v26.95c0,10.55,8.58,19.13,19.13,19.13
			c10.55,0,19.13-8.58,19.13-19.13v-22.53c0-7.99-6.5-14.49-14.49-14.49h-33.05c-10.55,0-19.13,8.58-19.13,19.13v27.47
			c0,26.22,21.33,47.55,47.54,47.55c26.22,0,47.55-21.33,47.55-47.55v-48.53C237.98,184.94,229.4,176.36,218.85,176.36z
			 M181.37,207.49h13.71c2.44,0,4.42,1.99,4.42,4.42v22.53c0,5-4.07,9.07-9.07,9.07c-5,0-9.06-4.07-9.06-9.07V207.49z"/>
	</g>
	<g>
		<path class="st1" d="M176.67,30.77c82.85,0,150.26,67.41,150.26,150.26c0,82.85-67.41,150.26-150.26,150.26
			S26.41,263.88,26.41,181.03C26.41,98.18,93.82,30.77,176.67,30.77 M176.67,19.23c-89.36,0-161.8,72.44-161.8,161.8
			c0,89.36,72.44,161.8,161.8,161.8s161.8-72.44,161.8-161.8C338.47,91.67,266.03,19.23,176.67,19.23L176.67,19.23z"/>
		<path class="st1" d="M241.08,128.8c0.57,1.63,2.12,2.73,3.86,2.73c1.75,0,3.29-1.1,3.86-2.73c1.86-5.32,5.61-11.72,8.02-13.71
			c0.97-0.8,1.52-1.97,1.52-3.2c0-1.24-0.55-2.41-1.53-3.22c-2.4-1.99-6.15-8.4-8.01-13.71c-0.57-1.63-2.12-2.73-3.85-2.74h-0.01
			c-1.73,0-3.29,1.1-3.86,2.74c-1.85,5.31-5.6,11.72-8.02,13.72c-0.96,0.8-1.51,1.97-1.51,3.21c0,1.24,0.55,2.4,1.52,3.2
			C235.47,117.08,239.22,123.49,241.08,128.8z M242.37,97.2c0,0,0,0.01,0,0.01C242.37,97.2,242.37,97.2,242.37,97.2L242.37,97.2z
			 M238.7,111.24c1.79-2.09,3.69-5.1,5.37-8.47l0.87-1.75l0.87,1.75c1.68,3.37,3.59,6.38,5.37,8.47l0.54,0.63l-0.54,0.63
			c-1.78,2.08-3.69,5.09-5.37,8.47l-0.87,1.75l-0.87-1.75c-1.68-3.37-3.59-6.38-5.37-8.47l-0.54-0.63L238.7,111.24z"/>
		<path class="st1" d="M105.36,264.52c0.57,1.63,2.12,2.73,3.86,2.73c1.75,0,3.29-1.1,3.86-2.73c1.86-5.32,5.61-11.72,8.02-13.71
			c0.97-0.8,1.52-1.97,1.52-3.2c0-1.24-0.55-2.41-1.53-3.22c-2.4-1.99-6.15-8.4-8.01-13.71c-0.57-1.63-2.12-2.73-3.85-2.74h-0.01
			c-1.73,0-3.29,1.1-3.86,2.74c-1.85,5.31-5.6,11.72-8.02,13.72c-0.96,0.8-1.51,1.97-1.51,3.21c0,1.24,0.55,2.4,1.52,3.2
			C99.75,252.8,103.5,259.21,105.36,264.52z M106.65,232.92c0,0,0,0.01,0,0.01C106.65,232.92,106.65,232.92,106.65,232.92
			L106.65,232.92z M102.98,246.96c1.79-2.09,3.69-5.1,5.37-8.47l0.87-1.75l0.87,1.75c1.68,3.37,3.59,6.38,5.37,8.47l0.54,0.63
			l-0.54,0.63c-1.78,2.08-3.69,5.09-5.37,8.47l-0.87,1.75l-0.87-1.75c-1.68-3.37-3.59-6.38-5.37-8.47l-0.54-0.63L102.98,246.96z"/>
		<path class="st1" d="M582.9,169.21c0.57,1.63,2.12,2.73,3.86,2.73c1.75,0,3.29-1.1,3.86-2.73c1.86-5.32,5.61-11.72,8.02-13.71
			c0.97-0.8,1.52-1.97,1.52-3.2c0-1.24-0.55-2.41-1.53-3.22c-2.4-1.99-6.15-8.4-8.01-13.71c-0.57-1.63-2.12-2.73-3.85-2.74h-0.01
			c-1.73,0-3.29,1.1-3.86,2.74c-1.85,5.31-5.6,11.72-8.02,13.72c-0.96,0.8-1.51,1.97-1.51,3.21c0,1.24,0.55,2.4,1.52,3.2
			C577.29,157.48,581.04,163.89,582.9,169.21z M584.19,137.61c0,0,0,0.01,0,0.01C584.19,137.61,584.19,137.61,584.19,137.61
			L584.19,137.61z M580.52,151.64c1.79-2.09,3.69-5.1,5.37-8.47l0.87-1.75l0.87,1.75c1.68,3.37,3.59,6.38,5.37,8.47l0.54,0.63
			l-0.54,0.63c-1.78,2.08-3.69,5.09-5.37,8.47l-0.87,1.75l-0.87-1.75c-1.68-3.37-3.59-6.38-5.37-8.47l-0.54-0.63L580.52,151.64z"/>
		<path class="st1" d="M426.74,277.91h-7.84c-2.56,0-4.47-1.23-5.68-3.64c-1.1-2.2-1.65-4.74-1.65-7.54c0-1.82-0.61-3.31-1.86-4.56
			c-1.25-1.25-2.8-1.86-4.71-1.86c-1.71,0-3.14,0.65-4.39,1.98c-1.27,1.35-1.88,2.85-1.88,4.59c0,4.58,0.89,8.74,2.64,12.37
			c1.73,3.62,4.16,6.47,7.2,8.49c3.02,2,6.5,3.02,10.34,3.02c3.92,0,7.51-1.13,10.68-3.37c1.52-1.02,2.25-2.4,2.25-4.23
			c0-1.45-0.45-2.66-1.38-3.72C429.55,278.41,428.34,277.91,426.74,277.91z"/>
		<polygon class="st1" points="648.93,247.27 648.45,247.3 648.45,247.3 648.93,247.37 		"/>
		<path class="st1" d="M424.74,206.46c1.1,2.25,1.65,4.86,1.65,7.75c0,1.82,0.61,3.31,1.86,4.56c1.25,1.25,2.74,1.86,4.57,1.86
			c1.73,0,3.2-0.61,4.5-1.87c1.29-1.25,1.92-2.74,1.92-4.55c0-7.13-1.91-13.04-5.69-17.58c-3.79-4.54-8.57-6.75-14.64-6.75
			c-6.16,0-10.97,2.25-14.7,6.88c-3.73,4.63-5.63,10.5-5.63,17.44c0,6.11,1.18,11.25,3.49,15.27c2.36,4.09,6.31,8.82,11.74,14.06
			c3.57,3.37,6.29,6.27,8.08,8.61c1.86,2.42,3.16,5.47,3.88,9.05c0.34,1.46,1.08,2.67,2.26,3.66c1.16,0.99,2.48,1.47,4.03,1.47
			c1.82,0,3.31-0.61,4.57-1.86c1.25-1.25,1.86-2.75,1.86-4.56c0-0.8-0.08-1.11-0.1-1.18c-1.08-5.37-2.89-9.79-5.41-13.26
			c-2.57-3.54-6.04-7.35-10.31-11.33c-3.99-3.69-6.87-6.88-8.58-9.5c-1.77-2.71-2.67-6.23-2.67-10.44c0-3.11,0.59-5.78,1.74-7.94
			c1.26-2.35,3.19-3.54,5.74-3.54C421.53,202.74,423.54,204.03,424.74,206.46z"/>
		<path class="st1" d="M481.55,198.76c-0.45-2.54-1.59-4.61-3.47-6.3c-1.85-1.67-3.99-2.48-6.52-2.48c-2.53,0-4.67,0.81-6.52,2.48
			c-1.88,1.7-3.01,3.77-3.46,6.33l-12.86,85.63c-0.26,1.91,0.16,3.56,1.29,5.03c1.1,1.44,2.54,2.14,4.41,2.14
			c1.45,0,2.72-0.48,3.88-1.47c1.16-0.99,1.86-2.23,2.12-3.78l2.81-16.57l0.14-0.81h0.82l14.79,0h0.82l0.14,0.81l2.81,16.57
			c0.26,1.56,0.95,2.8,2.11,3.79c1.16,0.99,2.43,1.47,3.88,1.47c1.87,0,3.31-0.7,4.4-2.13c1.13-1.47,1.55-3.12,1.29-5.04
			L481.55,198.76z M476.89,257.42h-10.65h-1.11l0.15-1.1l5.33-40.24l0.96-7.29l0.96,7.29l5.33,40.24l0.15,1.1H476.89z"/>
		<path class="st1" d="M536.95,278.95h-13.61l-0.97,0v-0.97l0-81.07c0-2.02-0.66-3.66-2.01-5.01c-1.35-1.35-2.99-2.01-5.01-2.01
			c-1.93,0-3.54,0.66-4.95,2.02c-1.39,1.35-2.07,2.99-2.07,5l0,90.38c0,1.12,0.42,2.08,1.27,2.93c0.85,0.85,1.81,1.27,2.93,1.27
			h24.41c1.72,0,3.16-0.61,4.41-1.86c1.25-1.25,1.86-2.7,1.86-4.42c0-1.72-0.61-3.16-1.86-4.41
			C540.12,279.56,538.67,278.95,536.95,278.95z"/>
		<path class="st1" d="M587.77,198.68c-0.45-2.54-1.59-4.61-3.47-6.3c-1.85-1.67-3.99-2.48-6.52-2.48c-2.54,0-4.67,0.81-6.52,2.48
			c-1.88,1.7-3.01,3.77-3.46,6.33l-12.87,85.63c-0.26,1.91,0.16,3.56,1.29,5.03c1.09,1.44,2.53,2.14,4.4,2.14
			c1.45,0,2.72-0.48,3.88-1.47c1.16-0.99,1.85-2.23,2.11-3.78l2.81-16.57l0.14-0.81h0.82h14.79H586l0.14,0.81l2.81,16.57
			c0.26,1.56,0.95,2.8,2.11,3.79c1.16,0.99,2.43,1.47,3.88,1.47c1.87,0,3.31-0.7,4.4-2.13c1.13-1.47,1.55-3.12,1.29-5.04
			L587.77,198.68z M583.11,257.35h-10.65l-1.11,0l0.15-1.1l5.33-40.24l0.96-7.29l0.96,7.29l5.33,40.24l0.15,1.1H583.11z"/>
		<path class="st1" d="M614.99,247.44l0.01,36.31c0,2.21,0.75,4.02,2.29,5.51c1.55,1.51,3.34,2.24,5.46,2.24h12.13
			c3.75,0,7.3-0.95,10.53-2.83c3.23-1.88,5.83-4.47,7.71-7.71c1.88-3.24,2.83-6.78,2.83-10.53v-12.72c0-2.01-0.49-4.03-1.46-6.01
			c-0.96-1.97-2.23-3.57-3.78-4.76l-0.88-0.68l0.79-0.79c1.88-1.88,3.26-3.75,4.09-5.56c0.83-1.79,1.24-3.96,1.24-6.47l0-22.49
			c0-3.75-0.95-7.29-2.83-10.53c-1.88-3.24-4.47-5.83-7.71-7.71c-3.23-1.88-6.78-2.83-10.53-2.83l-13.46,0
			c-1.73,0-3.2,0.61-4.5,1.87c-1.29,1.25-1.92,2.74-1.92,4.55c0,1.81,0.63,3.3,1.92,4.55c1.3,1.26,2.77,1.87,4.5,1.87l14.94,0
			c1.94,0,3.61,0.69,4.98,2.06c1.37,1.36,2.06,3.04,2.06,4.98v23.67c0,1.94-0.69,3.61-2.06,4.98c-1.37,1.37-3.04,2.06-4.98,2.06
			h-6.35h-0.97v-0.97v-11.12v-7.92c0-2.01-0.68-3.65-2.07-5c-1.4-1.36-3.02-2.02-4.94-2.02c-2.02,0-3.65,0.66-5.01,2.01
			c-1.35,1.35-2.01,2.99-2.01,5.01v7.92v14.38v4.47l-0.49,0.03v0.1L614.99,247.44z M629.03,277.68v-25.15v-0.97H630h6.36
			c1.94,0,3.61,0.69,4.98,2.06c1.37,1.36,2.06,3.04,2.06,4.98l0,13.02c0,1.94-0.69,3.62-2.06,4.98c-1.37,1.37-3.04,2.06-4.98,2.06
			H630h-0.97V277.68z"/>
		<path class="st1" d="M762.25,189.9c-1.51,0-2.9,0.39-4.23,1.19c-1.3,0.78-2.26,1.87-2.86,3.25l-12.58,28.55l-0.9,2.03l-0.89-2.04
			l-12.42-28.55c-0.62-1.4-1.55-2.47-2.86-3.25c-1.34-0.8-2.72-1.19-4.23-1.19c-2.22,0-4.05,0.75-5.6,2.3
			c-1.55,1.55-2.3,3.38-2.3,5.6l-0.15,41.57c0,1.92,0.68,3.53,2.08,4.93c1.4,1.4,3.01,2.08,4.94,2.08c2.01,0,3.65-0.68,5-2.07
			c1.36-1.4,2.02-3.02,2.02-4.94l0.15-18.5l0.04-4.9l1.84,4.54l8.43,20.86c0.32,0.81,0.83,1.44,1.56,1.92
			c0.73,0.49,1.52,0.72,2.42,0.72c0.9,0,1.73-0.24,2.52-0.74c0.76-0.48,1.29-1.11,1.61-1.91l8.43-21.01l1.88-4.67v5.04l0,63.91
			c0,1.92,0.68,3.53,2.08,4.93c1.4,1.4,3.01,2.08,4.93,2.08c2.01,0,3.65-0.68,5-2.07c1.36-1.4,2.02-3.02,2.02-4.94l0-86.84
			c0-2.21-0.75-4.04-2.3-5.6C766.29,190.65,764.46,189.9,762.25,189.9z"/>
		<path class="st1" d="M724.56,254.45c-0.57-1.63-2.12-2.73-3.86-2.73h-0.01c-1.73,0-3.28,1.1-3.85,2.73
			c-1.87,5.32-5.61,11.72-8.01,13.71c-0.97,0.8-1.53,1.97-1.53,3.21c0,1.24,0.55,2.41,1.53,3.22c2.41,1.99,6.15,8.39,8.01,13.71
			c0.57,1.64,2.12,2.74,3.85,2.74c1.75,0,3.3-1.1,3.87-2.74c1.86-5.32,5.61-11.72,8.02-13.72c0.97-0.8,1.52-1.97,1.52-3.21
			c0-1.24-0.56-2.41-1.52-3.2C730.17,266.18,726.43,259.77,724.56,254.45z M726.95,272.01c-1.78,2.09-3.69,5.1-5.37,8.47l-0.87,1.75
			l-0.87-1.75c-1.69-3.38-3.59-6.39-5.37-8.47l-0.54-0.63l0.54-0.63c1.78-2.08,3.69-5.09,5.37-8.47l0.87-1.74l0.87,1.74
			c1.69,3.38,3.6,6.39,5.37,8.47l0.54,0.63L726.95,272.01z"/>
		<path class="st1" d="M683.48,189.97c-2.02,0-3.65,0.66-5.01,2.01c-1.35,1.35-2.01,2.99-2.01,5.01v63.79v14.38l0,9.26
			c0,2.02,0.66,3.65,2.01,5.01c1.35,1.35,2.99,2.01,5.01,2.01c1.93,0,3.54-0.66,4.94-2.02c1.39-1.35,2.07-2.98,2.07-5v-9.26v-14.38
			l0-63.79c0-2.01-0.68-3.65-2.07-5C687.02,190.63,685.4,189.97,683.48,189.97z"/>
		<path class="st1" d="M176.44,204.07c2.02,0,3.8-1.27,4.45-3.15c0.31-0.89,0.68-1.8,1.07-2.72h-0.13c0.64-1.38,1.33-2.74,2.05-4.06
			c2.07-3.99,4.49-7.57,6.27-9.04c1.12-0.92,1.75-2.27,1.75-3.69c0-1.43-0.64-2.78-1.76-3.72c-1.78-1.47-4.19-5.05-6.27-9.04
			c-0.71-1.32-1.41-2.67-2.04-4.05h0.13c-0.39-0.92-0.76-1.83-1.07-2.72c-0.66-1.89-2.44-3.15-4.44-3.16h-0.01
			c-2,0-3.79,1.27-4.46,3.16c-0.31,0.89-0.67,1.8-1.06,2.72h0.14c-0.65,1.41-1.35,2.78-2.08,4.12c-2.06,3.97-4.47,7.52-6.25,8.99
			c-1.11,0.93-1.75,2.27-1.74,3.7c0,1.43,0.64,2.77,1.75,3.69c1.78,1.47,4.18,5.03,6.25,9.01c0.72,1.33,1.42,2.7,2.07,4.09h-0.14
			c0.39,0.92,0.76,1.84,1.07,2.73C172.65,202.81,174.44,204.07,176.44,204.07z M173.48,164.46c0,0,0,0.01,0,0.01
			C173.48,164.47,173.48,164.46,173.48,164.46L173.48,164.46z M169.24,182.12l-0.62-0.73l0.62-0.73c2.06-2.41,4.26-5.88,6.2-9.77
			l1-2.02l1,2.02c1.94,3.89,4.14,7.36,6.2,9.77l0.62,0.73l-0.62,0.73c-2.05,2.4-4.25,5.87-6.2,9.77l-1,2.01l-1-2.01
			C173.5,188,171.3,184.53,169.24,182.12z"/>
	</g>
</g>
</svg>
