<?xml version="1.0" encoding="UTF-8"?>
<svg id="Camada_1" data-name="Camada 1" xmlns="http://www.w3.org/2000/svg" xmlns:xlink="http://www.w3.org/1999/xlink" viewBox="0 0 1079.74 607.36">
  <defs>
    <style>
      .cls-1, .cls-2 {
        fill: #fff;
      }

      .cls-3 {
        clip-path: url(#clippath-6);
      }

      .cls-3, .cls-4, .cls-5, .cls-6, .cls-7, .cls-8, .cls-9, .cls-10, .cls-11, .cls-12, .cls-13, .cls-14 {
        fill: none;
      }

      .cls-4 {
        opacity: .04;
      }

      .cls-5 {
        clip-path: url(#clippath-9);
      }

      .cls-15 {
        fill: #7f1734;
      }

      .cls-16 {
        letter-spacing: -.02em;
      }

      .cls-6 {
        clip-path: url(#clippath-7);
      }

      .cls-17, .cls-2 {
        font-family: NotoSans-Light, 'Noto Sans';
        font-size: 17px;
        font-variation-settings: 'wght' 300, 'wdth' 100;
        font-weight: 300;
      }

      .cls-7 {
        clip-path: url(#clippath-10);
      }

      .cls-8 {
        clip-path: url(#clippath-5);
      }

      .cls-9 {
        opacity: .37;
      }

      .cls-18 {
        letter-spacing: -.05em;
      }

      .cls-10 {
        isolation: isolate;
        opacity: .95;
      }

      .cls-19 {
        fill: url(#Gradiente_sem_nome_8);
      }

      .cls-20 {
        fill: url(#Gradiente_sem_nome_7);
      }

      .cls-11 {
        clip-path: url(#clippath-11);
      }

      .cls-13 {
        mask: url(#mask);
      }

      .cls-21 {
        fill: #00674f;
      }

      .cls-22 {
        fill: #f6e6c9;
      }

      .cls-14 {
        clip-path: url(#clippath-8);
      }

      .cls-23 {
        fill: #004369;
      }
    </style>
    <clipPath id="clippath">
      <rect class="cls-12" x="-3674.72" y="-1388.92" width="1920" height="1080"/>
    </clipPath>
    <clipPath id="clippath-1">
      <rect class="cls-12" x="-3674.72" y="-1388.92" width="1920" height="1080"/>
    </clipPath>
    <clipPath id="clippath-2">
      <rect class="cls-12" x="-3674.72" y="-1388.92" width="1920" height="1080"/>
    </clipPath>
    <clipPath id="clippath-3">
      <rect class="cls-12" x="-1461.33" y="126.49" width="1820" height="980"/>
    </clipPath>
    <clipPath id="clippath-5">
      <rect class="cls-12" x="-1734.72" y="-1388.92" width="1920" height="1080"/>
    </clipPath>
    <clipPath id="clippath-6">
      <rect class="cls-12" x="-1684.15" y="126.49" width="1820" height="980"/>
    </clipPath>
    <clipPath id="clippath-7">
      <rect class="cls-12" x="-1949.23" y="-612.48" width="2144.49" height="2362.02"/>
    </clipPath>
    <clipPath id="clippath-8">
      <rect class="cls-12" x="-1382.12" y="-612.48" width="1421.46" height="1421.46"/>
    </clipPath>
    <clipPath id="clippath-9">
      <path class="cls-12" d="m-985.08,735.83c-352.13-173.24-497.14-599.14-323.89-951.27,173.24-352.13,599.14-497.14,951.27-323.89C-5.58-366.09,139.43,59.81-33.81,411.94c-173.24,352.13-599.14,497.14-951.27,323.89"/>
    </clipPath>
    <radialGradient id="Gradiente_sem_nome_8" data-name="Gradiente sem nome 8" cx="-1734.72" cy="-308.92" fx="-1734.72" fy="-308.92" r="1" gradientTransform="translate(1231969.4 219610.53) scale(710.57)" gradientUnits="userSpaceOnUse">
      <stop offset="0" stop-color="#fff"/>
      <stop offset="1" stop-color="#000"/>
    </radialGradient>
    <mask id="mask" x="-2124.58" y="-1354.93" width="2906.36" height="2906.36" maskUnits="userSpaceOnUse">
      <rect class="cls-19" x="-1756.88" y="-987.24" width="2170.97" height="2170.97" transform="translate(-463.16 -547.55) rotate(-63.8)"/>
    </mask>
    <radialGradient id="Gradiente_sem_nome_7" data-name="Gradiente sem nome 7" cx="-1734.72" cy="-308.92" fx="-1734.72" fy="-308.92" r="1" gradientTransform="translate(1231969.42 219610.57) scale(710.57)" gradientUnits="userSpaceOnUse">
      <stop offset="0" stop-color="#7dabab"/>
      <stop offset="1" stop-color="#7dabab"/>
    </radialGradient>
    <clipPath id="clippath-10">
      <rect class="cls-12" x="-1684.15" y="123.81" width="1820" height="982.68"/>
    </clipPath>
    <clipPath id="clippath-11">
      <rect class="cls-12" x="-1855.82" y="-562.17" width="2162.2" height="2363.25"/>
    </clipPath>
  </defs>
  <g class="cls-8">
    <g class="cls-3">
      <g class="cls-9">
        <g class="cls-6">
          <g class="cls-10">
            <g class="cls-14">
              <g class="cls-5">
                <g class="cls-13">
                  <rect class="cls-20" x="-1756.88" y="-987.24" width="2170.97" height="2170.97" transform="translate(-463.16 -547.55) rotate(-63.8)"/>
                </g>
              </g>
            </g>
          </g>
        </g>
      </g>
    </g>
    <g class="cls-7">
      <g class="cls-4">
        <g class="cls-11">
          <path class="cls-1" d="m-675.49,619.12l822.85,228.83c167.4,37.8,205.89,182.94,99.23,358.44-99.23,182.93-243.69,221.41-365.86,99.23l-609.55-609.55,220.73,838.38c45.9,159.98-60.75,266.63-266.63,266.63s-312.54-106.65-266.64-266.63l220.73-830.95-609.55,602.12c-122.18,122.18-266.63,83.7-365.86-99.23-106.66-175.51-68.85-319.96,99.23-358.44l830.28-228.83-830.28-228.83c-167.4-37.8-205.89-182.93-99.23-365.86,99.23-175.51,243.67-213.31,365.86-91.13l609.55,602.12-220.73-830.95c-45.91-159.98,60.75-266.63,266.64-266.63s312.53,106.65,266.63,266.63l-220.73,838.38L-119.28-66.7C2.9-188.88,147.36-150.41,246.59,25.1c106.65,182.93,68.85,327.38-99.23,365.86l-822.85,228.83v-.68Z"/>
        </g>
      </g>
    </g>
  </g>
  <rect class="cls-1" width="1079.74" height="607.36"/>
  <path class="cls-22" d="m268.2,51.23v514.31s-166.32,0-166.32,0c-8.88,0-16.09-7.2-16.09-16.09V67.32c0-8.88,7.2-16.08,16.09-16.08h166.32Z"/>
  <rect class="cls-21" x="268.19" y="51.23" width="182.4" height="514.31"/>
  <path class="cls-15" d="m993.96,67.32v482.14c0,8.88-7.2,16.08-16.09,16.08h-166.32s0-514.31,0-514.31h166.32c8.88,0,16.09,7.2,16.09,16.09Z"/>
  <rect class="cls-23" x="450.6" y="51.23" width="182.41" height="514.31"/>
  <rect x="629.15" y="51.23" width="182.41" height="514.31"/>
  <text class="cls-17" transform="translate(111.42 399.97)"><tspan x="0" y="0">HEX</tspan><tspan x="0" y="20.4">F6E6C9</tspan><tspan x="0" y="61.2">CMYK</tspan><tspan x="0" y="81.6">0/ 7/ 24/ 4</tspan><tspan class="cls-18" x="0" y="122.4">P</tspan><tspan x="9.16" y="122.4">AN</tspan><tspan class="cls-16" x="31.89" y="122.4">T</tspan><tspan x="40.56" y="122.4">ONE</tspan><tspan x="0" y="142.8">10-9 C</tspan></text>
  <text class="cls-17" transform="translate(111.42 94.61)"><tspan x="0" y="0">001</tspan></text>
  <text class="cls-2" transform="translate(293.83 94.61)"><tspan x="0" y="0">002</tspan></text>
  <text class="cls-2" transform="translate(475.78 94.61)"><tspan x="0" y="0">003</tspan></text>
  <text class="cls-2" transform="translate(657.73 94.61)"><tspan x="0" y="0">004</tspan></text>
  <text class="cls-2" transform="translate(839.68 94.61)"><tspan x="0" y="0">005</tspan></text>
  <text class="cls-2" transform="translate(293.83 399.97)"><tspan x="0" y="0">HEX</tspan><tspan x="0" y="20.4">00674F</tspan><tspan x="0" y="61.2">CMYK</tspan><tspan x="0" y="81.6">85/ 0/ 58/ 51</tspan><tspan class="cls-18" x="0" y="122.4">P</tspan><tspan x="9.16" y="122.4">AN</tspan><tspan class="cls-16" x="31.89" y="122.4">T</tspan><tspan x="40.56" y="122.4">ONE</tspan><tspan x="0" y="142.8">135-15 C</tspan></text>
  <text class="cls-2" transform="translate(475.78 399.97)"><tspan x="0" y="0">HEX</tspan><tspan x="0" y="20.4">004369</tspan><tspan x="0" y="61.2">CMYK</tspan><tspan x="0" y="81.6">100/ 35/ 0/ 60</tspan><tspan class="cls-18" x="0" y="122.4">P</tspan><tspan x="9.16" y="122.4">AN</tspan><tspan class="cls-16" x="31.89" y="122.4">T</tspan><tspan x="40.56" y="122.4">ONE</tspan><tspan x="0" y="142.8">111-16 C</tspan></text>
  <text class="cls-2" transform="translate(654.78 399.97)"><tspan x="0" y="0">HEX</tspan><tspan x="0" y="20.4">000000</tspan><tspan x="0" y="61.2">CMYK</tspan><tspan x="0" y="81.6">40/ 40/ 40/ 100</tspan><tspan class="cls-18" x="0" y="122.4">P</tspan><tspan x="9.16" y="122.4">AN</tspan><tspan class="cls-16" x="31.89" y="122.4">T</tspan><tspan x="40.56" y="122.4">ONE</tspan><tspan x="0" y="142.8">BL</tspan><tspan class="cls-16" x="19.48" y="142.8">A</tspan><tspan x="29.48" y="142.8">CK 6 C</tspan></text>
  <text class="cls-2" transform="translate(837.19 399.97)"><tspan x="0" y="0">HEX</tspan><tspan x="0" y="20.4">7F1734</tspan><tspan x="0" y="61.2">CMYK</tspan><tspan x="0" y="81.6">0/ 97/ 80/ 54</tspan><tspan class="cls-18" x="0" y="122.4">P</tspan><tspan x="9.16" y="122.4">AN</tspan><tspan class="cls-16" x="31.89" y="122.4">T</tspan><tspan x="40.56" y="122.4">ONE</tspan><tspan x="0" y="142.8">54-16 C</tspan></text>
</svg>