<svg width="166" height="125" viewBox="0 0 166 125" fill="none" xmlns="http://www.w3.org/2000/svg">
<path d="M0.5 44.9231V10.0192C0.5 2.08654 3.36321 0.5 13.1923 0.5H152.808C162.637 0.5 165.5 2.08654 165.5 10.0192V44.9231L163.347 45.9998C154.211 51.0846 144.34 63.3689 165.5 79.8269V114.731C165.5 122.663 162.637 124.25 152.808 124.25H13.1923C3.36321 124.25 0.5 122.663 0.5 114.731V79.8269C21.6604 63.3688 11.789 51.0846 2.65332 45.9997L0.5 44.9231Z" fill="#F39200"/>
<path d="M0.5 44.9231V10.0192C0.5 2.08654 3.36321 0.5 13.1923 0.5H152.808C162.637 0.5 165.5 2.08654 165.5 10.0192V44.9231M0.5 44.9231L3.67308 46.5096M0.5 44.9231C10.0192 49.1538 23.3462 62.0577 0.5 79.8269V114.731C0.5 122.663 3.36321 124.25 13.1923 124.25H152.808C162.637 124.25 165.5 122.663 165.5 114.731V79.8269C142.654 62.0577 155.981 49.1538 165.5 44.9231M165.5 44.9231L162.327 46.5096" stroke="#F39200"/>
<path d="M82.7879 106.272C82.7879 106.272 82.7879 106.639 83.1545 106.639C83.3988 106.639 83.521 106.517 83.521 106.272C89.0539 72.5404 93.4872 68.1175 127.255 62.5846C127.621 62.5846 127.621 61.6605 127.255 61.6605C93.493 56.1334 89.0655 51.7106 83.5268 18.1586C83.5268 17.9726 83.5268 17.7925 83.1603 17.7925C82.7937 17.7925 82.7937 17.7925 82.7937 18.1586C77.255 51.8908 72.8217 56.3194 39.0543 61.6605C39.0543 61.6605 38.6877 61.6605 38.6877 62.0325C38.6877 62.2766 38.8099 62.3986 39.0543 62.3986C72.8217 67.9257 77.2492 72.3544 82.7879 105.901" fill="#1A4620"/>
</svg>
