<svg width="53" height="40" viewBox="0 0 53 40" fill="none" xmlns="http://www.w3.org/2000/svg">
<path d="M26.4999 0.5H4.5C1.40234 0.5 0.5 1 0.5 3.5V14.5L1.5 15" stroke="#F39200"/>
<path d="M26.5001 0.5H48.5C51.5977 0.5 52.5 1 52.5 3.5V14.5L51.5 15" stroke="#F39200"/>
<path d="M0.5 14.5C3.5 15.8333 7.7 19.9 0.5 25.5V36.5C0.5 39 1.40234 39.5 4.5 39.5H26.4999" stroke="#F39200"/>
<path d="M52.5 14.5C49.5 15.8333 45.3 19.9 52.5 25.5V36.5C52.5 39 51.5977 39.5 48.5 39.5H26.5" stroke="#F39200"/>
<mask id="path-5-inside-1_674_239" fill="white">
<path d="M26.3982 33.3846C26.3982 33.3846 26.3982 33.5 26.5138 33.5C26.5908 33.5 26.6293 33.4615 26.6293 33.3846C28.373 22.7539 29.7701 21.36 40.412 19.6163C40.5275 19.6163 40.5275 19.3251 40.412 19.3251C29.772 17.5832 28.3766 16.1893 26.6311 5.61539C26.6311 5.55678 26.6311 5.5 26.5156 5.5C26.4001 5.5 26.4001 5.5 26.4001 5.61539C24.6545 16.2461 23.2574 17.6418 12.6155 19.3251C12.6155 19.3251 12.5 19.3251 12.5 19.4423C12.5 19.5192 12.5385 19.5577 12.6155 19.5577C23.2574 21.2996 24.6527 22.6953 26.3982 33.2674"/>
</mask>
<path d="M26.3982 33.3846C26.3982 33.3846 26.3982 33.5 26.5138 33.5C26.5908 33.5 26.6293 33.4615 26.6293 33.3846C28.373 22.7539 29.7701 21.36 40.412 19.6163C40.5275 19.6163 40.5275 19.3251 40.412 19.3251C29.772 17.5832 28.3766 16.1893 26.6311 5.61539C26.6311 5.55678 26.6311 5.5 26.5156 5.5C26.4001 5.5 26.4001 5.5 26.4001 5.61539C24.6545 16.2461 23.2574 17.6418 12.6155 19.3251C12.6155 19.3251 12.5 19.3251 12.5 19.4423C12.5 19.5192 12.5385 19.5577 12.6155 19.5577C23.2574 21.2996 24.6527 22.6953 26.3982 33.2674" fill="#F39200"/>
<path d="M26.6293 33.3846L25.6425 33.2227L25.6293 33.3031V33.3846H26.6293ZM40.412 19.6163V18.6163H40.3306L40.2503 18.6295L40.412 19.6163ZM40.412 19.3251L40.2504 20.3119L40.3307 20.3251H40.412V19.3251ZM26.6311 5.61539H25.6311V5.69738L25.6445 5.77827L26.6311 5.61539ZM26.4001 5.61539L27.3869 5.77742L27.4001 5.69694V5.61539H26.4001ZM12.6155 19.3251L12.6155 20.3251L12.6941 20.3251L12.7717 20.3128L12.6155 19.3251ZM12.6155 19.5577L12.777 18.5708L12.6968 18.5577H12.6155V19.5577ZM26.3982 33.3846C25.3982 33.3846 25.3982 33.3851 25.3982 33.3856C25.3982 33.3858 25.3982 33.3862 25.3982 33.3866C25.3982 33.3872 25.3982 33.3879 25.3982 33.3886C25.3983 33.3899 25.3983 33.3913 25.3983 33.3926C25.3983 33.3954 25.3983 33.3982 25.3984 33.4011C25.3985 33.4068 25.3986 33.4129 25.3988 33.4193C25.3992 33.4319 25.3999 33.4458 25.401 33.4609C25.4031 33.4907 25.4069 33.5266 25.4137 33.5672C25.4264 33.6436 25.4538 33.7607 25.5184 33.8899C25.5851 34.023 25.7007 34.1864 25.8927 34.3143C26.0909 34.4463 26.3101 34.5 26.5138 34.5V33.5V32.5C26.6596 32.5 26.8356 32.5393 27.0013 32.6496C27.1608 32.7559 27.2547 32.8904 27.3069 32.9947C27.3571 33.0951 27.3773 33.1833 27.3864 33.2381C27.3914 33.2678 27.3942 33.2948 27.3959 33.3182C27.3968 33.3301 27.3973 33.3416 27.3977 33.3526C27.3979 33.3581 27.398 33.3635 27.3981 33.3688C27.3982 33.3715 27.3982 33.3741 27.3982 33.3768C27.3982 33.3781 27.3982 33.3794 27.3982 33.3807C27.3982 33.3813 27.3982 33.382 27.3982 33.3827C27.3982 33.383 27.3982 33.3835 27.3982 33.3836C27.3982 33.3841 27.3982 33.3846 26.3982 33.3846ZM26.5138 33.5V34.5C26.7061 34.5 27.0341 34.4513 27.3071 34.1786C27.5803 33.9058 27.6293 33.5775 27.6293 33.3846H26.6293H25.6293C25.6293 33.2687 25.659 32.9981 25.8937 32.7637C26.1281 32.5294 26.3984 32.5 26.5138 32.5V33.5ZM26.6293 33.3846L27.6161 33.5465C28.4982 28.1686 29.2585 25.5055 30.8905 23.8753C32.5229 22.2448 35.19 21.4853 40.5737 20.6031L40.412 19.6163L40.2503 18.6295C34.9921 19.491 31.6397 20.3003 29.4771 22.4603C27.3142 24.6207 26.504 27.9699 25.6425 33.2227L26.6293 33.3846ZM40.412 19.6163V20.6163C40.9434 20.6163 41.2451 20.2573 41.361 20.0383C41.4723 19.8277 41.4986 19.619 41.4986 19.4707C41.4986 19.3224 41.4723 19.1137 41.361 18.9031C41.2451 18.6841 40.9434 18.3251 40.412 18.3251V19.3251V20.3251C39.9384 20.3251 39.6799 20.0025 39.593 19.8381C39.5105 19.6821 39.4986 19.5462 39.4986 19.4707C39.4986 19.3952 39.5105 19.2593 39.593 19.1033C39.6799 18.9389 39.9384 18.6163 40.412 18.6163V19.6163ZM40.412 19.3251L40.5735 18.3382C35.191 17.457 32.5237 16.6979 30.8915 15.0735C29.2606 13.4504 28.5008 10.8016 27.6177 5.45252L26.6311 5.61539L25.6445 5.77827C26.507 11.0032 27.3175 14.3382 29.4807 16.4911C31.6425 18.6425 34.9929 19.4512 40.2504 20.3119L40.412 19.3251ZM26.6311 5.61539H27.6311C27.6311 5.61503 27.6327 5.53192 27.6206 5.44075C27.6073 5.34123 27.5706 5.1627 27.4471 4.97858C27.1554 4.54387 26.6994 4.5 26.5156 4.5V5.5V6.5C26.4472 6.5 26.049 6.48452 25.7862 6.09285C25.6772 5.93026 25.6477 5.77691 25.638 5.70452C25.6295 5.64048 25.6311 5.58645 25.6311 5.61539H26.6311ZM26.5156 5.5V4.5C26.5111 4.5 26.4231 4.49852 26.3385 4.50791C26.2614 4.51646 25.9628 4.55214 25.7078 4.80694C25.4525 5.06195 25.4166 5.3607 25.408 5.43813C25.3986 5.52283 25.4001 5.611 25.4001 5.61539H26.4001H27.4001C27.4001 5.56209 27.4016 5.60699 27.3957 5.65923C27.3907 5.7042 27.3621 5.98132 27.1212 6.22191C26.8806 6.46228 26.6037 6.49075 26.5591 6.4957C26.507 6.50148 26.4623 6.5 26.5156 6.5V5.5ZM26.4001 5.61539L25.4133 5.45337C24.5301 10.8321 23.7694 13.494 22.1386 15.1167C20.5081 16.739 17.8433 17.4858 12.4593 18.3374L12.6155 19.3251L12.7717 20.3128C18.0296 19.4811 21.3844 18.6884 23.5492 16.5344C25.7139 14.3807 26.5245 11.0294 27.3869 5.77742L26.4001 5.61539ZM12.6155 19.3251C12.6155 18.3251 12.615 18.3251 12.6145 18.3251C12.6144 18.3251 12.6139 18.3251 12.6135 18.3251C12.6128 18.3251 12.6122 18.3251 12.6115 18.3251C12.6101 18.3251 12.6088 18.3251 12.6074 18.3251C12.6046 18.3251 12.6017 18.3252 12.5988 18.3252C12.593 18.3253 12.5868 18.3255 12.5804 18.3257C12.5676 18.3261 12.5535 18.3268 12.5383 18.3279C12.5081 18.3301 12.4717 18.334 12.4307 18.3409C12.3534 18.354 12.2352 18.382 12.1053 18.448C11.9711 18.5161 11.8086 18.6331 11.6823 18.8255C11.5523 19.0233 11.5 19.241 11.5 19.4423H12.5H13.5C13.5 19.585 13.4622 19.7587 13.3538 19.9236C13.2491 20.083 13.1156 20.1781 13.0102 20.2315C12.9091 20.2828 12.8199 20.3035 12.7642 20.3129C12.734 20.318 12.7067 20.321 12.6828 20.3227C12.6708 20.3236 12.6591 20.3242 12.648 20.3245C12.6424 20.3247 12.637 20.3249 12.6315 20.325C12.6288 20.325 12.6262 20.325 12.6235 20.325C12.6221 20.3251 12.6208 20.3251 12.6195 20.3251C12.6188 20.3251 12.6182 20.3251 12.6175 20.3251C12.6172 20.3251 12.6167 20.3251 12.6165 20.3251C12.616 20.3251 12.6155 20.3251 12.6155 19.3251ZM12.5 19.4423H11.5C11.5 19.6352 11.549 19.9635 11.8221 20.2363C12.0951 20.509 12.4231 20.5577 12.6155 20.5577V19.5577V18.5577C12.7309 18.5577 13.0011 18.5872 13.2356 18.8214C13.4703 19.0558 13.5 19.3264 13.5 19.4423H12.5ZM12.6155 19.5577L12.454 20.5446C17.8373 21.4257 20.5051 22.1853 22.1376 23.81C23.7687 25.4333 24.5286 28.0822 25.4116 33.4303L26.3982 33.2674L27.3849 33.1045C26.5224 27.8805 25.7118 24.5454 23.5484 22.3924C21.3864 20.2407 18.0356 19.4315 12.777 18.5708L12.6155 19.5577Z" fill="#F39200" mask="url(#path-5-inside-1_674_239)"/>
</svg>
