<svg width="165" height="124" viewBox="0 0 165 124" fill="none" xmlns="http://www.w3.org/2000/svg">
<path d="M0 44.4231V9.51923C0 1.58654 2.86321 0 12.6923 0H152.308C162.137 0 165 1.58654 165 9.51923V44.4231L162.847 45.4998C153.711 50.5846 143.84 62.8689 165 79.3269V114.231C165 122.163 162.137 123.75 152.308 123.75H12.6923C2.86321 123.75 0 122.163 0 114.231V79.3269C21.1604 62.8688 11.289 50.5846 2.15332 45.4997L0 44.4231Z" fill="#1A4620"/>
<path d="M82.2882 105.772C82.2882 105.772 82.2882 106.139 82.6547 106.139C82.8991 106.139 83.0212 106.017 83.0212 105.772C88.5541 72.0404 92.9874 67.6175 126.755 62.0846C127.121 62.0846 127.121 61.1605 126.755 61.1605C92.9932 55.6334 88.5657 51.2106 83.027 17.6586C83.027 17.4726 83.027 17.2925 82.6605 17.2925C82.294 17.2925 82.294 17.2925 82.294 17.6586C76.7553 51.3908 72.322 55.8194 38.5545 61.1605C38.5545 61.1605 38.188 61.1605 38.188 61.5325C38.188 61.7766 38.3102 61.8986 38.5545 61.8986C72.322 67.4257 76.7495 71.8544 82.2882 105.401" fill="#F39200"/>
</svg>
