<?xml version="1.0" encoding="UTF-8"?>
<svg id="Camada_1" data-name="Camada 1" xmlns="http://www.w3.org/2000/svg" viewBox="0 0 356.82 622.88">
  <defs>
    <style>
      .cls-1 {
        fill: #01543e;
      }
    </style>
  </defs>
  <path class="cls-1" d="m356.82,379.42l-22.39-34.44-118.44,77c-12.48-12.41-28.27-20.99-45.9-24.71-24.11-5.08-48.77-.47-69.4,12.99-5.2,3.39-10.03,7.19-14.52,11.3-5.06-4.97-9.63-10.61-13.53-16.9-9.64-15.54-12.65-33.91-8.47-51.72,4.18-17.81,15.04-32.92,30.58-42.56,11.51-7.14,25.1-9.36,38.27-6.27,13.18,3.09,24.36,11.13,31.49,22.63l34.91-21.64c-12.91-20.83-33.16-35.38-57.02-40.98-23.86-5.6-48.47-1.57-69.3,11.35-24.87,15.42-42.24,39.6-48.93,68.09-6.68,28.49-1.87,57.87,13.55,82.74,6.72,10.84,14.78,20.34,23.82,28.47-3.78,7.89-6.65,16.29-8.5,25.07-6.07,28.8-.56,58.24,15.52,82.89,34.76,53.31,101.61,73.35,158.75,51.33,8.51-3.28,16.81-7.49,24.75-12.67,65.07-42.42,89.21-124.33,61.53-193.88l43.22-28.1Zm-195.19,58.05c5.48,1.15,10.62,3.2,15.32,5.95-17.32,5.43-35.61,5.42-52.53.51,11.19-6.85,24.33-9.17,37.21-6.45m68,129.53c-42.28,27.56-99.09,15.59-126.65-26.68-10.08-15.47-13.54-33.93-9.73-51.99.8-3.78,1.96-7.41,3.33-10.93,31.29,13.75,67.49,15.23,100.54,2.49,7.56-2.91,14.96-6.57,22.09-11l59-38.36c15.92,49.96-2.57,106.48-48.57,136.47"/>
  <path class="cls-1" d="m0,243.47l22.39,34.44,118.44-77c12.48,12.41,28.27,20.99,45.9,24.71,24.11,5.08,48.77.47,69.4-12.99,5.2-3.39,10.03-7.19,14.52-11.3,5.06,4.97,9.63,10.61,13.53,16.9,9.64,15.54,12.65,33.91,8.47,51.72-4.18,17.81-15.04,32.92-30.58,42.56-11.51,7.14-25.1,9.36-38.27,6.27-13.18-3.09-24.36-11.13-31.49-22.63l-34.91,21.64c12.91,20.83,33.16,35.38,57.02,40.98,23.86,5.6,48.47,1.57,69.3-11.35,24.87-15.42,42.24-39.6,48.93-68.09,6.68-28.49,1.87-57.87-13.55-82.74-6.72-10.84-14.78-20.34-23.82-28.47,3.78-7.89,6.65-16.29,8.5-25.07,6.07-28.8.56-58.24-15.52-82.89C253.49,6.84,186.64-13.21,129.5,8.81c-8.51,3.28-16.81,7.49-24.75,12.67C39.69,63.91,15.54,145.82,43.22,215.37L0,243.47Zm195.19-58.05c-5.48-1.15-10.62-3.2-15.32-5.95,17.32-5.43,35.61-5.42,52.53-.51-11.19,6.85-24.33,9.17-37.21,6.45M127.19,55.89c42.28-27.56,99.09-15.59,126.65,26.68,10.08,15.46,13.54,33.93,9.73,51.99-.8,3.78-1.96,7.41-3.33,10.93-31.29-13.75-67.49-15.23-100.54-2.49-7.56,2.91-14.96,6.57-22.09,10.99l-59,38.36c-15.92-49.96,2.57-106.47,48.58-136.47"/>
</svg>