<?xml version="1.0" encoding="UTF-8"?>
<svg id="Camada_1" data-name="Camada 1" xmlns="http://www.w3.org/2000/svg" xmlns:xlink="http://www.w3.org/1999/xlink" viewBox="0 0 342.27 84.4">
  <defs>
    <style>
      .cls-1 {
        fill: #fff;
      }

      .cls-2 {
        clip-path: url(#clippath-6);
      }

      .cls-2, .cls-3, .cls-4, .cls-5, .cls-6, .cls-7, .cls-8, .cls-9, .cls-10, .cls-11, .cls-12, .cls-13 {
        fill: none;
      }

      .cls-3 {
        opacity: .04;
      }

      .cls-4 {
        clip-path: url(#clippath-9);
      }

      .cls-5 {
        clip-path: url(#clippath-7);
      }

      .cls-6 {
        clip-path: url(#clippath-10);
      }

      .cls-7 {
        clip-path: url(#clippath-5);
      }

      .cls-8 {
        opacity: .37;
      }

      .cls-9 {
        isolation: isolate;
        opacity: .95;
      }

      .cls-14 {
        fill: url(#Gradiente_sem_nome_8);
      }

      .cls-15 {
        fill: url(#Gradiente_sem_nome_7);
      }

      .cls-10 {
        clip-path: url(#clippath-11);
      }

      .cls-12 {
        mask: url(#mask);
      }

      .cls-16 {
        fill: #f6e6c9;
      }

      .cls-13 {
        clip-path: url(#clippath-8);
      }
    </style>
    <clipPath id="clippath">
      <rect class="cls-11" x="-2104.4" y="-1336.22" width="1920" height="1080"/>
    </clipPath>
    <clipPath id="clippath-1">
      <rect class="cls-11" x="-2104.4" y="-1336.22" width="1920" height="1080"/>
    </clipPath>
    <clipPath id="clippath-2">
      <rect class="cls-11" x="-2104.4" y="-1336.22" width="1920" height="1080"/>
    </clipPath>
    <clipPath id="clippath-3">
      <rect class="cls-11" x="109" y="179.2" width="1820" height="980"/>
    </clipPath>
    <clipPath id="clippath-5">
      <rect class="cls-11" x="-164.4" y="-1336.22" width="1920" height="1080"/>
    </clipPath>
    <clipPath id="clippath-6">
      <rect class="cls-11" x="-113.83" y="179.2" width="1820" height="980"/>
    </clipPath>
    <clipPath id="clippath-7">
      <rect class="cls-11" x="-378.91" y="-559.77" width="2144.49" height="2362.02"/>
    </clipPath>
    <clipPath id="clippath-8">
      <rect class="cls-11" x="188.2" y="-559.77" width="1421.46" height="1421.46"/>
    </clipPath>
    <clipPath id="clippath-9">
      <path class="cls-11" d="m585.24,788.54C233.12,615.29,88.11,189.4,261.35-162.73c173.24-352.13,599.14-497.14,951.27-323.89,352.13,173.25,497.14,599.14,323.89,951.27-173.24,352.13-599.14,497.14-951.27,323.89"/>
    </clipPath>
    <radialGradient id="Gradiente_sem_nome_8" data-name="Gradiente sem nome 8" cx="-164.4" cy="-256.22" fx="-164.4" fy="-256.22" r="1" gradientTransform="translate(117715.33 182210.8) scale(710.57)" gradientUnits="userSpaceOnUse">
      <stop offset="0" stop-color="#fff"/>
      <stop offset="1" stop-color="#000"/>
    </radialGradient>
    <mask id="mask" x="-554.25" y="-1302.23" width="2906.36" height="2906.36" maskUnits="userSpaceOnUse">
      <rect class="cls-14" x="-186.55" y="-934.53" width="2170.97" height="2170.97" transform="translate(366.64 890.91) rotate(-63.8)"/>
    </mask>
    <radialGradient id="Gradiente_sem_nome_7" data-name="Gradiente sem nome 7" cx="-164.4" cy="-256.22" fx="-164.4" fy="-256.22" r="1" gradientTransform="translate(117715.33 182210.8) scale(710.57)" gradientUnits="userSpaceOnUse">
      <stop offset="0" stop-color="#7dabab"/>
      <stop offset="1" stop-color="#7dabab"/>
    </radialGradient>
    <clipPath id="clippath-10">
      <rect class="cls-11" x="-113.83" y="176.51" width="1820" height="982.68"/>
    </clipPath>
    <clipPath id="clippath-11">
      <rect class="cls-11" x="-285.5" y="-509.46" width="2162.2" height="2363.25"/>
    </clipPath>
  </defs>
  <g class="cls-7">
    <g class="cls-2">
      <g class="cls-8">
        <g class="cls-5">
          <g class="cls-9">
            <g class="cls-13">
              <g class="cls-4">
                <g class="cls-12">
                  <rect class="cls-15" x="-186.55" y="-934.53" width="2170.97" height="2170.97" transform="translate(366.64 890.91) rotate(-63.8)"/>
                </g>
              </g>
            </g>
          </g>
        </g>
      </g>
    </g>
    <g class="cls-6">
      <g class="cls-3">
        <g class="cls-10">
          <path class="cls-1" d="m894.83,671.82l822.85,228.83c167.4,37.8,205.89,182.94,99.23,358.44-99.23,182.93-243.69,221.41-365.86,99.23l-609.55-609.55,220.73,838.38c45.9,159.98-60.75,266.63-266.63,266.63s-312.54-106.65-266.64-266.63l220.73-830.95L140.15,1358.32c-122.18,122.18-266.63,83.7-365.86-99.23-106.66-175.51-68.85-319.96,99.23-358.44l830.28-228.83L-126.48,443c-167.4-37.8-205.89-182.93-99.23-365.86C-126.48-98.37,17.97-136.17,140.15-14l609.55,602.12-220.73-830.95c-45.91-159.98,60.75-266.63,266.64-266.63s312.53,106.65,266.63,266.63l-220.73,838.38L1451.05-14c122.18-122.18,266.64-83.7,365.86,91.8,106.65,182.93,68.85,327.38-99.23,365.86l-822.85,228.83v-.68Z"/>
        </g>
      </g>
    </g>
  </g>
  <g>
    <path class="cls-16" d="m142.96,58.95c-7.14,8.91-13.51,12.84-18.46,12.84s-7.9-4.31-5.8-11.5l6.28-21.66c1.62-5.65,0-8.24-5.52-7.95l.19-.86,16.08-3.45.67.29-3.14,11.41-5.9,20.32c-1.62,5.65.1,8.05,2.95,8.05,3.24,0,8.18-3.45,13.8-11.4l4.66-16.39c1.62-5.75,0-8.24-5.71-7.95l.19-.86,16.27-3.45.67.29-3.23,11.69-6.09,21.28c-1.43,5.08-.67,6.9.95,6.9,1.81,0,5.04-2.4,8.47-7l.95.67c-4.95,7-11.32,11.02-15.22,11.02-2.95,0-5.99-2.39-3.43-11.02l.38-1.25Z"/>
    <path class="cls-16" d="m193.19,60.19l6.75-22.71c1.24-4.03.1-5.94-2.19-5.94-3.33,0-9.42,3.83-16.84,12.75l-7.23,26.26h-7.99l8.76-31.92c1.52-5.65-.1-8.24-5.52-7.95l.19-.86,15.98-3.45.67.29-4,14.38c8.28-9.59,16.27-15.05,21.5-15.05s7.04,5.08,5.14,11.21l-7.04,22.81c-1.43,4.5-.76,6.52.95,6.52,1.9,0,5.33-2.49,8.56-7l.95.67c-5.04,6.9-11.32,11.02-15.22,11.02-2.95,0-6.09-2.49-3.43-11.02"/>
    <path class="cls-16" d="m242.57,59.43c-7.42,9.39-12.84,12.36-17.41,12.36-5.42,0-10.28-4.41-10.28-13.8-.09-16.1,14.46-32.01,26.64-32.01,3.9,0,6.76,1.63,8.76,4.03l5.14-19.74c1.14-4.79.85-6.04-5.8-5.85l.19-.86,15.98-3.55.67.29-3.52,12.08-12.56,48.21c-1.05,4.41-.67,5.94,1.14,5.94,2.38,0,8.68-5.94,11.72-9.77l-.22,1.01c-5.14,6.8-13.4,13.46-17.31,13.46-3.33,0-5.42-2.88-3.52-10.35l.38-1.44Zm.86-3.26l3.33-12.84c2.09-7.96.57-15.91-4.95-15.91-7.71,0-18.65,12.27-18.65,27.51,0,7.28,2.66,10.06,6.76,10.06s8.37-2.49,13.51-8.82"/>
    <path class="cls-16" d="m5.37,63.5h-.17v6.55H0V10.03h5.2v24.09h.17c3.02-5.04,7.81-8.39,14.69-8.39,10.41,0,17.88,8.31,17.88,22.75,0,13.35-6.8,22.75-18.22,22.75-6.63,0-11-2.6-14.35-7.72m27.28-14.94c0-10.83-4.62-18.47-13.26-18.47-9.57,0-14.61,8.14-14.61,18.47s5.04,18.3,14.69,18.3c8.9,0,13.18-8.14,13.18-18.3"/>
    <path class="cls-16" d="m82.97,83.73v-4.62h.25c.76.25,1.93.59,3.95.59,3.27,0,5.62-1.43,7.22-5.88l1.43-3.86-16.7-43.31h5.54l10.41,28.04c1.51,4.03,3.44,9.9,3.44,9.9h.17s1.85-5.88,3.27-9.9l9.99-28.04h5.37l-17.88,47.93c-2.94,7.81-6.38,9.82-12,9.82-1.93,0-3.11-.25-4.45-.67"/>
    <path class="cls-16" d="m260.93,48.39c0-12.93,7.22-22.75,19.81-22.75,9.57,0,16.03,5.2,17.46,14.1h-5.2c-1.26-6.46-5.54-9.74-12.26-9.74-9.99,0-14.44,8.31-14.44,18.38s4.53,18.3,14.35,18.3c7.39,0,12-4.62,12.84-11.58h4.95c-1.01,9.82-7.47,16.03-17.8,16.03-12.68,0-19.72-9.82-19.72-22.75"/>
    <path class="cls-16" d="m302.15,48.39c0-12.93,7.64-22.75,20.15-22.75s19.98,9.82,19.98,22.75-7.47,22.75-19.98,22.75-20.15-9.82-20.15-22.75m34.84,0c0-10.16-5.04-18.38-14.69-18.38s-14.77,8.23-14.77,18.38,5.04,18.38,14.77,18.38,14.69-8.23,14.69-18.38"/>
    <path class="cls-16" d="m76.14,39.16c0-9.48-5.88-13.43-15.36-13.43-11.17,0-16.71,5.46-17.29,13.85h5.12c.42-6.46,4.45-9.65,12.17-9.65,6.72,0,10.41,2.85,10.41,8.73v.84c0,4.37-3.11,4.87-11.67,5.88-9.82,1.18-17.88,3.27-17.88,13.6,0,8.06,6.13,12.09,14.19,12.09s12.76-4.03,15.19-7.47h.25v.92c.22,3.6,1.99,5.53,4.88,6v-31.35m-4.88,15.19c0,5.96-5.04,12.51-14.52,12.51-5.12,0-9.65-1.85-9.65-7.89,0-7.47,5.62-8.56,12.93-9.57,4.2-.59,8.48-1.34,11.25-2.85v7.81Z"/>
    <rect class="cls-16" x="71.27" y="62.52" width="4.88" height="7.98"/>
  </g>
</svg>