<?xml version="1.0" encoding="UTF-8"?>
<svg id="Camada_1" data-name="Camada 1" xmlns="http://www.w3.org/2000/svg" xmlns:xlink="http://www.w3.org/1999/xlink" viewBox="0 0 368.41 108.94">
  <defs>
    <style>
      .cls-1 {
        fill: #fff;
      }

      .cls-2 {
        clip-path: url(#clippath-6);
      }

      .cls-2, .cls-3, .cls-4, .cls-5, .cls-6, .cls-7, .cls-8, .cls-9, .cls-10, .cls-11, .cls-12, .cls-13 {
        fill: none;
      }

      .cls-3 {
        opacity: .04;
      }

      .cls-4 {
        clip-path: url(#clippath-9);
      }

      .cls-5 {
        clip-path: url(#clippath-7);
      }

      .cls-6 {
        clip-path: url(#clippath-10);
      }

      .cls-7 {
        clip-path: url(#clippath-5);
      }

      .cls-8 {
        opacity: .37;
      }

      .cls-9 {
        isolation: isolate;
        opacity: .95;
      }

      .cls-14 {
        fill: url(#Gradiente_sem_nome_8);
      }

      .cls-15 {
        fill: url(#Gradiente_sem_nome_7);
      }

      .cls-10 {
        clip-path: url(#clippath-11);
      }

      .cls-12 {
        mask: url(#mask);
      }

      .cls-16 {
        fill: #00674f;
      }

      .cls-13 {
        clip-path: url(#clippath-8);
      }
    </style>
    <clipPath id="clippath">
      <rect class="cls-11" x="-2098.95" y="-2489.24" width="1920" height="1080"/>
    </clipPath>
    <clipPath id="clippath-1">
      <rect class="cls-11" x="-2098.95" y="-2489.24" width="1920" height="1080"/>
    </clipPath>
    <clipPath id="clippath-2">
      <rect class="cls-11" x="-2098.95" y="-2489.24" width="1920" height="1080"/>
    </clipPath>
    <clipPath id="clippath-3">
      <rect class="cls-11" x="114.44" y="-973.83" width="1820" height="980"/>
    </clipPath>
    <clipPath id="clippath-5">
      <rect class="cls-11" x="-158.95" y="-2489.24" width="1920" height="1080"/>
    </clipPath>
    <clipPath id="clippath-6">
      <rect class="cls-11" x="-108.38" y="-973.83" width="1820" height="980"/>
    </clipPath>
    <clipPath id="clippath-7">
      <rect class="cls-11" x="-373.46" y="-1712.8" width="2144.49" height="2362.02"/>
    </clipPath>
    <clipPath id="clippath-8">
      <rect class="cls-11" x="193.65" y="-1712.8" width="1421.46" height="1421.46"/>
    </clipPath>
    <clipPath id="clippath-9">
      <path class="cls-11" d="m590.69-364.49c-352.13-173.24-497.14-599.14-323.89-951.27,173.24-352.13,599.14-497.14,951.27-323.89,352.13,173.25,497.14,599.14,323.89,951.27-173.24,352.13-599.14,497.14-951.27,323.89"/>
    </clipPath>
    <radialGradient id="Gradiente_sem_nome_8" data-name="Gradiente sem nome 8" cx="-158.95" cy="-1409.24" fx="-158.95" fy="-1409.24" r="1" gradientTransform="translate(113852.85 1000362.46) scale(710.57)" gradientUnits="userSpaceOnUse">
      <stop offset="0" stop-color="#fff"/>
      <stop offset="1" stop-color="#000"/>
    </radialGradient>
    <mask id="mask" x="-548.81" y="-2455.25" width="2906.36" height="2906.36" maskUnits="userSpaceOnUse">
      <rect class="cls-14" x="-181.11" y="-2087.55" width="2170.97" height="2170.97" transform="translate(1404.27 251.78) rotate(-63.8)"/>
    </mask>
    <radialGradient id="Gradiente_sem_nome_7" data-name="Gradiente sem nome 7" cx="-158.95" cy="-1409.24" fx="-158.95" fy="-1409.24" r="1" gradientTransform="translate(113852.83 1000362.48) scale(710.57)" gradientUnits="userSpaceOnUse">
      <stop offset="0" stop-color="#7dabab"/>
      <stop offset="1" stop-color="#7dabab"/>
    </radialGradient>
    <clipPath id="clippath-10">
      <rect class="cls-11" x="-108.38" y="-976.51" width="1820" height="982.68"/>
    </clipPath>
    <clipPath id="clippath-11">
      <rect class="cls-11" x="-280.05" y="-1662.49" width="2162.2" height="2363.25"/>
    </clipPath>
  </defs>
  <g class="cls-7">
    <g class="cls-2">
      <g class="cls-8">
        <g class="cls-5">
          <g class="cls-9">
            <g class="cls-13">
              <g class="cls-4">
                <g class="cls-12">
                  <rect class="cls-15" x="-181.11" y="-2087.55" width="2170.97" height="2170.97" transform="translate(1404.27 251.78) rotate(-63.8)"/>
                </g>
              </g>
            </g>
          </g>
        </g>
      </g>
    </g>
    <g class="cls-6">
      <g class="cls-3">
        <g class="cls-10">
          <path class="cls-1" d="m900.27-481.2l822.85,228.83c167.4,37.8,205.89,182.94,99.23,358.44-99.23,182.93-243.69,221.41-365.86,99.23L846.95-404.25l220.73,838.38c45.9,159.98-60.75,266.63-266.63,266.63s-312.54-106.65-266.64-266.63l220.73-830.95L145.6,205.3C23.41,327.48-121.03,289-220.26,106.07c-106.66-175.51-68.85-319.96,99.23-358.44l830.28-228.83L-121.03-710.03c-167.4-37.8-205.89-182.93-99.23-365.86,99.23-175.51,243.67-213.31,365.86-91.13l609.55,602.12-220.73-830.95c-45.91-159.98,60.75-266.63,266.64-266.63s312.53,106.65,266.63,266.63l-220.73,838.38,609.55-609.54c122.18-122.18,266.64-83.7,365.86,91.8,106.65,182.93,68.85,327.38-99.23,365.86l-822.85,228.83v-.68Z"/>
        </g>
      </g>
    </g>
  </g>
  <g>
    <path class="cls-16" d="m153.87,63.45c-7.68,9.6-14.54,13.83-19.87,13.83s-8.5-4.64-6.25-12.38l6.76-23.32c1.74-6.09,0-8.87-5.94-8.56l.2-.93,17.31-3.71.72.31-3.38,12.28-6.35,21.87c-1.74,6.09.1,8.67,3.18,8.67,3.48,0,8.81-3.71,14.85-12.28l5.02-17.64c1.74-6.19,0-8.87-6.14-8.56l.2-.93,17.51-3.71.72.31-3.48,12.59-6.55,22.9c-1.54,5.47-.72,7.43,1.02,7.43,1.95,0,5.43-2.58,9.11-7.53l1.02.72c-5.32,7.53-12.19,11.86-16.39,11.86-3.18,0-6.45-2.58-3.69-11.86l.41-1.34Z"/>
    <path class="cls-16" d="m207.95,64.79l7.27-24.45c1.33-4.33.1-6.4-2.36-6.4-3.58,0-10.14,4.13-18.13,13.72l-7.78,28.27h-8.6l9.42-34.35c1.64-6.09-.1-8.87-5.94-8.56l.21-.93,17.21-3.72.72.31-4.3,15.48c8.91-10.32,17.51-16.2,23.15-16.2s7.58,5.47,5.53,12.07l-7.58,24.55c-1.54,4.85-.82,7.02,1.02,7.02,2.05,0,5.73-2.68,9.22-7.53l1.03.72c-5.43,7.43-12.19,11.86-16.39,11.86-3.18,0-6.55-2.68-3.69-11.86"/>
    <path class="cls-16" d="m261.1,63.96c-7.99,10.11-13.83,13.31-18.74,13.31-5.84,0-11.06-4.75-11.06-14.86-.1-17.33,15.57-34.46,28.68-34.46,4.2,0,7.27,1.75,9.42,4.33l5.53-21.25c1.23-5.16.92-6.5-6.25-6.29l.2-.93,17.2-3.82.72.31-3.79,13-13.52,51.89c-1.13,4.75-.72,6.4,1.23,6.4,2.56,0,9.34-6.39,12.62-10.52l-.24,1.08c-5.53,7.33-14.43,14.49-18.63,14.49-3.58,0-5.84-3.1-3.79-11.14l.41-1.55Zm.92-3.51l3.59-13.82c2.25-8.56.61-17.13-5.33-17.13-8.29,0-20.07,13.21-20.07,29.61,0,7.84,2.87,10.83,7.27,10.83s9.01-2.68,14.54-9.49"/>
    <path class="cls-16" d="m5.78,68.35h-.18v7.05H0V10.8h5.6v25.93h.18c3.25-5.42,8.4-9.04,15.81-9.04,11.2,0,19.24,8.95,19.24,24.49,0,14.37-7.32,24.48-19.61,24.48-7.14,0-11.84-2.8-15.45-8.31m29.36-16.08c0-11.65-4.97-19.88-14.28-19.88-10.3,0-15.72,8.76-15.72,19.88s5.42,19.7,15.81,19.7c9.58,0,14.19-8.76,14.19-19.7"/>
    <path class="cls-16" d="m89.3,90.12v-4.97h.27c.81.27,2.08.63,4.25.63,3.52,0,6.05-1.53,7.77-6.32l1.54-4.16-17.98-46.62h5.96l11.2,30.18c1.63,4.34,3.7,10.66,3.7,10.66h.18s1.99-6.32,3.52-10.66l10.75-30.18h5.78l-19.24,51.59c-3.16,8.4-6.87,10.57-12.92,10.57-2.08,0-3.34-.27-4.79-.72"/>
    <path class="cls-16" d="m280.86,52.09c0-13.91,7.77-24.48,21.32-24.48,10.3,0,17.26,5.6,18.79,15.18h-5.6c-1.36-6.96-5.96-10.48-13.19-10.48-10.75,0-15.54,8.95-15.54,19.79s4.88,19.7,15.45,19.7c7.95,0,12.92-4.97,13.82-12.47h5.33c-1.08,10.57-8.04,17.26-19.15,17.26-13.64,0-21.23-10.57-21.23-24.49"/>
    <path class="cls-16" d="m325.23,52.09c0-13.91,8.22-24.48,21.68-24.48s21.5,10.57,21.5,24.48-8.04,24.49-21.5,24.49-21.68-10.57-21.68-24.49m37.5,0c0-10.93-5.42-19.79-15.81-19.79s-15.9,8.85-15.9,19.79,5.42,19.79,15.9,19.79,15.81-8.85,15.81-19.79"/>
    <path class="cls-16" d="m81.95,42.15c0-10.21-6.33-14.46-16.53-14.46-12.02,0-17.98,5.87-18.61,14.91h5.51c.45-6.96,4.79-10.39,13.1-10.39,7.23,0,11.2,3.07,11.2,9.4v.9c0,4.7-3.34,5.24-12.56,6.32-10.57,1.27-19.24,3.52-19.24,14.64,0,8.67,6.6,13.01,15.27,13.01s13.73-4.34,16.35-8.04h.27v.99c.23,3.88,2.14,5.95,5.25,6.46v-33.75m-5.25,16.35c0,6.42-5.42,13.46-15.63,13.46-5.51,0-10.39-1.99-10.39-8.49,0-8.04,6.05-9.22,13.92-10.3,4.52-.63,9.12-1.45,12.11-3.07v8.4Z"/>
    <rect class="cls-16" x="76.71" y="67.3" width="5.25" height="8.59"/>
    <path class="cls-16" d="m154.34,99.76c0-5.16,3.1-9.17,8.34-9.17,4.11,0,6.59,2.36,7.06,5.61h-2.16c-.42-2.19-2.16-3.69-4.94-3.69-3.86,0-6.03,3.12-6.03,7.26s2.39,7.21,6.05,7.21c3.32,0,4.9-2.26,5.12-4.85h2.19c-.03,1.75-.86,3.71-2.12,4.95-1.23,1.21-3.03,1.84-5.26,1.84-4.99,0-8.24-3.81-8.24-9.15"/>
    <path class="cls-16" d="m186.98,90.98h2.48l6.49,17.59h-2.41l-1.87-5.36h-7.01l-1.89,5.36h-2.26l6.47-17.59Zm-1.67,10.43h5.76l-2.02-5.9c-.34-.98-.79-2.48-.79-2.48h-.05s-.47,1.48-.81,2.48l-2.09,5.9Z"/>
    <polygon class="cls-16" points="204.38 90.98 218.3 90.98 218.3 92.92 212.45 92.92 212.45 108.57 210.23 108.57 210.23 92.92 204.38 92.92 204.38 90.98"/>
    <polygon class="cls-16" points="230.33 90.98 242.75 90.98 242.75 92.92 232.54 92.92 232.54 98.48 241.82 98.48 241.82 100.35 232.54 100.35 232.54 106.53 243.05 106.53 243.05 108.57 230.33 108.57 230.33 90.98"/>
    <path class="cls-16" d="m255.47,90.98h8.21c3.1,0,5.19,1.94,5.19,4.82,0,2.14-.93,3.67-3.05,4.35v.07c1.8.64,2.36,1.87,2.53,4.48.2,2.83.49,3.54.81,3.76v.1h-2.39c-.37-.32-.44-.99-.64-3.94-.17-2.58-1.21-3.49-3.57-3.49h-4.9v7.43h-2.21v-17.59Zm2.21,8.36h5.21c2.46,0,3.69-1.23,3.69-3.22,0-2.14-.98-3.22-3.57-3.22h-5.34v6.44Z"/>
    <rect class="cls-16" x="281.45" y="90.98" width="2.21" height="17.59"/>
    <path class="cls-16" d="m296.85,90.98h2.34l8.02,12.23c.59.91,1.28,2.26,1.28,2.26h.05v-14.49h2.07v17.59h-2.26l-8.07-12.25c-.57-.86-1.3-2.19-1.3-2.19h-.05v14.44h-2.06v-17.59Z"/>
    <path class="cls-16" d="m336.87,106.26h-.05c-1.28,1.8-3.17,2.68-5.48,2.68-4.94,0-8.27-3.76-8.27-9.1s2.93-9.22,8.46-9.22c4.08,0,6.59,2.21,7.16,5.66h-2.29c-.49-2.34-2.14-3.74-4.92-3.74-4.23,0-6.15,3.17-6.15,7.3s2.51,7.18,6.07,7.18,5.31-2.46,5.31-5.41v-.42h-5.29v-1.92h7.5v9.3h-1.42l-.64-2.31Z"/>
  </g>
</svg>