<?xml version="1.0" encoding="UTF-8"?>
<svg id="Camada_1" data-name="Camada 1" xmlns="http://www.w3.org/2000/svg" xmlns:xlink="http://www.w3.org/1999/xlink" viewBox="0 0 368.41 108.57">
  <defs>
    <style>
      .cls-1 {
        fill: none;
      }
    </style>
    <clipPath id="clippath">
      <rect class="cls-1" x="-4063.52" y="-2973.93" width="1920" height="1080"/>
    </clipPath>
    <clipPath id="clippath-1">
      <rect class="cls-1" x="-4063.52" y="-2973.93" width="1920" height="1080"/>
    </clipPath>
    <clipPath id="clippath-2">
      <rect class="cls-1" x="-4063.52" y="-2973.93" width="1920" height="1080"/>
    </clipPath>
    <clipPath id="clippath-3">
      <rect class="cls-1" x="-1850.12" y="-1458.52" width="1820" height="980"/>
    </clipPath>
    <clipPath id="clippath-5">
      <rect class="cls-1" x="-2123.52" y="-2973.93" width="1920" height="1080"/>
    </clipPath>
    <clipPath id="clippath-6">
      <rect class="cls-1" x="-2072.94" y="-1458.52" width="1820" height="980"/>
    </clipPath>
  </defs>
  <path d="m153.87,63.45c-7.68,9.6-14.54,13.83-19.87,13.83s-8.5-4.64-6.25-12.38l6.76-23.31c1.74-6.09,0-8.87-5.94-8.56l.2-.93,17.31-3.71.72.31-3.38,12.28-6.35,21.87c-1.74,6.09.1,8.67,3.18,8.67,3.48,0,8.81-3.71,14.85-12.28l5.02-17.64c1.74-6.19,0-8.87-6.15-8.56l.2-.93,17.51-3.71.72.31-3.48,12.59-6.55,22.9c-1.54,5.47-.72,7.43,1.02,7.43,1.95,0,5.43-2.58,9.11-7.53l1.02.72c-5.32,7.53-12.19,11.86-16.39,11.86-3.18,0-6.45-2.58-3.69-11.86l.41-1.34Z"/>
  <path d="m207.95,64.79l7.27-24.45c1.33-4.33.1-6.4-2.36-6.4-3.58,0-10.14,4.13-18.13,13.72l-7.78,28.27h-8.6l9.42-34.36c1.64-6.09-.1-8.87-5.94-8.56l.21-.93,17.2-3.72.72.31-4.3,15.48c8.91-10.32,17.51-16.2,23.15-16.2s7.58,5.47,5.53,12.07l-7.58,24.55c-1.54,4.85-.82,7.02,1.02,7.02,2.05,0,5.73-2.68,9.22-7.53l1.03.72c-5.43,7.43-12.19,11.86-16.39,11.86-3.18,0-6.56-2.68-3.69-11.86"/>
  <path d="m261.1,63.96c-7.99,10.11-13.83,13.31-18.74,13.31-5.84,0-11.06-4.75-11.06-14.86-.1-17.33,15.57-34.46,28.68-34.46,4.2,0,7.27,1.75,9.42,4.33l5.53-21.25c1.23-5.16.92-6.5-6.25-6.29l.2-.93,17.2-3.82.72.31-3.79,13-13.52,51.89c-1.13,4.75-.72,6.4,1.23,6.4,2.56,0,9.34-6.39,12.62-10.52l-.24,1.08c-5.53,7.33-14.43,14.49-18.63,14.49-3.58,0-5.84-3.1-3.79-11.14l.41-1.55Zm.92-3.51l3.59-13.82c2.25-8.56.61-17.13-5.33-17.13-8.29,0-20.07,13.21-20.07,29.61,0,7.84,2.87,10.83,7.27,10.83s9.01-2.68,14.54-9.49"/>
  <path d="m5.78,68.35h-.18v7.05H0V10.8h5.6v25.93h.18c3.25-5.42,8.4-9.04,15.81-9.04,11.2,0,19.24,8.95,19.24,24.49,0,14.37-7.32,24.49-19.61,24.49-7.14,0-11.84-2.8-15.45-8.31m29.36-16.08c0-11.65-4.97-19.88-14.28-19.88-10.3,0-15.72,8.76-15.72,19.88s5.42,19.7,15.81,19.7c9.58,0,14.19-8.76,14.19-19.7"/>
  <path d="m89.3,90.12v-4.97h.27c.81.27,2.08.63,4.25.63,3.52,0,6.05-1.54,7.77-6.32l1.54-4.16-17.98-46.62h5.96l11.2,30.18c1.63,4.34,3.7,10.66,3.7,10.66h.18s1.99-6.32,3.52-10.66l10.75-30.18h5.78l-19.24,51.59c-3.16,8.4-6.87,10.57-12.92,10.57-2.08,0-3.34-.27-4.79-.72"/>
  <path d="m280.86,52.09c0-13.91,7.77-24.48,21.32-24.48,10.3,0,17.26,5.6,18.79,15.18h-5.6c-1.36-6.96-5.96-10.48-13.19-10.48-10.75,0-15.54,8.95-15.54,19.79s4.88,19.7,15.45,19.7c7.95,0,12.92-4.97,13.82-12.47h5.33c-1.08,10.57-8.04,17.26-19.16,17.26-13.64,0-21.23-10.57-21.23-24.49"/>
  <path d="m325.23,52.09c0-13.91,8.22-24.48,21.68-24.48s21.5,10.57,21.5,24.48-8.04,24.49-21.5,24.49-21.68-10.57-21.68-24.49m37.5,0c0-10.93-5.42-19.79-15.81-19.79s-15.9,8.85-15.9,19.79,5.42,19.79,15.9,19.79,15.81-8.85,15.81-19.79"/>
  <path d="m81.95,42.15c0-10.21-6.33-14.46-16.53-14.46-12.02,0-17.98,5.87-18.61,14.91h5.51c.45-6.96,4.79-10.39,13.1-10.39,7.23,0,11.2,3.07,11.2,9.4v.9c0,4.7-3.34,5.24-12.56,6.32-10.57,1.27-19.24,3.52-19.24,14.64,0,8.67,6.6,13.01,15.27,13.01s13.73-4.34,16.35-8.04h.27v.99c.23,3.88,2.14,5.95,5.25,6.46v-33.75m-5.25,16.35c0,6.42-5.42,13.46-15.63,13.46-5.51,0-10.39-1.99-10.39-8.49,0-8.04,6.05-9.21,13.92-10.3,4.52-.63,9.12-1.45,12.11-3.07v8.4Z"/>
  <rect x="76.71" y="67.3" width="5.25" height="8.6"/>
  <polygon points="139.29 90.98 151.22 90.98 151.22 92.92 141.51 92.92 141.51 98.41 149.6 98.41 149.6 100.28 141.51 100.28 141.51 108.57 139.29 108.57 139.29 90.98"/>
  <path d="m166.82,90.98h2.48l6.49,17.59h-2.41l-1.87-5.36h-7.01l-1.89,5.36h-2.26l6.47-17.59Zm-1.67,10.43h5.76l-2.02-5.9c-.34-.98-.79-2.48-.79-2.48h-.05s-.47,1.48-.81,2.48l-2.09,5.9Z"/>
  <rect x="187.58" y="90.98" width="2.21" height="17.59"/>
  <path d="m202.98,90.98h8.21c3.1,0,5.19,1.94,5.19,4.82,0,2.14-.93,3.67-3.05,4.35v.07c1.8.64,2.36,1.87,2.53,4.48.2,2.83.49,3.54.81,3.76v.1h-2.39c-.37-.32-.44-.99-.64-3.94-.17-2.58-1.2-3.49-3.57-3.49h-4.9v7.43h-2.21v-17.59Zm2.21,8.36h5.21c2.46,0,3.69-1.23,3.69-3.22,0-2.14-.98-3.22-3.57-3.22h-5.34v6.44Z"/>
  <polygon points="242.66 90.98 255.09 90.98 255.09 92.92 244.88 92.92 244.88 98.48 254.15 98.48 254.15 100.35 244.88 100.35 244.88 106.53 255.38 106.53 255.38 108.57 242.66 108.57 242.66 90.98"/>
  <path d="m266.4,90.98h2.39l4.33,13.09c.27.81.69,2.36.69,2.36h.05s.42-1.57.69-2.36l4.28-13.09h2.31l-6.17,17.59h-2.43l-6.12-17.59Z"/>
  <polygon points="292.87 90.98 305.3 90.98 305.3 92.92 295.09 92.92 295.09 98.48 304.36 98.48 304.36 100.35 295.09 100.35 295.09 106.53 305.59 106.53 305.59 108.57 292.87 108.57 292.87 90.98"/>
  <path d="m318.02,90.98h2.34l8.02,12.23c.59.91,1.28,2.26,1.28,2.26h.05v-14.49h2.06v17.59h-2.26l-8.07-12.25c-.57-.86-1.3-2.19-1.3-2.19h-.05v14.44h-2.06v-17.59Z"/>
  <polygon points="343.8 90.98 357.72 90.98 357.72 92.92 351.87 92.92 351.87 108.57 349.65 108.57 349.65 92.92 343.8 92.92 343.8 90.98"/>
</svg>