<?xml version="1.0" encoding="UTF-8"?>
<svg id="Camada_1" data-name="Camada 1" xmlns="http://www.w3.org/2000/svg" xmlns:xlink="http://www.w3.org/1999/xlink" viewBox="0 0 75.06 82.99">
  <defs>
    <style>
      .cls-1 {
        fill: #fff;
      }

      .cls-2 {
        clip-path: url(#clippath-6);
      }

      .cls-2, .cls-3, .cls-4, .cls-5, .cls-6, .cls-7, .cls-8, .cls-9, .cls-10, .cls-11, .cls-12, .cls-13 {
        fill: none;
      }

      .cls-3 {
        opacity: .04;
      }

      .cls-4 {
        clip-path: url(#clippath-9);
      }

      .cls-5 {
        clip-path: url(#clippath-7);
      }

      .cls-6 {
        clip-path: url(#clippath-10);
      }

      .cls-7 {
        clip-path: url(#clippath-5);
      }

      .cls-8 {
        opacity: .37;
      }

      .cls-9 {
        isolation: isolate;
        opacity: .95;
      }

      .cls-14 {
        fill: url(#Gradiente_sem_nome_8);
      }

      .cls-15 {
        fill: url(#Gradiente_sem_nome_7);
      }

      .cls-10 {
        clip-path: url(#clippath-11);
      }

      .cls-12 {
        mask: url(#mask);
      }

      .cls-13 {
        clip-path: url(#clippath-8);
      }

      .cls-16 {
        fill: #004369;
      }
    </style>
    <clipPath id="clippath">
      <rect class="cls-11" x="-2847.75" y="-1651.11" width="1920" height="1080"/>
    </clipPath>
    <clipPath id="clippath-1">
      <rect class="cls-11" x="-2847.75" y="-1651.11" width="1920" height="1080"/>
    </clipPath>
    <clipPath id="clippath-2">
      <rect class="cls-11" x="-2847.75" y="-1651.11" width="1920" height="1080"/>
    </clipPath>
    <clipPath id="clippath-3">
      <rect class="cls-11" x="-634.36" y="-135.7" width="1820" height="980"/>
    </clipPath>
    <clipPath id="clippath-5">
      <rect class="cls-11" x="-907.75" y="-1651.11" width="1920" height="1080"/>
    </clipPath>
    <clipPath id="clippath-6">
      <rect class="cls-11" x="-857.18" y="-135.7" width="1820" height="980"/>
    </clipPath>
    <clipPath id="clippath-7">
      <rect class="cls-11" x="-1122.26" y="-874.66" width="2144.49" height="2362.02"/>
    </clipPath>
    <clipPath id="clippath-8">
      <rect class="cls-11" x="-555.15" y="-874.66" width="1421.46" height="1421.46"/>
    </clipPath>
    <clipPath id="clippath-9">
      <path class="cls-11" d="m-158.11,473.65C-510.24,300.4-655.25-125.5-482.01-477.62c173.24-352.13,599.14-497.14,951.27-323.89,352.13,173.25,497.14,599.14,323.89,951.27C619.91,501.88,194.01,646.89-158.11,473.65"/>
    </clipPath>
    <radialGradient id="Gradiente_sem_nome_8" data-name="Gradiente sem nome 8" cx="-907.75" cy="-571.11" fx="-907.75" fy="-571.11" r="1" gradientTransform="translate(645177.49 405647.21) scale(710.57)" gradientUnits="userSpaceOnUse">
      <stop offset="0" stop-color="#fff"/>
      <stop offset="1" stop-color="#000"/>
    </radialGradient>
    <mask id="mask" x="-1297.61" y="-1617.12" width="2906.36" height="2906.36" maskUnits="userSpaceOnUse">
      <rect class="cls-14" x="-929.91" y="-1249.42" width="2170.97" height="2170.97" transform="translate(233.99 48.03) rotate(-63.8)"/>
    </mask>
    <radialGradient id="Gradiente_sem_nome_7" data-name="Gradiente sem nome 7" cx="-907.75" cy="-571.11" fx="-907.75" fy="-571.11" r="1" gradientTransform="translate(645177.5 405647.23) scale(710.57)" gradientUnits="userSpaceOnUse">
      <stop offset="0" stop-color="#7dabab"/>
      <stop offset="1" stop-color="#7dabab"/>
    </radialGradient>
    <clipPath id="clippath-10">
      <rect class="cls-11" x="-857.18" y="-138.38" width="1820" height="982.68"/>
    </clipPath>
    <clipPath id="clippath-11">
      <rect class="cls-11" x="-1028.85" y="-824.35" width="2162.2" height="2363.25"/>
    </clipPath>
  </defs>
  <g class="cls-7">
    <g class="cls-2">
      <g class="cls-8">
        <g class="cls-5">
          <g class="cls-9">
            <g class="cls-13">
              <g class="cls-4">
                <g class="cls-12">
                  <rect class="cls-15" x="-929.91" y="-1249.42" width="2170.97" height="2170.97" transform="translate(233.99 48.03) rotate(-63.8)"/>
                </g>
              </g>
            </g>
          </g>
        </g>
      </g>
    </g>
    <g class="cls-6">
      <g class="cls-3">
        <g class="cls-10">
          <path class="cls-1" d="m151.48,356.93l822.85,228.83c167.4,37.8,205.89,182.94,99.23,358.44-99.23,182.93-243.69,221.41-365.86,99.23L98.15,433.89l220.73,838.38c45.9,159.98-60.75,266.63-266.63,266.63s-312.54-106.65-266.64-266.63L6.34,441.31l-609.55,602.12c-122.18,122.18-266.63,83.7-365.86-99.23-106.66-175.51-68.85-319.96,99.23-358.44L-39.55,356.93l-830.28-228.83c-167.4-37.8-205.89-182.93-99.23-365.86,99.23-175.51,243.67-213.31,365.86-91.13L6.34,273.23l-220.73-830.95c-45.91-159.98,60.75-266.63,266.64-266.63s312.53,106.65,266.63,266.63L98.15,280.66,707.69-328.89c122.18-122.18,266.64-83.7,365.86,91.8,106.65,182.93,68.85,327.38-99.23,365.86L151.48,357.61v-.68Z"/>
        </g>
      </g>
    </g>
  </g>
  <path class="cls-16" d="m75.06,44.64l-1.89-8.94-30.75,6.51c-1.6-3.57-4.19-6.62-7.55-8.8-4.6-2.99-10.09-4-15.45-2.86-1.35.29-2.66.69-3.92,1.18-.65-1.44-1.15-2.97-1.46-4.59-.76-4,.09-8.05,2.38-11.41,2.29-3.36,5.76-5.63,9.76-6.39,2.96-.56,5.96.07,8.45,1.76,2.49,1.7,4.17,4.26,4.73,7.22l8.98-1.7c-1.01-5.36-4.05-10-8.56-13.07C35.27.48,29.83-.65,24.48.36c-6.4,1.21-11.94,4.84-15.61,10.22-3.67,5.38-5.02,11.86-3.81,18.26.53,2.79,1.44,5.4,2.67,7.82-1.42,1.34-2.68,2.85-3.77,4.52C.39,46.68-.82,53.23.55,59.63c2.95,13.85,15.22,23.36,28.85,23.36,2.03,0,4.09-.21,6.15-.65,16.9-3.6,28.47-18.67,28.29-35.33l11.22-2.37Zm-45.17-3.57c1.05.68,1.95,1.51,2.7,2.46-4.03-.26-7.83-1.72-10.95-4.1,2.87-.53,5.78.04,8.24,1.64m3.75,32.33c-10.98,2.34-21.82-4.69-24.16-15.67-.85-4.02-.1-8.13,2.14-11.57.47-.72,1-1.38,1.57-2,5.4,5.36,12.79,8.56,20.67,8.56,1.8,0,3.63-.17,5.47-.51l15.32-3.24c-.69,11.65-9.05,21.9-21,24.44"/>
</svg>